<svg width="32" height="32" viewBox="0 0 32 32" fill="none" xmlns="http://www.w3.org/2000/svg">
<path fill-rule="evenodd" clip-rule="evenodd" d="M13.9761 31.6716C15.2898 32.1095 16.7101 32.1095 18.0239 31.6716L27.6239 28.4716C30.2372 27.6004 32 25.1548 32 22.4L32 9.6C32 6.84524 30.2372 4.39955 27.6239 3.52842L18.0239 0.328423C16.7102 -0.109479 15.2899 -0.10948 13.9761 0.328423L4.37614 3.52842C1.76275 4.39955 6.7918e-07 6.84524 4.38352e-07 9.6L-6.8066e-07 22.4C-9.21488e-07 25.1548 1.76275 27.6004 4.37614 28.4716L13.9761 31.6716ZM16 22.4C12.4654 22.4 9.6 19.5346 9.6 16C9.6 12.4654 12.4654 9.6 16 9.6L16 3.2C15.6583 3.2 15.3165 3.25474 14.9881 3.36421L5.38807 6.56421C4.08138 6.99977 3.2 8.22262 3.2 9.6L3.2 22.4C3.2 23.7774 4.08138 25.0002 5.38807 25.4358L14.9881 28.6358C15.3165 28.7453 15.6582 28.8 16 28.8L16 22.4ZM12.8 16C12.8 14.2327 14.2327 12.8 16 12.8C17.7673 12.8 19.2 14.2327 19.2 16C19.2 17.7673 17.7673 19.2 16 19.2C14.2327 19.2 12.8 17.7673 12.8 16Z" fill="#7DC4A8"/>
</svg>
