<svg viewBox="0 0 890 355" fill="none" xmlns="http://www.w3.org/2000/svg">
<line x1="146" y1="69" x2="146" y2="230" stroke="var(--text-0)" stroke-width="2" stroke-dasharray="2 2"/>
<line x1="1" y1="26" x2="1.00001" y2="355" stroke="var(--text-0)" stroke-width="2" stroke-dasharray="2 2"/>
<line x1="889" y1="26" x2="889" y2="355" stroke="var(--text-0)" stroke-width="2" stroke-dasharray="2 2"/>
<line x1="744" y1="69" x2="744" y2="230" stroke="var(--text-0)" stroke-width="2" stroke-dasharray="2 2"/>
<rect x="146" y="106" width="598" height="248" rx="15" fill="var(--token-neutral-2)" stroke="var(--text-0)" stroke-width="2"/>
<path d="M0 26.0001L10 31.7736L10 20.2266L0 26.0001ZM888 26L878 20.2265L878 31.7735L888 26ZM9 27.0001L879 27L879 25L9 25.0001L9 27.0001Z" fill="var(--text-0)"/>
<path d="M381.64 14.16C381.64 14.496 381.696 14.7413 381.808 14.896C381.92 15.0507 382.093 15.1653 382.328 15.24L382 16.184C381.637 16.136 381.32 16.0213 381.048 15.84C380.776 15.6533 380.579 15.3733 380.456 15C380.152 15.3893 379.773 15.6853 379.32 15.888C378.867 16.0853 378.365 16.184 377.816 16.184C376.973 16.184 376.309 15.9467 375.824 15.472C375.339 14.9973 375.096 14.368 375.096 13.584C375.096 12.7147 375.435 12.048 376.112 11.584C376.789 11.12 377.768 10.888 379.048 10.888H380.288V10.184C380.288 9.576 380.109 9.14667 379.752 8.896C379.4 8.64 378.909 8.512 378.28 8.512C378.003 8.512 377.677 8.54667 377.304 8.616C376.931 8.68 376.525 8.78933 376.088 8.944L375.736 7.928C376.253 7.736 376.739 7.6 377.192 7.52C377.645 7.44 378.077 7.4 378.488 7.4C379.539 7.4 380.325 7.64533 380.848 8.136C381.376 8.62133 381.64 9.28267 381.64 10.12V14.16ZM378.16 15.16C378.576 15.16 378.973 15.056 379.352 14.848C379.731 14.6347 380.043 14.3413 380.288 13.968V11.8H379.072C378.144 11.8 377.488 11.96 377.104 12.28C376.725 12.6 376.536 13.0293 376.536 13.568C376.536 14.0907 376.669 14.488 376.936 14.76C377.208 15.0267 377.616 15.16 378.16 15.16ZM392.226 7.576L389.162 16H387.602L384.562 7.576H385.986L388.426 14.776L390.834 7.576H392.226ZM400.828 14.16C400.828 14.496 400.884 14.7413 400.996 14.896C401.108 15.0507 401.281 15.1653 401.516 15.24L401.188 16.184C400.825 16.136 400.508 16.0213 400.236 15.84C399.964 15.6533 399.766 15.3733 399.644 15C399.34 15.3893 398.961 15.6853 398.508 15.888C398.054 16.0853 397.553 16.184 397.004 16.184C396.161 16.184 395.497 15.9467 395.012 15.472C394.526 14.9973 394.284 14.368 394.284 13.584C394.284 12.7147 394.622 12.048 395.299 11.584C395.977 11.12 396.956 10.888 398.236 10.888H399.476V10.184C399.476 9.576 399.297 9.14667 398.94 8.896C398.588 8.64 398.097 8.512 397.468 8.512C397.19 8.512 396.865 8.54667 396.492 8.616C396.118 8.68 395.713 8.78933 395.276 8.944L394.924 7.928C395.441 7.736 395.926 7.6 396.38 7.52C396.833 7.44 397.265 7.4 397.676 7.4C398.726 7.4 399.513 7.64533 400.036 8.136C400.564 8.62133 400.828 9.28267 400.828 10.12V14.16ZM397.348 15.16C397.764 15.16 398.161 15.056 398.54 14.848C398.918 14.6347 399.23 14.3413 399.476 13.968V11.8H398.26C397.332 11.8 396.676 11.96 396.292 12.28C395.913 12.6 395.724 13.0293 395.724 13.568C395.724 14.0907 395.857 14.488 396.124 14.76C396.396 15.0267 396.804 15.16 397.348 15.16ZM408.653 7.576V14.936H411.029V16H404.709V14.936H407.309V8.64H404.789V7.576H408.653ZM407.581 3.632C407.88 3.632 408.117 3.72267 408.293 3.904C408.475 4.08533 408.565 4.30667 408.565 4.568C408.565 4.84 408.475 5.06933 408.293 5.256C408.117 5.43733 407.88 5.528 407.581 5.528C407.299 5.528 407.067 5.43733 406.885 5.256C406.704 5.06933 406.613 4.84 406.613 4.568C406.613 4.30667 406.704 4.08533 406.885 3.904C407.067 3.72267 407.299 3.632 407.581 3.632ZM417.263 4.184V13.92C417.263 14.336 417.391 14.632 417.647 14.808C417.908 14.9787 418.244 15.064 418.655 15.064C418.911 15.064 419.154 15.0373 419.383 14.984C419.612 14.9307 419.842 14.8587 420.071 14.768L420.431 15.752C420.202 15.864 419.916 15.9627 419.575 16.048C419.239 16.1387 418.858 16.184 418.431 16.184C417.684 16.184 417.079 15.9787 416.615 15.568C416.151 15.152 415.919 14.5787 415.919 13.848V5.248H413.335V4.184H417.263ZM429.609 14.16C429.609 14.496 429.665 14.7413 429.777 14.896C429.889 15.0507 430.062 15.1653 430.297 15.24L429.969 16.184C429.606 16.136 429.289 16.0213 429.017 15.84C428.745 15.6533 428.547 15.3733 428.425 15C428.121 15.3893 427.742 15.6853 427.289 15.888C426.835 16.0853 426.334 16.184 425.785 16.184C424.942 16.184 424.278 15.9467 423.793 15.472C423.307 14.9973 423.065 14.368 423.065 13.584C423.065 12.7147 423.403 12.048 424.081 11.584C424.758 11.12 425.737 10.888 427.017 10.888H428.257V10.184C428.257 9.576 428.078 9.14667 427.721 8.896C427.369 8.64 426.878 8.512 426.249 8.512C425.971 8.512 425.646 8.54667 425.273 8.616C424.899 8.68 424.494 8.78933 424.057 8.944L423.705 7.928C424.222 7.736 424.707 7.6 425.161 7.52C425.614 7.44 426.046 7.4 426.457 7.4C427.507 7.4 428.294 7.64533 428.817 8.136C429.345 8.62133 429.609 9.28267 429.609 10.12V14.16ZM426.129 15.16C426.545 15.16 426.942 15.056 427.321 14.848C427.699 14.6347 428.011 14.3413 428.257 13.968V11.8H427.041C426.113 11.8 425.457 11.96 425.073 12.28C424.694 12.6 424.505 13.0293 424.505 13.568C424.505 14.0907 424.638 14.488 424.905 14.76C425.177 15.0267 425.585 15.16 426.129 15.16ZM434.515 8.672C434.824 8.26667 435.179 7.95467 435.579 7.736C435.984 7.512 436.429 7.4 436.915 7.4C437.667 7.4 438.275 7.58133 438.739 7.944C439.203 8.30667 439.541 8.81867 439.755 9.48C439.968 10.136 440.075 10.904 440.075 11.784C440.075 12.632 439.947 13.3893 439.691 14.056C439.435 14.7173 439.059 15.2373 438.563 15.616C438.072 15.9947 437.464 16.184 436.739 16.184C435.763 16.184 434.997 15.832 434.443 15.128L434.347 16H433.171V4.184L434.515 4.016V8.672ZM436.419 15.096C437.123 15.096 437.664 14.824 438.043 14.28C438.421 13.736 438.611 12.9013 438.611 11.776C438.611 11.04 438.536 10.4293 438.387 9.944C438.237 9.45333 438.013 9.088 437.715 8.848C437.421 8.60267 437.059 8.48 436.627 8.48C436.157 8.48 435.744 8.62133 435.387 8.904C435.035 9.18133 434.744 9.49067 434.515 9.832V14.008C434.733 14.3387 435.008 14.6027 435.339 14.8C435.675 14.9973 436.035 15.096 436.419 15.096ZM446.044 4.184V13.92C446.044 14.336 446.172 14.632 446.428 14.808C446.69 14.9787 447.026 15.064 447.436 15.064C447.692 15.064 447.935 15.0373 448.164 14.984C448.394 14.9307 448.623 14.8587 448.852 14.768L449.212 15.752C448.983 15.864 448.698 15.9627 448.356 16.048C448.02 16.1387 447.639 16.184 447.212 16.184C446.466 16.184 445.86 15.9787 445.396 15.568C444.932 15.152 444.7 14.5787 444.7 13.848V5.248H442.116V4.184H446.044ZM453.414 12.264C453.441 12.9147 453.566 13.448 453.79 13.864C454.014 14.2747 454.31 14.5787 454.678 14.776C455.046 14.968 455.446 15.064 455.878 15.064C456.31 15.064 456.699 15 457.046 14.872C457.398 14.744 457.758 14.5547 458.126 14.304L458.758 15.192C458.363 15.5013 457.913 15.744 457.406 15.92C456.905 16.096 456.39 16.184 455.862 16.184C455.046 16.184 454.35 16 453.774 15.632C453.198 15.264 452.758 14.752 452.454 14.096C452.155 13.4347 452.006 12.6693 452.006 11.8C452.006 10.9467 452.158 10.1893 452.462 9.528C452.766 8.86667 453.193 8.34667 453.742 7.968C454.291 7.58933 454.939 7.4 455.686 7.4C456.395 7.4 457.006 7.568 457.518 7.904C458.03 8.23467 458.422 8.70933 458.694 9.328C458.971 9.94133 459.11 10.6747 459.11 11.528C459.11 11.672 459.107 11.808 459.102 11.936C459.097 12.0587 459.089 12.168 459.078 12.264H453.414ZM455.702 8.504C455.078 8.504 454.555 8.72533 454.134 9.168C453.718 9.61067 453.481 10.296 453.422 11.224H457.814C457.798 10.3227 457.601 9.64533 457.222 9.192C456.843 8.73333 456.337 8.504 455.702 8.504ZM477.786 16H475.882L474.794 9.816L473.61 16H471.754L470.218 7.576H471.594L472.666 15.168L474.01 8.648H475.602L476.874 15.168L477.946 7.576H479.258L477.786 16ZM485.403 7.576V14.936H487.779V16H481.459V14.936H484.059V8.64H481.539V7.576H485.403ZM484.331 3.632C484.63 3.632 484.867 3.72267 485.043 3.904C485.225 4.08533 485.315 4.30667 485.315 4.568C485.315 4.84 485.225 5.06933 485.043 5.256C484.867 5.43733 484.63 5.528 484.331 5.528C484.049 5.528 483.817 5.43733 483.635 5.256C483.454 5.06933 483.363 4.84 483.363 4.568C483.363 4.30667 483.454 4.08533 483.635 3.904C483.817 3.72267 484.049 3.632 484.331 3.632ZM495.773 4.016L497.117 4.184V16H495.941L495.813 14.888C495.498 15.336 495.136 15.664 494.725 15.872C494.32 16.08 493.885 16.184 493.421 16.184C492.69 16.184 492.088 16 491.613 15.632C491.138 15.264 490.786 14.752 490.557 14.096C490.328 13.4347 490.213 12.6693 490.213 11.8C490.213 10.9573 490.344 10.2053 490.605 9.544C490.866 8.87733 491.242 8.35467 491.733 7.976C492.229 7.592 492.824 7.4 493.517 7.4C494.002 7.4 494.429 7.48533 494.797 7.656C495.165 7.82133 495.49 8.06667 495.773 8.392V4.016ZM493.869 8.48C493.165 8.48 492.624 8.75467 492.245 9.304C491.866 9.85333 491.677 10.6853 491.677 11.8C491.677 12.5253 491.754 13.1333 491.909 13.624C492.064 14.1147 492.29 14.4827 492.589 14.728C492.893 14.9733 493.264 15.096 493.701 15.096C494.181 15.096 494.589 14.96 494.925 14.688C495.266 14.416 495.549 14.1093 495.773 13.768V9.56C495.544 9.21867 495.266 8.95467 494.941 8.768C494.616 8.576 494.258 8.48 493.869 8.48ZM507.015 15.576C506.727 15.768 506.377 15.9173 505.967 16.024C505.556 16.1307 505.153 16.184 504.759 16.184C503.852 16.184 503.153 15.9467 502.663 15.472C502.172 14.9973 501.927 14.3867 501.927 13.64V8.616H499.991V7.576H501.927V5.664L503.271 5.504V7.576H506.183L506.023 8.616H503.271V13.624C503.271 14.0933 503.393 14.4507 503.639 14.696C503.889 14.9413 504.303 15.064 504.879 15.064C505.193 15.064 505.484 15.0267 505.751 14.952C506.017 14.8773 506.265 14.7813 506.495 14.664L507.015 15.576ZM511.265 4.056V8.728C511.595 8.28533 512.001 7.95467 512.481 7.736C512.966 7.512 513.457 7.4 513.953 7.4C514.774 7.4 515.374 7.61867 515.753 8.056C516.131 8.49333 516.321 9.10133 516.321 9.88V16H514.977V9.912C514.977 9.40533 514.859 9.03733 514.625 8.808C514.39 8.57333 514.022 8.456 513.521 8.456C513.201 8.456 512.897 8.528 512.609 8.672C512.321 8.816 512.062 8.99467 511.833 9.208C511.603 9.42133 511.414 9.64 511.265 9.864V16H509.921V4.2L511.265 4.056Z" fill="var(--text-0)"/>
<path d="M145 68.5L155 74.2735V62.7265L145 68.5ZM745 68.5L735 62.7265V74.2735L745 68.5ZM154 69.5H736V67.5H154V69.5Z" fill="var(--text-0)"/>
<path d="M381.729 53.4626V52.2646H387.974V53.4626H381.729ZM374.058 53.4626V52.2646H380.302V53.4626H374.058ZM399.368 57.5651C399.073 57.7621 398.714 57.9152 398.293 58.0246C397.872 58.134 397.459 58.1887 397.054 58.1887C396.124 58.1887 395.408 57.9453 394.905 57.4585C394.401 56.9716 394.15 56.3453 394.15 55.5795V50.4267H392.164V49.36H394.15V47.399L395.528 47.2349V49.36H398.515L398.351 50.4267H395.528V55.5631C395.528 56.0444 395.654 56.4109 395.906 56.6626C396.163 56.9142 396.587 57.04 397.177 57.04C397.5 57.04 397.798 57.0017 398.072 56.9251C398.345 56.8485 398.6 56.7501 398.835 56.6297L399.368 57.5651ZM403.731 45.7497V50.5415C404.07 50.093 404.486 49.7538 404.978 49.5241C405.476 49.2944 405.979 49.1795 406.488 49.1795C407.33 49.1795 407.946 49.4038 408.334 49.8523C408.722 50.3009 408.916 50.9244 408.916 51.7231V58H407.538V51.7559C407.538 51.2362 407.418 50.8588 407.177 50.6236C406.936 50.3829 406.559 50.2626 406.045 50.2626C405.716 50.2626 405.405 50.3364 405.109 50.4841C404.814 50.6318 404.549 50.815 404.313 51.0338C404.078 51.2526 403.884 51.4769 403.731 51.7067V58H402.352V45.8974L403.731 45.7497ZM412.278 58V56.9415H413.624V50.4185H412.278V49.36H414.674L414.928 51.4031C415.262 50.692 415.667 50.1422 416.143 49.7538C416.619 49.3655 417.248 49.1713 418.03 49.1713C418.271 49.1713 418.484 49.1904 418.67 49.2287C418.861 49.2615 419.056 49.3053 419.253 49.36L419.056 52.281H417.923V50.4431C417.901 50.4431 417.877 50.4431 417.849 50.4431C416.526 50.4431 415.577 51.3894 415.002 53.2821V56.9415H416.758V58H412.278ZM423.123 54.1682C423.161 55.1692 423.424 55.8995 423.911 56.359C424.403 56.813 424.983 57.04 425.65 57.04C426.093 57.04 426.493 56.9744 426.848 56.8431C427.204 56.7118 427.573 56.5176 427.956 56.2605L428.604 57.1713C428.205 57.4885 427.745 57.7374 427.225 57.9179C426.706 58.0985 426.175 58.1887 425.634 58.1887C424.791 58.1887 424.075 58 423.484 57.6226C422.899 57.2451 422.45 56.72 422.138 56.0472C421.832 55.3689 421.679 54.5839 421.679 53.6923C421.679 52.8171 421.832 52.0403 422.138 51.3621C422.45 50.6838 422.888 50.1504 423.451 49.7621C424.02 49.3737 424.687 49.1795 425.453 49.1795C426.542 49.1795 427.398 49.5569 428.021 50.3118C428.65 51.0667 428.965 52.1005 428.965 53.4133C428.965 53.561 428.96 53.7005 428.949 53.8318C428.943 53.9631 428.938 54.0752 428.932 54.1682H423.123ZM425.47 50.3118C424.83 50.3118 424.294 50.5388 423.861 50.9928C423.429 51.4468 423.186 52.1497 423.131 53.1015H427.636C427.619 52.1771 427.417 51.4824 427.029 51.0174C426.64 50.547 426.121 50.3118 425.47 50.3118ZM434.821 57.0482C435.488 57.0482 436.014 56.9251 436.396 56.679C436.779 56.4328 436.971 56.0991 436.971 55.6779C436.971 55.4209 436.922 55.1966 436.823 55.0051C436.73 54.8137 436.536 54.6414 436.241 54.4882C435.945 54.3296 435.491 54.1737 434.878 54.0205C434.282 53.8728 433.763 53.7032 433.32 53.5118C432.882 53.3149 432.54 53.0605 432.294 52.7487C432.053 52.4369 431.933 52.0321 431.933 51.5344C431.933 50.8068 432.236 50.2325 432.844 49.8113C433.451 49.3901 434.241 49.1795 435.215 49.1795C435.91 49.1795 436.514 49.2725 437.028 49.4585C437.548 49.6444 437.988 49.8687 438.349 50.1313L437.742 51.0667C437.419 50.8424 437.058 50.6591 436.659 50.5169C436.265 50.3692 435.789 50.2954 435.231 50.2954C434.553 50.2954 434.072 50.4021 433.787 50.6154C433.503 50.8232 433.361 51.094 433.361 51.4277C433.361 51.6848 433.429 51.8981 433.566 52.0677C433.708 52.2318 433.946 52.3795 434.28 52.5108C434.613 52.6421 435.073 52.787 435.658 52.9456C436.221 53.0988 436.714 53.2793 437.135 53.4872C437.556 53.695 437.882 53.9685 438.111 54.3077C438.347 54.6414 438.464 55.0762 438.464 55.6123C438.464 56.225 438.289 56.7227 437.939 57.1056C437.589 57.4831 437.135 57.7593 436.577 57.9344C436.024 58.1039 435.439 58.1887 434.821 58.1887C434.039 58.1887 433.371 58.0766 432.819 57.8523C432.272 57.6226 431.812 57.3463 431.441 57.0236L432.228 56.1128C432.567 56.3918 432.956 56.6188 433.393 56.7938C433.836 56.9634 434.312 57.0482 434.821 57.0482ZM443.106 45.7497V50.5415C443.445 50.093 443.861 49.7538 444.353 49.5241C444.851 49.2944 445.354 49.1795 445.863 49.1795C446.705 49.1795 447.321 49.4038 447.709 49.8523C448.097 50.3009 448.291 50.9244 448.291 51.7231V58H446.913V51.7559C446.913 51.2362 446.793 50.8588 446.552 50.6236C446.311 50.3829 445.934 50.2626 445.42 50.2626C445.091 50.2626 444.78 50.3364 444.484 50.4841C444.189 50.6318 443.924 50.815 443.688 51.0338C443.453 51.2526 443.259 51.4769 443.106 51.7067V58H441.727V45.8974L443.106 45.7497ZM454.861 49.1795C456.081 49.1795 457.003 49.587 457.626 50.4021C458.25 51.2171 458.562 52.3084 458.562 53.6759C458.562 54.5566 458.42 55.3361 458.135 56.0144C457.851 56.6926 457.432 57.226 456.88 57.6144C456.327 57.9973 455.649 58.1887 454.845 58.1887C453.625 58.1887 452.701 57.7785 452.072 56.9579C451.443 56.1374 451.128 55.0489 451.128 53.6923C451.128 52.8062 451.27 52.0239 451.555 51.3456C451.839 50.6619 452.258 50.1313 452.81 49.7538C453.368 49.3709 454.052 49.1795 454.861 49.1795ZM454.861 50.3036C454.117 50.3036 453.554 50.5798 453.171 51.1323C452.794 51.6848 452.605 52.5381 452.605 53.6923C452.605 54.8356 452.791 55.6834 453.163 56.2359C453.54 56.7829 454.101 57.0564 454.845 57.0564C455.589 57.0564 456.147 56.7802 456.519 56.2277C456.896 55.6752 457.085 54.8246 457.085 53.6759C457.085 52.5272 456.899 51.6793 456.527 51.1323C456.155 50.5798 455.6 50.3036 454.861 50.3036ZM464.779 45.881V55.8667C464.779 56.2933 464.91 56.5969 465.173 56.7774C465.441 56.9525 465.785 57.04 466.207 57.04C466.464 57.04 466.71 57.0126 466.945 56.9579C467.186 56.9032 467.424 56.8294 467.659 56.7364L468.028 57.7456C467.793 57.8605 467.5 57.9617 467.15 58.0492C466.806 58.1422 466.415 58.1887 465.977 58.1887C465.211 58.1887 464.59 57.9781 464.114 57.5569C463.638 57.1303 463.4 56.5422 463.4 55.7928V46.9723H460.75V45.881H464.779ZM476.428 45.7087L477.806 45.881V58H476.6L476.469 56.8595C476.146 57.319 475.774 57.6554 475.353 57.8687C474.937 58.0821 474.491 58.1887 474.016 58.1887C473.266 58.1887 472.648 58 472.161 57.6226C471.674 57.2451 471.313 56.72 471.078 56.0472C470.843 55.3689 470.725 54.5839 470.725 53.6923C470.725 52.828 470.859 52.0568 471.127 51.3785C471.395 50.6947 471.781 50.1586 472.284 49.7703C472.793 49.3764 473.403 49.1795 474.114 49.1795C475.071 49.1795 475.843 49.5186 476.428 50.1969V45.7087ZM474.475 50.2872C473.753 50.2872 473.198 50.5689 472.809 51.1323C472.421 51.6957 472.227 52.5491 472.227 53.6923C472.227 55.946 472.919 57.0728 474.303 57.0728C474.79 57.0728 475.208 56.9361 475.558 56.6626C475.908 56.3836 476.198 56.0663 476.428 55.7108V51.3949C476.193 51.0448 475.908 50.774 475.575 50.5826C475.241 50.3856 474.874 50.2872 474.475 50.2872ZM481.086 53.4626V52.2646H487.666V53.4626H481.086ZM496.706 44.2892V45.3723C496.307 45.3723 495.943 45.4133 495.615 45.4954C495.292 45.572 495.04 45.706 494.86 45.8974C494.679 46.0889 494.606 46.3515 494.638 46.6851L494.983 50.0492C495.054 50.7385 494.956 51.2526 494.688 51.5918C494.425 51.9309 494.012 52.1525 493.449 52.2564C494.023 52.3603 494.441 52.5737 494.704 52.8964C494.967 53.2137 495.06 53.7361 494.983 54.4636L494.638 57.8277C494.606 58.1668 494.679 58.4321 494.86 58.6236C495.04 58.815 495.292 58.9491 495.615 59.0256C495.938 59.1022 496.301 59.1405 496.706 59.1405V60.2236C496.093 60.2236 495.519 60.1497 494.983 60.0021C494.447 59.8544 494.026 59.5945 493.719 59.2226C493.413 58.8561 493.298 58.3364 493.375 57.6636L493.703 54.5456C493.747 54.1737 493.711 53.8591 493.596 53.6021C493.487 53.3395 493.246 53.1426 492.874 53.0113C492.508 52.8745 491.958 52.8062 491.225 52.8062V51.7067C491.958 51.7067 492.508 51.641 492.874 51.5097C493.246 51.3785 493.487 51.1843 493.596 50.9272C493.711 50.6701 493.747 50.3556 493.703 49.9836L493.375 46.8492C493.304 46.1764 493.419 45.6568 493.719 45.2903C494.026 44.9183 494.447 44.6585 494.983 44.5108C495.519 44.3631 496.093 44.2892 496.706 44.2892ZM502.513 56.8267H507.321L507.141 58H500.823V56.9579L505.614 50.5579H501.2V49.36H507.272V50.4267L502.513 56.8267ZM511.421 44.2892C512.034 44.2892 512.608 44.3631 513.144 44.5108C513.68 44.6585 514.102 44.9183 514.408 45.2903C514.714 45.6568 514.829 46.1764 514.753 46.8492L514.424 49.9836C514.364 50.5415 514.509 50.9682 514.859 51.2636C515.209 51.559 515.89 51.7067 516.902 51.7067V52.8062C515.896 52.8062 515.215 52.9566 514.859 53.2574C514.509 53.5583 514.364 53.9877 514.424 54.5456L514.753 57.6636C514.824 58.3364 514.706 58.8561 514.4 59.2226C514.099 59.5945 513.68 59.8544 513.144 60.0021C512.608 60.1497 512.034 60.2236 511.421 60.2236V59.1405C511.821 59.1405 512.182 59.1022 512.504 59.0256C512.833 58.9491 513.087 58.815 513.267 58.6236C513.448 58.4321 513.522 58.1668 513.489 57.8277L513.144 54.4636C513.068 53.7361 513.166 53.2137 513.44 52.8964C513.719 52.5791 514.192 52.3713 514.859 52.2728C514.214 52.1634 513.749 51.9391 513.464 51.6C513.18 51.2554 513.073 50.7385 513.144 50.0492L513.489 46.6851C513.522 46.3515 513.448 46.0889 513.267 45.8974C513.087 45.706 512.835 45.572 512.513 45.4954C512.19 45.4133 511.826 45.3723 511.421 45.3723V44.2892Z" fill="var(--text-0)"/>
<path d="M403.16 222.4C403.432 222.4 403.691 222.459 403.936 222.576C404.187 222.693 404.392 222.92 404.552 223.256C404.712 223.592 404.792 224.083 404.792 224.728V231H403.544V224.944C403.544 224.416 403.512 224.035 403.448 223.8C403.384 223.565 403.2 223.448 402.896 223.448C402.645 223.448 402.395 223.528 402.144 223.688C401.899 223.843 401.659 224.099 401.424 224.456V231H400.168V224.944C400.168 224.416 400.136 224.035 400.072 223.8C400.008 223.565 399.824 223.448 399.52 223.448C399.259 223.448 399.005 223.528 398.76 223.688C398.52 223.843 398.283 224.099 398.048 224.456V231H396.808V222.576H397.864L397.944 223.552C398.173 223.227 398.429 222.955 398.712 222.736C399 222.512 399.355 222.4 399.776 222.4C400.096 222.4 400.397 222.477 400.68 222.632C400.963 222.781 401.171 223.075 401.304 223.512C401.533 223.181 401.792 222.915 402.08 222.712C402.368 222.504 402.728 222.4 403.16 222.4ZM414.21 222.576L411.25 231.056C411.052 231.627 410.802 232.149 410.498 232.624C410.199 233.099 409.807 233.491 409.322 233.8C408.842 234.115 408.231 234.309 407.49 234.384L407.282 233.312C407.863 233.216 408.322 233.069 408.658 232.872C408.994 232.675 409.258 232.421 409.45 232.112C409.647 231.803 409.82 231.432 409.97 231H409.522L406.578 222.576H408.018L410.434 229.976L412.818 222.576H414.21ZM427.445 227.264C427.472 227.915 427.597 228.448 427.821 228.864C428.045 229.275 428.341 229.579 428.709 229.776C429.077 229.968 429.477 230.064 429.909 230.064C430.341 230.064 430.731 230 431.077 229.872C431.429 229.744 431.789 229.555 432.157 229.304L432.789 230.192C432.395 230.501 431.944 230.744 431.437 230.92C430.936 231.096 430.421 231.184 429.893 231.184C429.077 231.184 428.381 231 427.805 230.632C427.229 230.264 426.789 229.752 426.485 229.096C426.187 228.435 426.037 227.669 426.037 226.8C426.037 225.947 426.189 225.189 426.493 224.528C426.797 223.867 427.224 223.347 427.773 222.968C428.323 222.589 428.971 222.4 429.717 222.4C430.427 222.4 431.037 222.568 431.549 222.904C432.061 223.235 432.453 223.709 432.725 224.328C433.003 224.941 433.141 225.675 433.141 226.528C433.141 226.672 433.139 226.808 433.133 226.936C433.128 227.059 433.12 227.168 433.109 227.264H427.445ZM429.733 223.504C429.109 223.504 428.587 223.725 428.165 224.168C427.749 224.611 427.512 225.296 427.453 226.224H431.845C431.829 225.323 431.632 224.645 431.253 224.192C430.875 223.733 430.368 223.504 429.733 223.504ZM439.263 219.184V228.92C439.263 229.336 439.391 229.632 439.647 229.808C439.908 229.979 440.244 230.064 440.655 230.064C440.911 230.064 441.154 230.037 441.383 229.984C441.612 229.931 441.842 229.859 442.071 229.768L442.431 230.752C442.202 230.864 441.916 230.963 441.575 231.048C441.239 231.139 440.858 231.184 440.431 231.184C439.684 231.184 439.079 230.979 438.615 230.568C438.151 230.152 437.919 229.579 437.919 228.848V220.248H435.335V219.184H439.263ZM446.633 227.264C446.659 227.915 446.785 228.448 447.009 228.864C447.233 229.275 447.529 229.579 447.897 229.776C448.265 229.968 448.665 230.064 449.097 230.064C449.529 230.064 449.918 230 450.265 229.872C450.617 229.744 450.977 229.555 451.345 229.304L451.977 230.192C451.582 230.501 451.131 230.744 450.625 230.92C450.123 231.096 449.609 231.184 449.081 231.184C448.265 231.184 447.569 231 446.993 230.632C446.417 230.264 445.977 229.752 445.673 229.096C445.374 228.435 445.225 227.669 445.225 226.8C445.225 225.947 445.377 225.189 445.681 224.528C445.985 223.867 446.411 223.347 446.961 222.968C447.51 222.589 448.158 222.4 448.905 222.4C449.614 222.4 450.225 222.568 450.737 222.904C451.249 223.235 451.641 223.709 451.913 224.328C452.19 224.941 452.329 225.675 452.329 226.528C452.329 226.672 452.326 226.808 452.321 226.936C452.315 227.059 452.307 227.168 452.297 227.264H446.633ZM448.921 223.504C448.297 223.504 447.774 223.725 447.353 224.168C446.937 224.611 446.699 225.296 446.641 226.224H451.033C451.017 225.323 450.819 224.645 450.441 224.192C450.062 223.733 449.555 223.504 448.921 223.504ZM460.723 222.4C460.995 222.4 461.253 222.459 461.499 222.576C461.749 222.693 461.955 222.92 462.115 223.256C462.275 223.592 462.355 224.083 462.355 224.728V231H461.107V224.944C461.107 224.416 461.075 224.035 461.011 223.8C460.947 223.565 460.763 223.448 460.459 223.448C460.208 223.448 459.957 223.528 459.707 223.688C459.461 223.843 459.221 224.099 458.987 224.456V231H457.731V224.944C457.731 224.416 457.699 224.035 457.635 223.8C457.571 223.565 457.387 223.448 457.083 223.448C456.821 223.448 456.568 223.528 456.323 223.688C456.083 223.843 455.845 224.099 455.611 224.456V231H454.371V222.576H455.427L455.507 223.552C455.736 223.227 455.992 222.955 456.275 222.736C456.563 222.512 456.917 222.4 457.339 222.4C457.659 222.4 457.96 222.477 458.243 222.632C458.525 222.781 458.733 223.075 458.867 223.512C459.096 223.181 459.355 222.915 459.643 222.712C459.931 222.504 460.291 222.4 460.723 222.4ZM465.82 227.264C465.847 227.915 465.972 228.448 466.196 228.864C466.42 229.275 466.716 229.579 467.084 229.776C467.452 229.968 467.852 230.064 468.284 230.064C468.716 230.064 469.106 230 469.452 229.872C469.804 229.744 470.164 229.555 470.532 229.304L471.164 230.192C470.77 230.501 470.319 230.744 469.812 230.92C469.311 231.096 468.796 231.184 468.268 231.184C467.452 231.184 466.756 231 466.18 230.632C465.604 230.264 465.164 229.752 464.86 229.096C464.562 228.435 464.412 227.669 464.412 226.8C464.412 225.947 464.564 225.189 464.868 224.528C465.172 223.867 465.599 223.347 466.148 222.968C466.698 222.589 467.346 222.4 468.092 222.4C468.802 222.4 469.412 222.568 469.924 222.904C470.436 223.235 470.828 223.709 471.1 224.328C471.378 224.941 471.516 225.675 471.516 226.528C471.516 226.672 471.514 226.808 471.508 226.936C471.503 227.059 471.495 227.168 471.484 227.264H465.82ZM468.108 223.504C467.484 223.504 466.962 223.725 466.54 224.168C466.124 224.611 465.887 225.296 465.828 226.224H470.22C470.204 225.323 470.007 224.645 469.628 224.192C469.25 223.733 468.743 223.504 468.108 223.504ZM474.358 231V222.576H475.502L475.606 223.744C475.947 223.312 476.374 222.981 476.886 222.752C477.403 222.517 477.905 222.4 478.39 222.4C479.217 222.4 479.817 222.619 480.19 223.056C480.569 223.493 480.758 224.101 480.758 224.88V231H479.414V225.872C479.414 225.296 479.382 224.832 479.318 224.48C479.254 224.123 479.121 223.864 478.918 223.704C478.715 223.539 478.401 223.456 477.974 223.456C477.643 223.456 477.331 223.528 477.038 223.672C476.75 223.816 476.491 223.997 476.262 224.216C476.038 224.429 475.851 224.645 475.702 224.864V231H474.358ZM490.64 230.576C490.352 230.768 490.002 230.917 489.592 231.024C489.181 231.131 488.778 231.184 488.384 231.184C487.477 231.184 486.778 230.947 486.288 230.472C485.797 229.997 485.552 229.387 485.552 228.64V223.616H483.616V222.576H485.552V220.664L486.896 220.504V222.576H489.808L489.648 223.616H486.896V228.624C486.896 229.093 487.018 229.451 487.264 229.696C487.514 229.941 487.928 230.064 488.504 230.064C488.818 230.064 489.109 230.027 489.376 229.952C489.642 229.877 489.89 229.781 490.12 229.664L490.64 230.576Z" fill="#F8F9FA"/>
</svg>
