<svg height="2em" aria-label="feo.css" viewBox="0 0 248 121" fill="none" xmlns="http://www.w3.org/2000/svg">
<path d="M37.4637 63.7466C39.2557 63.7466 40.2689 65.0855 40.5031 67.7632C40.9438 72.8 37.1961 75.3184 29.2601 75.3184C27.7241 75.3184 25.491 75.0315 22.5608 74.4577C23.7387 78.4106 24.7955 82.8098 25.7315 87.6553C26.7258 92.437 27.3596 96.3899 27.633 99.514C28.2354 106.4 27.5756 111.66 25.6535 115.294C23.7315 118.928 20.9464 120.745 17.2984 120.745C12.6904 120.745 9.10995 117.493 6.557 110.99C4.06805 104.487 2.24904 94.6685 1.09998 81.5346C0.0290099 69.2934 0.256095 56.8928 1.78124 44.3327C3.3648 31.709 6.1008 21.2848 9.98924 13.0602C13.9361 4.77186 18.6935 0.627686 24.2615 0.627686C27.2695 0.627686 29.7227 1.96657 31.621 4.64434C33.5832 7.32211 34.7624 10.9244 35.1584 15.4511C36.4692 30.4338 28.9052 46.7555 12.4663 64.416C12.3729 70.6642 12.5326 76.1472 12.9454 80.8652C13.5199 87.4321 14.3324 94.1584 15.3828 101.044C16.4388 107.994 17.4788 111.468 18.5028 111.468C20.4228 111.468 21.0928 108.153 20.5127 101.522C20.0776 96.5493 19.3045 91.7357 18.1933 87.0815C17.1461 82.4272 15.8206 77.518 14.2168 72.3537C14.0802 71.5249 14.2442 70.4729 14.7086 69.1978C15.2371 67.9226 15.9075 66.8069 16.7198 65.8505C17.5321 64.8942 18.2903 64.416 18.9943 64.416C20.2743 64.416 21.8159 64.4798 23.619 64.6073C24.2006 64.6711 24.8754 64.7029 25.6434 64.7029C28.2034 64.7029 31.0319 64.4798 34.1288 64.0335C34.6353 63.9697 35.1737 63.906 35.7441 63.8422C36.3145 63.7785 36.8877 63.7466 37.4637 63.7466ZM23.0739 10.0955C21.9219 10.0955 20.652 12.0401 19.2643 15.9292C17.9405 19.8184 16.7283 24.9827 15.6277 31.4221C14.5215 37.7977 13.6728 44.5559 13.0815 51.6966C17.6939 45.8948 21.1028 39.8698 23.3081 33.6217C25.5079 27.3098 26.4 21.4123 25.9843 15.9292C25.644 12.0401 24.6739 10.0955 23.0739 10.0955Z" fill="var(--text-0)"/>
<path d="M76.2026 69.1978C77.0346 69.1978 77.7081 69.5803 78.223 70.3454C78.802 71.1105 79.15 72.1624 79.2672 73.5013C79.4903 76.0516 79.0552 78.028 77.9619 79.4307C75.8449 82.2997 72.7164 84.9456 68.5764 87.3684C64.5003 89.7911 59.9983 91.0025 55.0703 91.0025C48.3503 91.0025 42.9753 89.1854 38.9454 85.5513C34.9154 81.9172 32.6244 76.9442 32.0721 70.6323C31.6873 66.2331 32.2583 62.1527 33.7852 58.391C35.3065 54.5657 37.6015 51.5372 40.6703 49.3057C43.8031 47.0743 47.4495 45.9585 51.6095 45.9585C55.3215 45.9585 58.3951 47.0743 60.8303 49.3057C63.26 51.4735 64.6393 54.4381 64.9684 58.1998C65.3533 62.599 64.0852 66.3925 61.1641 69.5803C58.3014 72.7044 53.175 75.1909 45.7847 77.0398C47.6413 79.9726 50.8096 81.439 55.2896 81.439C58.1696 81.439 61.3472 80.4508 64.8222 78.4743C68.3557 76.4341 71.3243 73.7882 73.7278 70.5367C74.4177 69.6441 75.2426 69.1978 76.2026 69.1978ZM50.7974 55.3307C48.4294 55.3307 46.5334 56.7015 45.1092 59.443C43.7491 62.1846 43.2391 65.4999 43.5794 69.389L43.5961 69.5803C47.294 68.6877 50.1529 67.3488 52.1727 65.5636C54.1925 63.7785 55.0992 61.7064 54.8928 59.3474C54.7869 58.136 54.3512 57.1797 53.5858 56.4784C52.8789 55.7133 51.9494 55.3307 50.7974 55.3307Z" fill="var(--text-0)"/>
<path d="M89.2058 91.0025C85.4298 91.0025 82.1169 90.078 79.2672 88.2291C76.4758 86.3164 74.2743 83.8299 72.6625 80.7696C71.0508 77.7093 70.0915 74.4258 69.7847 70.9192C69.3608 66.0737 69.8803 61.7701 71.3432 58.0085C72.8645 54.1831 75.1012 51.2184 78.0531 49.1145C80.9994 46.9468 84.4246 45.8629 88.3286 45.8629C92.1046 45.8629 95.4203 46.8192 98.2756 48.7319C101.125 50.5809 103.356 53.0355 104.968 56.0958C106.58 59.1561 107.539 62.4396 107.846 65.9462C108.27 70.7917 107.721 75.1271 106.2 78.9525C104.673 82.7141 102.404 85.6788 99.3937 87.8465C96.4418 89.9505 93.0458 91.0025 89.2058 91.0025ZM89.3582 80.6739C91.5342 80.6739 93.255 79.4944 94.5206 77.1354C95.8502 74.7765 96.317 71.3336 95.921 66.8069C95.6142 63.3003 94.7427 60.6544 93.3065 58.8692C91.8703 57.084 90.2562 56.1914 88.4642 56.1914C86.1602 56.1914 84.3434 57.3709 83.0138 59.7299C81.7426 62.0252 81.3078 65.468 81.7094 70.0585C82.0274 73.6926 82.9017 76.3704 84.3323 78.0918C85.7629 79.8132 87.4382 80.6739 89.3582 80.6739Z" fill="var(--text-0)"/>
<path d="M123.106 91.0025C120.29 91.0025 118.079 90.2374 116.473 88.7072C114.931 87.1771 114.051 85.1688 113.834 82.6823C113.583 79.8132 114.182 77.518 115.631 75.7966C117.145 74.0751 119.374 73.2144 122.318 73.2144C125.134 73.2144 127.307 73.9157 128.838 75.3184C130.427 76.6573 131.338 78.6656 131.573 81.3434C131.829 84.2762 131.204 86.6352 129.696 88.4203C128.183 90.1418 125.986 91.0025 123.106 91.0025Z" fill="var(--text-0)"/>
<path d="M157.599 91.0025C151.327 91.0025 146.278 89.2492 142.451 85.7426C138.683 82.1722 136.545 77.4861 136.037 71.6843C135.585 66.52 136.213 61.9933 137.921 58.1041C139.629 54.215 142.022 51.2184 145.102 49.1145C148.182 47.0105 151.514 45.9585 155.098 45.9585C158.618 45.9585 161.43 47.0105 163.534 49.1145C165.697 51.1547 166.92 53.8006 167.205 57.0522C167.439 59.7299 167.029 61.9933 165.975 63.8422C164.985 65.6912 163.529 66.6156 161.609 66.6156C160.393 66.6156 159.376 66.3287 158.558 65.7549C157.804 65.1811 157.382 64.3842 157.293 63.364C157.254 62.9178 157.273 62.4077 157.351 61.8339C157.429 61.2601 157.489 60.8457 157.53 60.5906C157.767 59.6343 157.849 58.7417 157.776 57.9129C157.704 57.084 157.424 56.4465 156.937 56.0002C156.514 55.5539 155.918 55.3307 155.15 55.3307C153.678 55.3307 152.361 56.0002 151.198 57.3391C150.029 58.6142 149.159 60.3675 148.586 62.599C148.013 64.8304 147.844 67.2851 148.078 69.9628C148.725 77.3586 152.281 81.0565 158.745 81.0565C161.369 81.0565 164.11 80.1958 166.967 78.4743C169.883 76.6892 172.659 74.0433 175.297 70.5367C175.986 69.6441 176.811 69.1978 177.771 69.1978C178.603 69.1978 179.277 69.5803 179.792 70.3454C180.371 71.1105 180.719 72.1624 180.836 73.5013C181.048 75.9241 180.613 77.9005 179.531 79.4307C176.846 83.1286 173.481 85.9976 169.436 88.0378C165.449 90.0143 161.503 91.0025 157.599 91.0025Z" fill="var(--text-0)"/>
<path d="M192.647 93.1064C189.319 93.1064 186.692 92.3414 184.766 90.8112C182.904 89.281 181.89 87.5596 181.722 85.6469C181.577 83.9893 182.06 82.5547 183.17 81.3434C184.28 80.132 186.019 79.5263 188.387 79.5263C189.219 79.5263 190.187 79.6219 191.292 79.8132C192.455 79.9407 193.327 80.0364 193.909 80.1001C193.7 78.4425 193.179 76.8804 192.347 75.414C191.579 73.9476 190.624 72.545 189.483 71.2061C188.336 69.8035 187.27 68.5921 186.285 67.572C184.63 71.3336 182.919 74.4577 181.153 76.9442C179.45 79.4307 177.545 81.7897 175.436 84.0211C174.384 85.1688 173.219 85.7426 171.939 85.7426C170.915 85.7426 170.052 85.3919 169.351 84.6906C168.644 83.9255 168.243 83.001 168.148 81.9172C168.036 80.6421 168.381 79.4626 169.182 78.3787L170.296 76.8485C173.437 72.5131 175.781 68.9427 177.327 66.1375C178.254 64.2885 179.319 61.8339 180.523 58.7736C181.722 55.6495 182.88 52.4298 183.998 49.1145C184.969 46.3092 187.374 44.9066 191.214 44.9066C193.006 44.9066 194.268 45.0659 195 45.3847C195.732 45.7035 196.128 46.2136 196.19 46.9149C196.223 47.2974 196.148 47.9031 195.965 48.7319C195.781 49.5608 195.502 50.3896 195.126 51.2184C194.175 53.5137 193.769 55.4582 193.909 57.0522C193.992 58.0085 194.404 59.0605 195.145 60.2081C195.949 61.3557 197.131 62.7902 198.689 64.5117C200.971 67.1894 202.708 69.4847 203.9 71.3974C205.149 73.2463 205.872 75.2865 206.067 77.518C206.123 78.1555 206.137 79.0481 206.109 80.1958C209.139 78.9844 212.538 75.7647 216.304 70.5367C216.994 69.6441 217.819 69.1978 218.779 69.1978C219.611 69.1978 220.285 69.5803 220.8 70.3454C221.378 71.1105 221.727 72.1624 221.844 73.5013C222.056 75.9241 221.621 77.9005 220.538 79.4307C217.684 83.3836 214.849 86.0932 212.034 87.5596C209.276 88.9623 205.759 89.7273 201.482 89.8549C199.112 92.0226 196.167 93.1064 192.647 93.1064Z" fill="var(--text-0)"/>
<path d="M233.616 93.1064C230.288 93.1064 227.661 92.3414 225.735 90.8112C223.873 89.281 222.858 87.5596 222.691 85.6469C222.546 83.9893 223.028 82.5547 224.139 81.3434C225.249 80.132 226.988 79.5263 229.356 79.5263C230.188 79.5263 231.156 79.6219 232.261 79.8132C233.424 79.9407 234.296 80.0364 234.878 80.1001C234.669 78.4425 234.148 76.8804 233.316 75.414C232.547 73.9476 231.593 72.545 230.452 71.2061C229.305 69.8035 228.239 68.5921 227.254 67.572C225.599 71.3336 223.888 74.4577 222.122 76.9442C220.419 79.4307 218.514 81.7897 216.405 84.0211C215.353 85.1688 214.187 85.7426 212.907 85.7426C211.883 85.7426 211.021 85.3919 210.319 84.6906C209.612 83.9255 209.212 83.001 209.117 81.9172C209.005 80.6421 209.35 79.4626 210.151 78.3787L211.265 76.8485C214.406 72.5131 216.75 68.9427 218.296 66.1375C219.286 64.2885 220.246 62.0889 221.175 59.5387C222.168 56.9884 223.432 53.5137 224.967 49.1145C225.937 46.3092 228.343 44.9066 232.183 44.9066C233.975 44.9066 235.237 45.0659 235.969 45.3847C236.7 45.7035 237.097 46.2136 237.158 46.9149C237.192 47.2974 237.117 47.9031 236.933 48.7319C236.75 49.5608 236.47 50.3896 236.095 51.2184C235.144 53.5137 234.738 55.4582 234.877 57.0522C234.961 58.0085 235.373 59.0605 236.113 60.2081C236.918 61.3557 238.099 62.7902 239.658 64.5117C241.94 67.1894 243.677 69.4847 244.868 71.3974C246.118 73.2463 246.841 75.2865 247.036 77.518C247.27 80.1958 246.853 82.746 245.785 85.1688C244.776 87.5278 243.215 89.4404 241.103 90.9068C238.991 92.3732 236.496 93.1064 233.616 93.1064Z" fill="var(--text-0)"/>
</svg>
