<svg viewBox="0 0 1076 382" fill="none" xmlns="http://www.w3.org/2000/svg">
<rect x="1" y="77" width="192" height="248" rx="15" fill="var(--token-neutral-2)" stroke="var(--text-0)" stroke-width="2"/>
<rect x="828" y="77" width="247" height="52" rx="15" fill="var(--token-neutral-2)" stroke="var(--text-0)" stroke-width="2"/>
<rect x="828" y="146" width="247" height="177" rx="15" fill="var(--token-neutral-2)" stroke="var(--text-0)" stroke-width="2"/>
<rect x="211" y="77" width="388" height="248" rx="15" fill="var(--token-neutral-2)" stroke="var(--text-0)" stroke-width="2"/>
<path d="M64.4686 191.179C64.7421 191.179 65.0074 191.24 65.2645 191.36C65.5216 191.48 65.7322 191.713 65.8963 192.057C66.0604 192.402 66.1424 192.905 66.1424 193.567V200H64.8624V193.789C64.8624 193.247 64.8296 192.856 64.764 192.615C64.6983 192.375 64.5096 192.254 64.1978 192.254C63.9407 192.254 63.6836 192.336 63.4265 192.501C63.1694 192.659 62.9233 192.922 62.6881 193.288V200H61.3999V193.789C61.3999 193.247 61.3671 192.856 61.3014 192.615C61.2358 192.375 61.0471 192.254 60.7353 192.254C60.4672 192.254 60.2074 192.336 59.9558 192.501C59.7041 192.659 59.4607 192.922 59.2255 193.288V200H57.9537V191.36H59.0368L59.1188 192.361C59.3541 192.027 59.6166 191.748 59.9065 191.524C60.2019 191.294 60.5657 191.179 60.9978 191.179C61.326 191.179 61.6351 191.259 61.925 191.417C62.2149 191.571 62.4282 191.871 62.565 192.32C62.8002 191.981 63.0655 191.707 63.3609 191.499C63.6563 191.286 64.0255 191.179 64.4686 191.179ZM75.8057 191.36L72.7698 200.057C72.5674 200.643 72.3103 201.179 71.9985 201.666C71.6922 202.152 71.2901 202.555 70.7923 202.872C70.3 203.195 69.6737 203.394 68.9134 203.471L68.7 202.371C69.2963 202.273 69.7667 202.122 70.1113 201.92C70.4559 201.718 70.7267 201.458 70.9236 201.141C71.126 200.829 71.3038 200.449 71.457 200H70.9975L67.978 191.36H69.4549L71.9329 198.95L74.378 191.36H75.8057ZM93.4091 187.709C93.874 187.709 94.2952 187.75 94.6727 187.832C95.0501 187.914 95.4084 188.029 95.7475 188.176L95.3045 189.202C95.0255 189.082 94.7274 188.991 94.4101 188.931C94.0983 188.871 93.7783 188.841 93.4501 188.841C92.2412 188.841 91.6368 189.32 91.6368 190.277V192.033H94.566L94.4183 193.116H91.6368V200H90.2583V193.116H88.1988V192.033H90.2583V190.31C90.2583 189.774 90.3951 189.311 90.6686 188.923C90.9475 188.535 91.325 188.237 91.8009 188.029C92.2768 187.815 92.8128 187.709 93.4091 187.709ZM101.423 187.914C101.729 187.914 101.973 188.007 102.153 188.193C102.339 188.379 102.432 188.606 102.432 188.874C102.432 189.153 102.339 189.388 102.153 189.579C101.973 189.765 101.729 189.858 101.423 189.858C101.133 189.858 100.895 189.765 100.709 189.579C100.523 189.388 100.43 189.153 100.43 188.874C100.43 188.606 100.523 188.379 100.709 188.193C100.895 188.007 101.133 187.914 101.423 187.914ZM102.523 192.033V198.909H104.959V200H98.4774V198.909H101.144V193.116H98.5595V192.033H102.523ZM108.83 200H107.255L110.446 195.438L107.648 191.36H109.281L111.283 194.576L113.31 191.36H114.885L112.096 195.381L115.279 200H113.589L111.226 196.291L108.83 200ZM118.92 196.168C118.958 197.169 119.221 197.899 119.707 198.359C120.2 198.813 120.78 199.04 121.447 199.04C121.89 199.04 122.289 198.974 122.645 198.843C123 198.712 123.37 198.518 123.753 198.261L124.401 199.171C124.002 199.489 123.542 199.737 123.022 199.918C122.503 200.098 121.972 200.189 121.431 200.189C120.588 200.189 119.872 200 119.281 199.623C118.696 199.245 118.247 198.72 117.935 198.047C117.629 197.369 117.476 196.584 117.476 195.692C117.476 194.817 117.629 194.04 117.935 193.362C118.247 192.684 118.685 192.15 119.248 191.762C119.817 191.374 120.484 191.179 121.25 191.179C122.339 191.179 123.195 191.557 123.818 192.312C124.447 193.067 124.762 194.101 124.762 195.413C124.762 195.561 124.756 195.701 124.745 195.832C124.74 195.963 124.735 196.075 124.729 196.168H118.92ZM121.266 192.312C120.626 192.312 120.09 192.539 119.658 192.993C119.226 193.447 118.983 194.15 118.928 195.102H123.433C123.416 194.177 123.214 193.482 122.825 193.017C122.437 192.547 121.917 192.312 121.266 192.312ZM132.85 187.709L134.228 187.881V200H133.022L132.891 198.859C132.568 199.319 132.196 199.655 131.775 199.869C131.359 200.082 130.913 200.189 130.437 200.189C129.688 200.189 129.07 200 128.583 199.623C128.096 199.245 127.735 198.72 127.5 198.047C127.265 197.369 127.147 196.584 127.147 195.692C127.147 194.828 127.281 194.057 127.549 193.378C127.817 192.695 128.203 192.159 128.706 191.77C129.215 191.376 129.825 191.179 130.536 191.179C131.493 191.179 132.264 191.519 132.85 192.197V187.709ZM130.897 192.287C130.175 192.287 129.62 192.569 129.231 193.132C128.843 193.696 128.649 194.549 128.649 195.692C128.649 197.946 129.341 199.073 130.725 199.073C131.211 199.073 131.63 198.936 131.98 198.663C132.33 198.384 132.62 198.066 132.85 197.711V193.395C132.614 193.045 132.33 192.774 131.996 192.583C131.663 192.386 131.296 192.287 130.897 192.287ZM66.6335 219.048C67.3009 219.048 67.826 218.925 68.2089 218.679C68.5918 218.433 68.7833 218.099 68.7833 217.678C68.7833 217.421 68.7341 217.197 68.6356 217.005C68.5426 216.814 68.3484 216.641 68.053 216.488C67.7576 216.33 67.3036 216.174 66.691 216.021C66.0947 215.873 65.5751 215.703 65.132 215.512C64.6944 215.315 64.3525 215.061 64.1064 214.749C63.8657 214.437 63.7453 214.032 63.7453 213.534C63.7453 212.807 64.0489 212.232 64.6561 211.811C65.2633 211.39 66.0537 211.179 67.0274 211.179C67.7221 211.179 68.3265 211.272 68.8407 211.458C69.3604 211.644 69.8007 211.869 70.1617 212.131L69.5546 213.067C69.2318 212.842 68.8708 212.659 68.4715 212.517C68.0776 212.369 67.6017 212.295 67.0438 212.295C66.3655 212.295 65.8841 212.402 65.5997 212.615C65.3153 212.823 65.173 213.094 65.173 213.428C65.173 213.685 65.2414 213.898 65.3782 214.068C65.5204 214.232 65.7583 214.379 66.092 214.511C66.4257 214.642 66.8852 214.787 67.4705 214.946C68.0339 215.099 68.5262 215.279 68.9474 215.487C69.3686 215.695 69.6941 215.969 69.9238 216.308C70.159 216.641 70.2766 217.076 70.2766 217.612C70.2766 218.225 70.1016 218.723 69.7515 219.106C69.4014 219.483 68.9474 219.759 68.3894 219.934C67.837 220.104 67.2517 220.189 66.6335 220.189C65.8513 220.189 65.184 220.077 64.6315 219.852C64.0845 219.623 63.625 219.346 63.253 219.024L64.0407 218.113C64.3799 218.392 64.7682 218.619 65.2058 218.794C65.6489 218.963 66.1248 219.048 66.6335 219.048ZM76.8137 207.315C77.12 207.315 77.3634 207.408 77.544 207.594C77.7299 207.78 77.8229 208.007 77.8229 208.275C77.8229 208.554 77.7299 208.789 77.544 208.981C77.3634 209.166 77.12 209.259 76.8137 209.259C76.5238 209.259 76.2858 209.166 76.0999 208.981C75.9139 208.789 75.8209 208.554 75.8209 208.275C75.8209 208.007 75.9139 207.78 76.0999 207.594C76.2858 207.408 76.5238 207.315 76.8137 207.315ZM77.9132 211.36V218.909H80.3501V220H73.8681V218.909H76.5347V212.451H73.9501V211.36H77.9132ZM88.5528 207.709L89.9313 207.881V220H88.7251L88.5939 218.859C88.2711 219.319 87.8992 219.655 87.478 219.869C87.0622 220.082 86.6164 220.189 86.1405 220.189C85.3911 220.189 84.773 220 84.2862 219.623C83.7993 219.245 83.4383 218.72 83.2031 218.047C82.9679 217.369 82.8503 216.584 82.8503 215.692C82.8503 214.828 82.9843 214.057 83.2523 213.378C83.5204 212.695 83.906 212.159 84.4092 211.77C84.918 211.376 85.5279 211.179 86.239 211.179C87.1963 211.179 87.9675 211.519 88.5528 212.197V207.709ZM86.6 212.287C85.878 212.287 85.3228 212.569 84.9344 213.132C84.546 213.696 84.3518 214.549 84.3518 215.692C84.3518 217.946 85.0438 219.073 86.4277 219.073C86.9145 219.073 87.333 218.936 87.6831 218.663C88.0332 218.384 88.3231 218.066 88.5528 217.711V213.395C88.3176 213.045 88.0332 212.774 87.6995 212.583C87.3658 212.386 86.9993 212.287 86.6 212.287ZM94.3104 216.168C94.3487 217.169 94.6113 217.899 95.0981 218.359C95.5904 218.813 96.1703 219.04 96.8376 219.04C97.2807 219.04 97.68 218.974 98.0356 218.843C98.3911 218.712 98.7603 218.518 99.1433 218.261L99.7915 219.171C99.3921 219.489 98.9327 219.737 98.413 219.918C97.8933 220.098 97.3627 220.189 96.8212 220.189C95.9788 220.189 95.2622 220 94.6715 219.623C94.0862 219.245 93.6376 218.72 93.3258 218.047C93.0195 217.369 92.8663 216.584 92.8663 215.692C92.8663 214.817 93.0195 214.04 93.3258 213.362C93.6376 212.684 94.0752 212.15 94.6386 211.762C95.2075 211.374 95.8749 211.179 96.6407 211.179C97.7292 211.179 98.5853 211.557 99.2089 212.312C99.838 213.067 100.152 214.101 100.152 215.413C100.152 215.561 100.147 215.701 100.136 215.832C100.131 215.963 100.125 216.075 100.12 216.168H94.3104ZM96.6571 212.312C96.0171 212.312 95.481 212.539 95.0489 212.993C94.6168 213.447 94.3733 214.15 94.3186 215.102H98.8233C98.8068 214.177 98.6044 213.482 98.2161 213.017C97.8277 212.547 97.308 212.312 96.6571 212.312ZM104.45 212.484C104.761 212.068 105.125 211.748 105.541 211.524C105.962 211.294 106.419 211.179 106.911 211.179C107.682 211.179 108.306 211.365 108.782 211.737C109.258 212.109 109.605 212.635 109.824 213.313C110.043 213.986 110.152 214.773 110.152 215.676C110.152 216.546 110.021 217.322 109.758 218.006C109.501 218.684 109.118 219.218 108.61 219.606C108.101 219.995 107.475 220.189 106.731 220.189C105.73 220.189 104.945 219.828 104.376 219.106L104.277 220H103.071V207.881L104.45 207.709V212.484ZM106.402 219.073C107.124 219.073 107.68 218.794 108.068 218.236C108.456 217.678 108.651 216.822 108.651 215.668C108.651 213.414 107.972 212.287 106.616 212.287C106.134 212.287 105.71 212.432 105.344 212.722C104.977 213.006 104.679 213.324 104.45 213.674V217.957C104.674 218.302 104.956 218.575 105.295 218.777C105.639 218.974 106.009 219.073 106.402 219.073ZM119.102 218.113C119.102 218.463 119.159 218.717 119.274 218.876C119.389 219.035 119.566 219.149 119.807 219.221L119.471 220.189C119.099 220.139 118.773 220.022 118.494 219.836C118.215 219.644 118.013 219.357 117.887 218.974C117.575 219.374 117.184 219.677 116.714 219.885C116.249 220.088 115.737 220.189 115.179 220.189C114.315 220.189 113.634 219.945 113.136 219.458C112.639 218.972 112.39 218.326 112.39 217.522C112.39 216.63 112.737 215.947 113.432 215.471C114.126 214.995 115.13 214.757 116.443 214.757H117.715V214.035C117.715 213.411 117.532 212.971 117.165 212.714C116.804 212.451 116.301 212.32 115.655 212.32C115.371 212.32 115.037 212.356 114.654 212.427C114.271 212.492 113.856 212.604 113.407 212.763L113.046 211.721C113.571 211.524 114.066 211.385 114.531 211.303C115.002 211.221 115.448 211.179 115.869 211.179C116.941 211.179 117.748 211.431 118.289 211.934C118.831 212.438 119.102 213.116 119.102 213.969V218.113ZM115.532 219.138C115.959 219.138 116.364 219.032 116.747 218.818C117.135 218.6 117.458 218.299 117.715 217.916V215.692H116.468C115.516 215.692 114.843 215.856 114.449 216.185C114.061 216.513 113.867 216.953 113.867 217.506C113.867 218.594 114.422 219.138 115.532 219.138ZM122.841 220V218.942H124.186V212.418H122.841V211.36H125.237L125.491 213.403C125.825 212.692 126.229 212.142 126.705 211.754C127.181 211.365 127.81 211.171 128.592 211.171C128.833 211.171 129.046 211.19 129.232 211.229C129.424 211.262 129.618 211.305 129.815 211.36L129.618 214.281H128.486V212.443C128.464 212.443 128.439 212.443 128.412 212.443C127.088 212.443 126.139 213.389 125.565 215.282V218.942H127.321V220H122.841Z" fill="#F8F9FA"/>
<path d="M880.594 98.1795C880.867 98.1795 881.132 98.2397 881.389 98.36C881.647 98.4803 881.857 98.7128 882.021 99.0574C882.185 99.4021 882.267 99.9053 882.267 100.567V107H880.987V100.789C880.987 100.247 880.955 99.8561 880.889 99.6154C880.823 99.3747 880.635 99.2544 880.323 99.2544C880.066 99.2544 879.809 99.3364 879.552 99.5005C879.294 99.6591 879.048 99.9217 878.813 100.288V107H877.525V100.789C877.525 100.247 877.492 99.8561 877.426 99.6154C877.361 99.3747 877.172 99.2544 876.86 99.2544C876.592 99.2544 876.332 99.3364 876.081 99.5005C875.829 99.6591 875.586 99.9217 875.351 100.288V107H874.079V98.36H875.162L875.244 99.361C875.479 99.0274 875.742 98.7484 876.032 98.5241C876.327 98.2944 876.691 98.1795 877.123 98.1795C877.451 98.1795 877.76 98.2588 878.05 98.4174C878.34 98.5706 878.553 98.8715 878.69 99.32C878.925 98.9809 879.191 98.7074 879.486 98.4995C879.781 98.2862 880.151 98.1795 880.594 98.1795ZM891.931 98.36L888.895 107.057C888.692 107.643 888.435 108.179 888.123 108.666C887.817 109.152 887.415 109.555 886.917 109.872C886.425 110.195 885.799 110.394 885.038 110.471L884.825 109.371C885.421 109.273 885.892 109.122 886.236 108.92C886.581 108.718 886.852 108.458 887.049 108.141C887.251 107.829 887.429 107.449 887.582 107H887.122L884.103 98.36H885.58L888.058 105.95L890.503 98.36H891.931ZM909.534 94.7087C909.999 94.7087 910.42 94.7497 910.798 94.8318C911.175 94.9138 911.533 95.0287 911.873 95.1764L911.429 96.2021C911.15 96.0817 910.852 95.9915 910.535 95.9313C910.223 95.8711 909.903 95.841 909.575 95.841C908.366 95.841 907.762 96.3197 907.762 97.2769V99.0328H910.691L910.543 100.116H907.762V107H906.383V100.116H904.324V99.0328H906.383V97.3097C906.383 96.7737 906.52 96.3115 906.794 95.9231C907.073 95.5347 907.45 95.2366 907.926 95.0287C908.402 94.8154 908.938 94.7087 909.534 94.7087ZM917.548 94.9138C917.854 94.9138 918.098 95.0068 918.278 95.1928C918.464 95.3788 918.557 95.6058 918.557 95.8738C918.557 96.1528 918.464 96.388 918.278 96.5795C918.098 96.7655 917.854 96.8585 917.548 96.8585C917.258 96.8585 917.02 96.7655 916.834 96.5795C916.648 96.388 916.555 96.1528 916.555 95.8738C916.555 95.6058 916.648 95.3788 916.834 95.1928C917.02 95.0068 917.258 94.9138 917.548 94.9138ZM918.648 99.0328V105.909H921.084V107H914.602V105.909H917.269V100.116H914.684V99.0328H918.648ZM924.955 107H923.38L926.571 102.438L923.773 98.36H925.406L927.408 101.576L929.435 98.36H931.01L928.221 102.381L931.404 107H929.714L927.351 103.291L924.955 107ZM935.045 103.168C935.083 104.169 935.346 104.899 935.832 105.359C936.325 105.813 936.905 106.04 937.572 106.04C938.015 106.04 938.414 105.974 938.77 105.843C939.125 105.712 939.495 105.518 939.878 105.261L940.526 106.171C940.127 106.489 939.667 106.737 939.147 106.918C938.628 107.098 938.097 107.189 937.556 107.189C936.713 107.189 935.997 107 935.406 106.623C934.821 106.245 934.372 105.72 934.06 105.047C933.754 104.369 933.601 103.584 933.601 102.692C933.601 101.817 933.754 101.04 934.06 100.362C934.372 99.6838 934.81 99.1504 935.373 98.7621C935.942 98.3737 936.609 98.1795 937.375 98.1795C938.464 98.1795 939.32 98.5569 939.943 99.3118C940.572 100.067 940.887 101.101 940.887 102.413C940.887 102.561 940.881 102.701 940.87 102.832C940.865 102.963 940.86 103.075 940.854 103.168H935.045ZM937.391 99.3118C936.751 99.3118 936.215 99.5388 935.783 99.9928C935.351 100.447 935.108 101.15 935.053 102.102H939.558C939.541 101.177 939.339 100.482 938.95 100.017C938.562 99.547 938.042 99.3118 937.391 99.3118ZM948.975 94.7087L950.353 94.881V107H949.147L949.016 105.859C948.693 106.319 948.321 106.655 947.9 106.869C947.484 107.082 947.038 107.189 946.562 107.189C945.813 107.189 945.195 107 944.708 106.623C944.221 106.245 943.86 105.72 943.625 105.047C943.39 104.369 943.272 103.584 943.272 102.692C943.272 101.828 943.406 101.057 943.674 100.378C943.942 99.6947 944.328 99.1586 944.831 98.7703C945.34 98.3764 945.95 98.1795 946.661 98.1795C947.618 98.1795 948.389 98.5186 948.975 99.1969V94.7087ZM947.022 99.2872C946.3 99.2872 945.745 99.5689 945.356 100.132C944.968 100.696 944.774 101.549 944.774 102.692C944.774 104.946 945.466 106.073 946.85 106.073C947.336 106.073 947.755 105.936 948.105 105.663C948.455 105.384 948.745 105.066 948.975 104.711V100.395C948.739 100.045 948.455 99.774 948.121 99.5826C947.788 99.3856 947.421 99.2872 947.022 99.2872ZM966.43 106.048C967.098 106.048 967.623 105.925 968.006 105.679C968.389 105.433 968.58 105.099 968.58 104.678C968.58 104.421 968.531 104.197 968.432 104.005C968.339 103.814 968.145 103.641 967.85 103.488C967.555 103.33 967.101 103.174 966.488 103.021C965.892 102.873 965.372 102.703 964.929 102.512C964.491 102.315 964.149 102.061 963.903 101.749C963.663 101.437 963.542 101.032 963.542 100.534C963.542 99.8068 963.846 99.2325 964.453 98.8113C965.06 98.3901 965.851 98.1795 966.824 98.1795C967.519 98.1795 968.123 98.2725 968.638 98.4585C969.157 98.6444 969.598 98.8687 969.959 99.1313L969.351 100.067C969.029 99.8424 968.668 99.6591 968.268 99.5169C967.875 99.3692 967.399 99.2954 966.841 99.2954C966.162 99.2954 965.681 99.4021 965.397 99.6154C965.112 99.8232 964.97 100.094 964.97 100.428C964.97 100.685 965.038 100.898 965.175 101.068C965.317 101.232 965.555 101.379 965.889 101.511C966.223 101.642 966.682 101.787 967.267 101.946C967.831 102.099 968.323 102.279 968.744 102.487C969.165 102.695 969.491 102.969 969.721 103.308C969.956 103.641 970.073 104.076 970.073 104.612C970.073 105.225 969.898 105.723 969.548 106.106C969.198 106.483 968.744 106.759 968.186 106.934C967.634 107.104 967.049 107.189 966.43 107.189C965.648 107.189 964.981 107.077 964.428 106.852C963.881 106.623 963.422 106.346 963.05 106.024L963.838 105.113C964.177 105.392 964.565 105.619 965.003 105.794C965.446 105.963 965.922 106.048 966.43 106.048ZM976.611 94.3149C976.917 94.3149 977.16 94.4079 977.341 94.5938C977.527 94.7798 977.62 95.0068 977.62 95.2749C977.62 95.5538 977.527 95.7891 977.341 95.9805C977.16 96.1665 976.917 96.2595 976.611 96.2595C976.321 96.2595 976.083 96.1665 975.897 95.9805C975.711 95.7891 975.618 95.5538 975.618 95.2749C975.618 95.0068 975.711 94.7798 975.897 94.5938C976.083 94.4079 976.321 94.3149 976.611 94.3149ZM977.71 98.36V105.909H980.147V107H973.665V105.909H976.332V99.4513H973.747V98.36H977.71ZM988.35 94.7087L989.728 94.881V107H988.522L988.391 105.859C988.068 106.319 987.696 106.655 987.275 106.869C986.859 107.082 986.413 107.189 985.937 107.189C985.188 107.189 984.57 107 984.083 106.623C983.596 106.245 983.235 105.72 983 105.047C982.765 104.369 982.647 103.584 982.647 102.692C982.647 101.828 982.781 101.057 983.049 100.378C983.317 99.6947 983.703 99.1586 984.206 98.7703C984.715 98.3764 985.325 98.1795 986.036 98.1795C986.993 98.1795 987.764 98.5186 988.35 99.1969V94.7087ZM986.397 99.2872C985.675 99.2872 985.12 99.5689 984.731 100.132C984.343 100.696 984.149 101.549 984.149 102.692C984.149 104.946 984.841 106.073 986.225 106.073C986.711 106.073 987.13 105.936 987.48 105.663C987.83 105.384 988.12 105.066 988.35 104.711V100.395C988.114 100.045 987.83 99.774 987.496 99.5826C987.163 99.3856 986.796 99.2872 986.397 99.2872ZM994.107 103.168C994.146 104.169 994.408 104.899 994.895 105.359C995.387 105.813 995.967 106.04 996.634 106.04C997.078 106.04 997.477 105.974 997.832 105.843C998.188 105.712 998.557 105.518 998.94 105.261L999.588 106.171C999.189 106.489 998.73 106.737 998.21 106.918C997.69 107.098 997.16 107.189 996.618 107.189C995.776 107.189 995.059 107 994.468 106.623C993.883 106.245 993.434 105.72 993.123 105.047C992.816 104.369 992.663 103.584 992.663 102.692C992.663 101.817 992.816 101.04 993.123 100.362C993.434 99.6838 993.872 99.1504 994.436 98.7621C995.004 98.3737 995.672 98.1795 996.438 98.1795C997.526 98.1795 998.382 98.5569 999.006 99.3118C999.635 100.067 999.949 101.101 999.949 102.413C999.949 102.561 999.944 102.701 999.933 102.832C999.927 102.963 999.922 103.075 999.917 103.168H994.107ZM996.454 99.3118C995.814 99.3118 995.278 99.5388 994.846 99.9928C994.414 100.447 994.17 101.15 994.116 102.102H998.62C998.604 101.177 998.401 100.482 998.013 100.017C997.625 99.547 997.105 99.3118 996.454 99.3118ZM1004.25 99.4841C1004.56 99.0684 1004.92 98.7484 1005.34 98.5241C1005.76 98.2944 1006.22 98.1795 1006.71 98.1795C1007.48 98.1795 1008.1 98.3655 1008.58 98.7374C1009.05 99.1094 1009.4 99.6345 1009.62 100.313C1009.84 100.986 1009.95 101.773 1009.95 102.676C1009.95 103.546 1009.82 104.322 1009.56 105.006C1009.3 105.684 1008.92 106.218 1008.41 106.606C1007.9 106.995 1007.27 107.189 1006.53 107.189C1005.53 107.189 1004.74 106.828 1004.17 106.106L1004.07 107H1002.87V94.881L1004.25 94.7087V99.4841ZM1006.2 106.073C1006.92 106.073 1007.48 105.794 1007.86 105.236C1008.25 104.678 1008.45 103.822 1008.45 102.668C1008.45 100.414 1007.77 99.2872 1006.41 99.2872C1005.93 99.2872 1005.51 99.4321 1005.14 99.7221C1004.77 100.006 1004.48 100.324 1004.25 100.674V104.957C1004.47 105.302 1004.75 105.575 1005.09 105.777C1005.44 105.974 1005.81 106.073 1006.2 106.073ZM1018.9 105.113C1018.9 105.463 1018.96 105.717 1019.07 105.876C1019.19 106.035 1019.36 106.149 1019.6 106.221L1019.27 107.189C1018.9 107.139 1018.57 107.022 1018.29 106.836C1018.01 106.644 1017.81 106.357 1017.68 105.974C1017.37 106.374 1016.98 106.677 1016.51 106.885C1016.05 107.088 1015.53 107.189 1014.98 107.189C1014.11 107.189 1013.43 106.945 1012.93 106.458C1012.44 105.972 1012.19 105.326 1012.19 104.522C1012.19 103.63 1012.53 102.947 1013.23 102.471C1013.92 101.995 1014.93 101.757 1016.24 101.757H1017.51V101.035C1017.51 100.411 1017.33 99.9709 1016.96 99.7138C1016.6 99.4513 1016.1 99.32 1015.45 99.32C1015.17 99.32 1014.83 99.3556 1014.45 99.4267C1014.07 99.4923 1013.65 99.6044 1013.2 99.7631L1012.84 98.721C1013.37 98.5241 1013.86 98.3846 1014.33 98.3026C1014.8 98.2205 1015.24 98.1795 1015.67 98.1795C1016.74 98.1795 1017.54 98.4311 1018.09 98.9344C1018.63 99.4376 1018.9 100.116 1018.9 100.969V105.113ZM1015.33 106.138C1015.76 106.138 1016.16 106.032 1016.54 105.818C1016.93 105.6 1017.25 105.299 1017.51 104.916V102.692H1016.26C1015.31 102.692 1014.64 102.856 1014.25 103.185C1013.86 103.513 1013.66 103.953 1013.66 104.506C1013.66 105.594 1014.22 106.138 1015.33 106.138ZM1022.64 107V105.942H1023.98V99.4185H1022.64V98.36H1025.03L1025.29 100.403C1025.62 99.692 1026.03 99.1422 1026.5 98.7538C1026.98 98.3655 1027.61 98.1713 1028.39 98.1713C1028.63 98.1713 1028.84 98.1904 1029.03 98.2287C1029.22 98.2615 1029.41 98.3053 1029.61 98.36L1029.41 101.281H1028.28V99.4431C1028.26 99.4431 1028.24 99.4431 1028.21 99.4431C1026.89 99.4431 1025.94 100.389 1025.36 102.282V105.942H1027.12V107H1022.64Z" fill="#F8F9FA"/>
<path d="M357.703 191.179C357.976 191.179 358.242 191.24 358.499 191.36C358.756 191.48 358.967 191.713 359.131 192.057C359.295 192.402 359.377 192.905 359.377 193.567V200H358.097V193.789C358.097 193.247 358.064 192.856 357.998 192.615C357.933 192.375 357.744 192.254 357.432 192.254C357.175 192.254 356.918 192.336 356.661 192.501C356.404 192.659 356.158 192.922 355.922 193.288V200H354.634V193.789C354.634 193.247 354.601 192.856 354.536 192.615C354.47 192.375 354.281 192.254 353.97 192.254C353.702 192.254 353.442 192.336 353.19 192.501C352.939 192.659 352.695 192.922 352.46 193.288V200H351.188V191.36H352.271L352.353 192.361C352.588 192.027 352.851 191.748 353.141 191.524C353.436 191.294 353.8 191.179 354.232 191.179C354.56 191.179 354.869 191.259 355.159 191.417C355.449 191.571 355.663 191.871 355.799 192.32C356.035 191.981 356.3 191.707 356.595 191.499C356.891 191.286 357.26 191.179 357.703 191.179ZM369.04 191.36L366.004 200.057C365.802 200.643 365.545 201.179 365.233 201.666C364.927 202.152 364.524 202.555 364.027 202.872C363.534 203.195 362.908 203.394 362.148 203.471L361.934 202.371C362.531 202.273 363.001 202.122 363.346 201.92C363.69 201.718 363.961 201.458 364.158 201.141C364.36 200.829 364.538 200.449 364.691 200H364.232L361.212 191.36H362.689L365.167 198.95L367.612 191.36H369.04ZM386.643 187.709C387.108 187.709 387.53 187.75 387.907 187.832C388.284 187.914 388.643 188.029 388.982 188.176L388.539 189.202C388.26 189.082 387.962 188.991 387.644 188.931C387.333 188.871 387.013 188.841 386.684 188.841C385.476 188.841 384.871 189.32 384.871 190.277V192.033H387.8L387.653 193.116H384.871V200H383.493V193.116H381.433V192.033H383.493V190.31C383.493 189.774 383.629 189.311 383.903 188.923C384.182 188.535 384.559 188.237 385.035 188.029C385.511 187.815 386.047 187.709 386.643 187.709ZM394.748 187.881V197.867C394.748 198.293 394.879 198.597 395.142 198.777C395.41 198.952 395.754 199.04 396.175 199.04C396.432 199.04 396.679 199.013 396.914 198.958C397.155 198.903 397.392 198.829 397.628 198.736L397.997 199.746C397.762 199.861 397.469 199.962 397.119 200.049C396.774 200.142 396.383 200.189 395.946 200.189C395.18 200.189 394.559 199.978 394.083 199.557C393.607 199.13 393.369 198.542 393.369 197.793V188.972H390.719V187.881H394.748ZM402.31 196.168C402.349 197.169 402.611 197.899 403.098 198.359C403.59 198.813 404.17 199.04 404.838 199.04C405.281 199.04 405.68 198.974 406.036 198.843C406.391 198.712 406.76 198.518 407.143 198.261L407.791 199.171C407.392 199.489 406.933 199.737 406.413 199.918C405.893 200.098 405.363 200.189 404.821 200.189C403.979 200.189 403.262 200 402.671 199.623C402.086 199.245 401.638 198.72 401.326 198.047C401.019 197.369 400.866 196.584 400.866 195.692C400.866 194.817 401.019 194.04 401.326 193.362C401.638 192.684 402.075 192.15 402.639 191.762C403.208 191.374 403.875 191.179 404.641 191.179C405.729 191.179 406.585 191.557 407.209 192.312C407.838 193.067 408.152 194.101 408.152 195.413C408.152 195.561 408.147 195.701 408.136 195.832C408.131 195.963 408.125 196.075 408.12 196.168H402.31ZM404.657 192.312C404.017 192.312 403.481 192.539 403.049 192.993C402.617 193.447 402.373 194.15 402.319 195.102H406.823C406.807 194.177 406.604 193.482 406.216 193.017C405.828 192.547 405.308 192.312 404.657 192.312ZM411.908 200H410.333L413.524 195.438L410.726 191.36H412.359L414.361 194.576L416.388 191.36H417.963L415.174 195.381L418.357 200H416.667L414.304 196.291L411.908 200ZM424.189 187.315C424.495 187.315 424.738 187.408 424.919 187.594C425.105 187.78 425.198 188.007 425.198 188.275C425.198 188.554 425.105 188.789 424.919 188.981C424.738 189.166 424.495 189.259 424.189 189.259C423.899 189.259 423.661 189.166 423.475 188.981C423.289 188.789 423.196 188.554 423.196 188.275C423.196 188.007 423.289 187.78 423.475 187.594C423.661 187.408 423.899 187.315 424.189 187.315ZM425.288 191.36V198.909H427.725V200H421.243V198.909H423.91V192.451H421.325V191.36H425.288ZM432.137 192.484C432.449 192.068 432.813 191.748 433.228 191.524C433.65 191.294 434.106 191.179 434.599 191.179C435.37 191.179 435.993 191.365 436.469 191.737C436.945 192.109 437.293 192.635 437.511 193.313C437.73 193.986 437.84 194.773 437.84 195.676C437.84 196.546 437.708 197.322 437.446 198.006C437.189 198.684 436.806 199.218 436.297 199.606C435.788 199.995 435.162 200.189 434.418 200.189C433.417 200.189 432.632 199.828 432.063 199.106L431.965 200H430.759V187.881L432.137 187.709V192.484ZM434.09 199.073C434.812 199.073 435.367 198.794 435.756 198.236C436.144 197.678 436.338 196.822 436.338 195.668C436.338 193.414 435.66 192.287 434.303 192.287C433.822 192.287 433.398 192.432 433.031 192.722C432.665 193.006 432.367 193.324 432.137 193.674V197.957C432.361 198.302 432.643 198.575 432.982 198.777C433.327 198.974 433.696 199.073 434.09 199.073ZM443.966 187.881V197.867C443.966 198.293 444.098 198.597 444.36 198.777C444.628 198.952 444.973 199.04 445.394 199.04C445.651 199.04 445.897 199.013 446.133 198.958C446.373 198.903 446.611 198.829 446.846 198.736L447.216 199.746C446.98 199.861 446.688 199.962 446.338 200.049C445.993 200.142 445.602 200.189 445.164 200.189C444.399 200.189 443.778 199.978 443.302 199.557C442.826 199.13 442.588 198.542 442.588 197.793V188.972H439.938V187.881H443.966ZM451.529 196.168C451.567 197.169 451.83 197.899 452.317 198.359C452.809 198.813 453.389 199.04 454.056 199.04C454.499 199.04 454.899 198.974 455.254 198.843C455.61 198.712 455.979 198.518 456.362 198.261L457.01 199.171C456.611 199.489 456.151 199.737 455.632 199.918C455.112 200.098 454.581 200.189 454.04 200.189C453.198 200.189 452.481 200 451.89 199.623C451.305 199.245 450.856 198.72 450.545 198.047C450.238 197.369 450.085 196.584 450.085 195.692C450.085 194.817 450.238 194.04 450.545 193.362C450.856 192.684 451.294 192.15 451.857 191.762C452.426 191.374 453.094 191.179 453.859 191.179C454.948 191.179 455.804 191.557 456.428 192.312C457.057 193.067 457.371 194.101 457.371 195.413C457.371 195.561 457.366 195.701 457.355 195.832C457.349 195.963 457.344 196.075 457.338 196.168H451.529ZM453.876 192.312C453.236 192.312 452.7 192.539 452.268 192.993C451.836 193.447 451.592 194.15 451.537 195.102H456.042C456.026 194.177 455.823 193.482 455.435 193.017C455.046 192.547 454.527 192.312 453.876 192.312ZM375.602 218.999C376.034 218.999 376.436 218.931 376.808 218.794C377.185 218.652 377.533 218.468 377.85 218.244L378.523 219.147C378.145 219.469 377.691 219.724 377.161 219.91C376.63 220.096 376.11 220.189 375.602 220.189C374.743 220.189 374.01 220.005 373.403 219.639C372.801 219.267 372.342 218.747 372.024 218.08C371.707 217.407 371.548 216.619 371.548 215.717C371.548 214.853 371.707 214.079 372.024 213.395C372.342 212.711 372.804 212.172 373.411 211.778C374.018 211.379 374.754 211.179 375.618 211.179C376.718 211.179 377.68 211.513 378.506 212.181L377.834 213.099C377.084 212.585 376.34 212.328 375.602 212.328C374.858 212.328 374.245 212.61 373.764 213.173C373.282 213.731 373.042 214.579 373.042 215.717C373.042 216.871 373.282 217.708 373.764 218.228C374.245 218.742 374.858 218.999 375.602 218.999ZM384.83 211.179C386.05 211.179 386.972 211.587 387.595 212.402C388.219 213.217 388.531 214.308 388.531 215.676C388.531 216.557 388.388 217.336 388.104 218.014C387.82 218.693 387.401 219.226 386.849 219.614C386.296 219.997 385.618 220.189 384.814 220.189C383.594 220.189 382.669 219.778 382.04 218.958C381.411 218.137 381.097 217.049 381.097 215.692C381.097 214.806 381.239 214.024 381.523 213.346C381.808 212.662 382.226 212.131 382.779 211.754C383.337 211.371 384.021 211.179 384.83 211.179ZM384.83 212.304C384.086 212.304 383.523 212.58 383.14 213.132C382.762 213.685 382.574 214.538 382.574 215.692C382.574 216.836 382.76 217.683 383.132 218.236C383.509 218.783 384.07 219.056 384.814 219.056C385.558 219.056 386.116 218.78 386.488 218.228C386.865 217.675 387.054 216.825 387.054 215.676C387.054 214.527 386.868 213.679 386.496 213.132C386.124 212.58 385.569 212.304 384.83 212.304ZM391.384 220V211.36H392.557L392.664 212.558C393.014 212.115 393.451 211.776 393.976 211.541C394.502 211.3 395.016 211.179 395.519 211.179C396.367 211.179 396.982 211.404 397.365 211.852C397.754 212.301 397.948 212.924 397.948 213.723V220H396.569V214.741C396.569 214.15 396.536 213.674 396.471 213.313C396.405 212.952 396.266 212.686 396.052 212.517C395.844 212.347 395.524 212.263 395.092 212.263C394.753 212.263 394.433 212.336 394.132 212.484C393.837 212.632 393.572 212.818 393.336 213.042C393.107 213.261 392.915 213.482 392.762 213.707V220H391.384ZM408.087 219.565C407.791 219.762 407.433 219.915 407.012 220.025C406.591 220.134 406.178 220.189 405.773 220.189C404.843 220.189 404.127 219.945 403.623 219.458C403.12 218.972 402.868 218.345 402.868 217.579V212.427H400.883V211.36H402.868V209.399L404.247 209.235V211.36H407.234L407.069 212.427H404.247V217.563C404.247 218.044 404.373 218.411 404.624 218.663C404.881 218.914 405.305 219.04 405.896 219.04C406.219 219.04 406.517 219.002 406.79 218.925C407.064 218.849 407.318 218.75 407.554 218.63L408.087 219.565ZM412.154 216.168C412.192 217.169 412.455 217.899 412.942 218.359C413.434 218.813 414.014 219.04 414.681 219.04C415.124 219.04 415.524 218.974 415.879 218.843C416.235 218.712 416.604 218.518 416.987 218.261L417.635 219.171C417.236 219.489 416.776 219.737 416.257 219.918C415.737 220.098 415.206 220.189 414.665 220.189C413.823 220.189 413.106 220 412.515 219.623C411.93 219.245 411.481 218.72 411.17 218.047C410.863 217.369 410.71 216.584 410.71 215.692C410.71 214.817 410.863 214.04 411.17 213.362C411.481 212.684 411.919 212.15 412.482 211.762C413.051 211.374 413.719 211.179 414.484 211.179C415.573 211.179 416.429 211.557 417.053 212.312C417.682 213.067 417.996 214.101 417.996 215.413C417.996 215.561 417.991 215.701 417.98 215.832C417.974 215.963 417.969 216.075 417.963 216.168H412.154ZM414.501 212.312C413.861 212.312 413.325 212.539 412.893 212.993C412.461 213.447 412.217 214.15 412.162 215.102H416.667C416.651 214.177 416.448 213.482 416.06 213.017C415.671 212.547 415.152 212.312 414.501 212.312ZM420.915 220V211.36H422.088L422.195 212.558C422.545 212.115 422.983 211.776 423.508 211.541C424.033 211.3 424.547 211.179 425.05 211.179C425.898 211.179 426.513 211.404 426.896 211.852C427.285 212.301 427.479 212.924 427.479 213.723V220H426.1V214.741C426.1 214.15 426.068 213.674 426.002 213.313C425.936 212.952 425.797 212.686 425.584 212.517C425.376 212.347 425.056 212.263 424.624 212.263C424.284 212.263 423.964 212.336 423.664 212.484C423.368 212.632 423.103 212.818 422.868 213.042C422.638 213.261 422.446 213.482 422.293 213.707V220H420.915ZM437.618 219.565C437.323 219.762 436.964 219.915 436.543 220.025C436.122 220.134 435.709 220.189 435.304 220.189C434.374 220.189 433.658 219.945 433.155 219.458C432.651 218.972 432.4 218.345 432.4 217.579V212.427H430.414V211.36H432.4V209.399L433.778 209.235V211.36H436.765L436.601 212.427H433.778V217.563C433.778 218.044 433.904 218.411 434.156 218.663C434.413 218.914 434.837 219.04 435.427 219.04C435.75 219.04 436.048 219.002 436.322 218.925C436.595 218.849 436.85 218.75 437.085 218.63L437.618 219.565Z" fill="#F8F9FA"/>
<path d="M905.703 225.179C905.976 225.179 906.242 225.24 906.499 225.36C906.756 225.48 906.967 225.713 907.131 226.057C907.295 226.402 907.377 226.905 907.377 227.567V234H906.097V227.789C906.097 227.247 906.064 226.856 905.998 226.615C905.933 226.375 905.744 226.254 905.432 226.254C905.175 226.254 904.918 226.336 904.661 226.501C904.404 226.659 904.158 226.922 903.922 227.288V234H902.634V227.789C902.634 227.247 902.601 226.856 902.536 226.615C902.47 226.375 902.281 226.254 901.97 226.254C901.702 226.254 901.442 226.336 901.19 226.501C900.939 226.659 900.695 226.922 900.46 227.288V234H899.188V225.36H900.271L900.353 226.361C900.588 226.027 900.851 225.748 901.141 225.524C901.436 225.294 901.8 225.179 902.232 225.179C902.56 225.179 902.869 225.259 903.159 225.417C903.449 225.571 903.663 225.871 903.799 226.32C904.035 225.981 904.3 225.707 904.595 225.499C904.891 225.286 905.26 225.179 905.703 225.179ZM917.04 225.36L914.004 234.057C913.802 234.643 913.545 235.179 913.233 235.666C912.927 236.152 912.524 236.555 912.027 236.872C911.534 237.195 910.908 237.394 910.148 237.471L909.934 236.371C910.531 236.273 911.001 236.122 911.346 235.92C911.69 235.718 911.961 235.458 912.158 235.141C912.36 234.829 912.538 234.449 912.691 234H912.232L909.212 225.36H910.689L913.167 232.95L915.612 225.36H917.04ZM934.643 221.709C935.108 221.709 935.53 221.75 935.907 221.832C936.284 221.914 936.643 222.029 936.982 222.176L936.539 223.202C936.26 223.082 935.962 222.991 935.644 222.931C935.333 222.871 935.013 222.841 934.684 222.841C933.476 222.841 932.871 223.32 932.871 224.277V226.033H935.8L935.653 227.116H932.871V234H931.493V227.116H929.433V226.033H931.493V224.31C931.493 223.774 931.629 223.311 931.903 222.923C932.182 222.535 932.559 222.237 933.035 222.029C933.511 221.815 934.047 221.709 934.643 221.709ZM942.748 221.881V231.867C942.748 232.293 942.879 232.597 943.142 232.777C943.41 232.952 943.754 233.04 944.175 233.04C944.432 233.04 944.679 233.013 944.914 232.958C945.155 232.903 945.392 232.829 945.628 232.736L945.997 233.746C945.762 233.861 945.469 233.962 945.119 234.049C944.774 234.142 944.383 234.189 943.946 234.189C943.18 234.189 942.559 233.978 942.083 233.557C941.607 233.13 941.369 232.542 941.369 231.793V222.972H938.719V221.881H942.748ZM950.31 230.168C950.349 231.169 950.611 231.899 951.098 232.359C951.59 232.813 952.17 233.04 952.838 233.04C953.281 233.04 953.68 232.974 954.036 232.843C954.391 232.712 954.76 232.518 955.143 232.261L955.791 233.171C955.392 233.489 954.933 233.737 954.413 233.918C953.893 234.098 953.363 234.189 952.821 234.189C951.979 234.189 951.262 234 950.671 233.623C950.086 233.245 949.638 232.72 949.326 232.047C949.019 231.369 948.866 230.584 948.866 229.692C948.866 228.817 949.019 228.04 949.326 227.362C949.638 226.684 950.075 226.15 950.639 225.762C951.208 225.374 951.875 225.179 952.641 225.179C953.729 225.179 954.585 225.557 955.209 226.312C955.838 227.067 956.152 228.101 956.152 229.413C956.152 229.561 956.147 229.701 956.136 229.832C956.131 229.963 956.125 230.075 956.12 230.168H950.31ZM952.657 226.312C952.017 226.312 951.481 226.539 951.049 226.993C950.617 227.447 950.373 228.15 950.319 229.102H954.823C954.807 228.177 954.604 227.482 954.216 227.017C953.828 226.547 953.308 226.312 952.657 226.312ZM959.908 234H958.333L961.524 229.438L958.726 225.36H960.359L962.361 228.576L964.388 225.36H965.963L963.174 229.381L966.357 234H964.667L962.304 230.291L959.908 234ZM972.189 221.315C972.495 221.315 972.738 221.408 972.919 221.594C973.105 221.78 973.198 222.007 973.198 222.275C973.198 222.554 973.105 222.789 972.919 222.981C972.738 223.166 972.495 223.259 972.189 223.259C971.899 223.259 971.661 223.166 971.475 222.981C971.289 222.789 971.196 222.554 971.196 222.275C971.196 222.007 971.289 221.78 971.475 221.594C971.661 221.408 971.899 221.315 972.189 221.315ZM973.288 225.36V232.909H975.725V234H969.243V232.909H971.91V226.451H969.325V225.36H973.288ZM980.137 226.484C980.449 226.068 980.813 225.748 981.228 225.524C981.65 225.294 982.106 225.179 982.599 225.179C983.37 225.179 983.993 225.365 984.469 225.737C984.945 226.109 985.293 226.635 985.511 227.313C985.73 227.986 985.84 228.773 985.84 229.676C985.84 230.546 985.708 231.322 985.446 232.006C985.189 232.684 984.806 233.218 984.297 233.606C983.788 233.995 983.162 234.189 982.418 234.189C981.417 234.189 980.632 233.828 980.063 233.106L979.965 234H978.759V221.881L980.137 221.709V226.484ZM982.09 233.073C982.812 233.073 983.367 232.794 983.756 232.236C984.144 231.678 984.338 230.822 984.338 229.668C984.338 227.414 983.66 226.287 982.303 226.287C981.822 226.287 981.398 226.432 981.031 226.722C980.665 227.006 980.367 227.324 980.137 227.674V231.957C980.361 232.302 980.643 232.575 980.982 232.777C981.327 232.974 981.696 233.073 982.09 233.073ZM991.966 221.881V231.867C991.966 232.293 992.098 232.597 992.36 232.777C992.628 232.952 992.973 233.04 993.394 233.04C993.651 233.04 993.897 233.013 994.133 232.958C994.373 232.903 994.611 232.829 994.846 232.736L995.216 233.746C994.98 233.861 994.688 233.962 994.338 234.049C993.993 234.142 993.602 234.189 993.164 234.189C992.399 234.189 991.778 233.978 991.302 233.557C990.826 233.13 990.588 232.542 990.588 231.793V222.972H987.938V221.881H991.966ZM999.529 230.168C999.567 231.169 999.83 231.899 1000.32 232.359C1000.81 232.813 1001.39 233.04 1002.06 233.04C1002.5 233.04 1002.9 232.974 1003.25 232.843C1003.61 232.712 1003.98 232.518 1004.36 232.261L1005.01 233.171C1004.61 233.489 1004.15 233.737 1003.63 233.918C1003.11 234.098 1002.58 234.189 1002.04 234.189C1001.2 234.189 1000.48 234 999.89 233.623C999.305 233.245 998.856 232.72 998.545 232.047C998.238 231.369 998.085 230.584 998.085 229.692C998.085 228.817 998.238 228.04 998.545 227.362C998.856 226.684 999.294 226.15 999.857 225.762C1000.43 225.374 1001.09 225.179 1001.86 225.179C1002.95 225.179 1003.8 225.557 1004.43 226.312C1005.06 227.067 1005.37 228.101 1005.37 229.413C1005.37 229.561 1005.37 229.701 1005.35 229.832C1005.35 229.963 1005.34 230.075 1005.34 230.168H999.529ZM1001.88 226.312C1001.24 226.312 1000.7 226.539 1000.27 226.993C999.836 227.447 999.592 228.15 999.537 229.102H1004.04C1004.03 228.177 1003.82 227.482 1003.43 227.017C1003.05 226.547 1002.53 226.312 1001.88 226.312ZM923.602 252.999C924.034 252.999 924.436 252.931 924.808 252.794C925.185 252.652 925.533 252.468 925.85 252.244L926.523 253.147C926.145 253.469 925.691 253.724 925.161 253.91C924.63 254.096 924.11 254.189 923.602 254.189C922.743 254.189 922.01 254.005 921.403 253.639C920.801 253.267 920.342 252.747 920.024 252.08C919.707 251.407 919.548 250.619 919.548 249.717C919.548 248.853 919.707 248.079 920.024 247.395C920.342 246.711 920.804 246.172 921.411 245.778C922.018 245.379 922.754 245.179 923.618 245.179C924.718 245.179 925.68 245.513 926.506 246.181L925.834 247.099C925.084 246.585 924.34 246.328 923.602 246.328C922.858 246.328 922.245 246.61 921.764 247.173C921.282 247.731 921.042 248.579 921.042 249.717C921.042 250.871 921.282 251.708 921.764 252.228C922.245 252.742 922.858 252.999 923.602 252.999ZM932.83 245.179C934.05 245.179 934.972 245.587 935.595 246.402C936.219 247.217 936.531 248.308 936.531 249.676C936.531 250.557 936.388 251.336 936.104 252.014C935.82 252.693 935.401 253.226 934.849 253.614C934.296 253.997 933.618 254.189 932.814 254.189C931.594 254.189 930.669 253.778 930.04 252.958C929.411 252.137 929.097 251.049 929.097 249.692C929.097 248.806 929.239 248.024 929.523 247.346C929.808 246.662 930.226 246.131 930.779 245.754C931.337 245.371 932.021 245.179 932.83 245.179ZM932.83 246.304C932.086 246.304 931.523 246.58 931.14 247.132C930.762 247.685 930.574 248.538 930.574 249.692C930.574 250.836 930.76 251.683 931.132 252.236C931.509 252.783 932.07 253.056 932.814 253.056C933.558 253.056 934.116 252.78 934.488 252.228C934.865 251.675 935.054 250.825 935.054 249.676C935.054 248.527 934.868 247.679 934.496 247.132C934.124 246.58 933.569 246.304 932.83 246.304ZM939.384 254V245.36H940.557L940.664 246.558C941.014 246.115 941.451 245.776 941.976 245.541C942.502 245.3 943.016 245.179 943.519 245.179C944.367 245.179 944.982 245.404 945.365 245.852C945.754 246.301 945.948 246.924 945.948 247.723V254H944.569V248.741C944.569 248.15 944.536 247.674 944.471 247.313C944.405 246.952 944.266 246.686 944.052 246.517C943.844 246.347 943.524 246.263 943.092 246.263C942.753 246.263 942.433 246.336 942.132 246.484C941.837 246.632 941.572 246.818 941.336 247.042C941.107 247.261 940.915 247.482 940.762 247.707V254H939.384ZM956.087 253.565C955.791 253.762 955.433 253.915 955.012 254.025C954.591 254.134 954.178 254.189 953.773 254.189C952.843 254.189 952.127 253.945 951.623 253.458C951.12 252.972 950.868 252.345 950.868 251.579V246.427H948.883V245.36H950.868V243.399L952.247 243.235V245.36H955.234L955.069 246.427H952.247V251.563C952.247 252.044 952.373 252.411 952.624 252.663C952.881 252.914 953.305 253.04 953.896 253.04C954.219 253.04 954.517 253.002 954.79 252.925C955.064 252.849 955.318 252.75 955.554 252.63L956.087 253.565ZM960.154 250.168C960.192 251.169 960.455 251.899 960.942 252.359C961.434 252.813 962.014 253.04 962.681 253.04C963.124 253.04 963.524 252.974 963.879 252.843C964.235 252.712 964.604 252.518 964.987 252.261L965.635 253.171C965.236 253.489 964.776 253.737 964.257 253.918C963.737 254.098 963.206 254.189 962.665 254.189C961.823 254.189 961.106 254 960.515 253.623C959.93 253.245 959.481 252.72 959.17 252.047C958.863 251.369 958.71 250.584 958.71 249.692C958.71 248.817 958.863 248.04 959.17 247.362C959.481 246.684 959.919 246.15 960.482 245.762C961.051 245.374 961.719 245.179 962.484 245.179C963.573 245.179 964.429 245.557 965.053 246.312C965.682 247.067 965.996 248.101 965.996 249.413C965.996 249.561 965.991 249.701 965.98 249.832C965.974 249.963 965.969 250.075 965.963 250.168H960.154ZM962.501 246.312C961.861 246.312 961.325 246.539 960.893 246.993C960.461 247.447 960.217 248.15 960.162 249.102H964.667C964.651 248.177 964.448 247.482 964.06 247.017C963.671 246.547 963.152 246.312 962.501 246.312ZM968.915 254V245.36H970.088L970.195 246.558C970.545 246.115 970.983 245.776 971.508 245.541C972.033 245.3 972.547 245.179 973.05 245.179C973.898 245.179 974.513 245.404 974.896 245.852C975.285 246.301 975.479 246.924 975.479 247.723V254H974.1V248.741C974.1 248.15 974.068 247.674 974.002 247.313C973.936 246.952 973.797 246.686 973.584 246.517C973.376 246.347 973.056 246.263 972.624 246.263C972.284 246.263 971.964 246.336 971.664 246.484C971.368 246.632 971.103 246.818 970.868 247.042C970.638 247.261 970.446 247.482 970.293 247.707V254H968.915ZM985.618 253.565C985.323 253.762 984.964 253.915 984.543 254.025C984.122 254.134 983.709 254.189 983.304 254.189C982.374 254.189 981.658 253.945 981.155 253.458C980.651 252.972 980.4 252.345 980.4 251.579V246.427H978.414V245.36H980.4V243.399L981.778 243.235V245.36H984.765L984.601 246.427H981.778V251.563C981.778 252.044 981.904 252.411 982.156 252.663C982.413 252.914 982.837 253.04 983.427 253.04C983.75 253.04 984.048 253.002 984.322 252.925C984.595 252.849 984.85 252.75 985.085 252.63L985.618 253.565Z" fill="#F8F9FA"/>
<line x1="599" y1="376" x2="599" y2="206" stroke="var(--text-0)" stroke-width="2" stroke-dasharray="4 4"/>
<line x1="193" y1="206" x2="193" y2="26" stroke="var(--text-0)" stroke-width="2" stroke-dasharray="4 4"/>
<line x1="1" y1="376" x2="1.00002" y2="26" stroke="var(--text-0)" stroke-width="2" stroke-dasharray="4 4"/>
<path d="M34.7295 9.46256V8.26462H40.9736V9.46256H34.7295ZM27.0577 9.46256V8.26462H33.3018V9.46256H27.0577ZM52.3681 13.5651C52.0727 13.7621 51.7144 13.9152 51.2932 14.0246C50.872 14.134 50.459 14.1887 50.0542 14.1887C49.1243 14.1887 48.4078 13.9453 47.9045 13.4585C47.4013 12.9716 47.1496 12.3453 47.1496 11.5795V6.42667H45.164V5.36H47.1496V3.39897L48.5281 3.23487V5.36H51.5148L51.3507 6.42667H48.5281V11.5631C48.5281 12.0444 48.6539 12.4109 48.9055 12.6626C49.1626 12.9142 49.5866 13.04 50.1773 13.04C50.5001 13.04 50.7982 13.0017 51.0717 12.9251C51.3452 12.8485 51.5995 12.7501 51.8348 12.6297L52.3681 13.5651ZM56.7308 1.74974V6.54154C57.07 6.09299 57.4857 5.75385 57.978 5.5241C58.4758 5.29436 58.979 5.17949 59.4877 5.17949C60.3301 5.17949 60.9455 5.40376 61.3339 5.85231C61.7223 6.30086 61.9165 6.92444 61.9165 7.72308V14H60.538V7.7559C60.538 7.23624 60.4177 6.8588 60.177 6.62359C59.9363 6.38291 59.5589 6.26256 59.0447 6.26256C58.7165 6.26256 58.4047 6.33641 58.1093 6.4841C57.8139 6.6318 57.5486 6.81504 57.3134 7.03385C57.0782 7.25265 56.884 7.47692 56.7308 7.70667V14H55.3524V1.89744L56.7308 1.74974ZM65.2782 14V12.9415H66.6238V6.41846H65.2782V5.36H67.6741L67.9284 7.40308C68.2621 6.69197 68.6669 6.14222 69.1428 5.75385C69.6187 5.36547 70.2477 5.17128 71.03 5.17128C71.2706 5.17128 71.484 5.19043 71.67 5.22872C71.8614 5.26154 72.0556 5.3053 72.2525 5.36L72.0556 8.28103H70.9233V6.44308C70.9014 6.44308 70.8768 6.44308 70.8494 6.44308C69.5257 6.44308 68.5766 7.3894 68.0023 9.28205V12.9415H69.7582V14H65.2782ZM76.1229 10.1682C76.1612 11.1692 76.4238 11.8995 76.9106 12.359C77.4029 12.813 77.9828 13.04 78.6501 13.04C79.0932 13.04 79.4925 12.9744 79.8481 12.8431C80.2036 12.7118 80.5728 12.5176 80.9558 12.2605L81.604 13.1713C81.2046 13.4885 80.7452 13.7374 80.2255 13.9179C79.7058 14.0985 79.1752 14.1887 78.6337 14.1887C77.7913 14.1887 77.0747 14 76.484 13.6226C75.8987 13.2451 75.4501 12.72 75.1383 12.0472C74.832 11.3689 74.6788 10.5839 74.6788 9.69231C74.6788 8.81709 74.832 8.04034 75.1383 7.36205C75.4501 6.68376 75.8877 6.15043 76.4511 5.76205C77.02 5.37368 77.6874 5.17949 78.4532 5.17949C79.5417 5.17949 80.3978 5.55692 81.0214 6.3118C81.6505 7.06667 81.965 8.10051 81.965 9.41333C81.965 9.56103 81.9595 9.70051 81.9486 9.8318C81.9431 9.96308 81.9376 10.0752 81.9322 10.1682H76.1229ZM78.4696 6.3118C77.8296 6.3118 77.2935 6.5388 76.8614 6.99282C76.4293 7.44684 76.1858 8.14974 76.1311 9.10154H80.6358C80.6193 8.17709 80.4169 7.48239 80.0286 7.01744C79.6402 6.54701 79.1205 6.3118 78.4696 6.3118ZM87.821 13.0482C88.4884 13.0482 89.0135 12.9251 89.3964 12.679C89.7793 12.4328 89.9708 12.0991 89.9708 11.6779C89.9708 11.4209 89.9216 11.1966 89.8231 11.0051C89.7301 10.8137 89.5359 10.6414 89.2405 10.4882C88.9451 10.3296 88.4911 10.1737 87.8785 10.0205C87.2822 9.87282 86.7626 9.70325 86.3195 9.5118C85.8819 9.31487 85.54 9.06051 85.2939 8.74872C85.0532 8.43692 84.9328 8.03214 84.9328 7.53436C84.9328 6.80684 85.2364 6.23248 85.8436 5.81128C86.4508 5.39009 87.2412 5.17949 88.2149 5.17949C88.9096 5.17949 89.514 5.27248 90.0282 5.45846C90.5479 5.64444 90.9882 5.86872 91.3492 6.13128L90.7421 7.06667C90.4193 6.84239 90.0583 6.65915 89.659 6.51692C89.2651 6.36923 88.7892 6.29538 88.2313 6.29538C87.553 6.29538 87.0716 6.40205 86.7872 6.61539C86.5028 6.82325 86.3605 7.09402 86.3605 7.42769C86.3605 7.68479 86.4289 7.89812 86.5657 8.06769C86.7079 8.2318 86.9458 8.37949 87.2795 8.51077C87.6132 8.64205 88.0727 8.78701 88.658 8.94564C89.2214 9.0988 89.7137 9.27932 90.1349 9.48718C90.5561 9.69504 90.8816 9.96855 91.1113 10.3077C91.3465 10.6414 91.4641 11.0762 91.4641 11.6123C91.4641 12.225 91.2891 12.7227 90.939 13.1056C90.5889 13.4831 90.1349 13.7593 89.5769 13.9344C89.0245 14.1039 88.4392 14.1887 87.821 14.1887C87.0388 14.1887 86.3715 14.0766 85.819 13.8523C85.272 13.6226 84.8125 13.3463 84.4405 13.0236L85.2282 12.1128C85.5674 12.3918 85.9557 12.6188 86.3933 12.7938C86.8364 12.9634 87.3123 13.0482 87.821 13.0482ZM96.1058 1.74974V6.54154C96.445 6.09299 96.8607 5.75385 97.353 5.5241C97.8508 5.29436 98.354 5.17949 98.8627 5.17949C99.7051 5.17949 100.321 5.40376 100.709 5.85231C101.097 6.30086 101.291 6.92444 101.291 7.72308V14H99.913V7.7559C99.913 7.23624 99.7927 6.8588 99.552 6.62359C99.3113 6.38291 98.9339 6.26256 98.4197 6.26256C98.0915 6.26256 97.7797 6.33641 97.4843 6.4841C97.1889 6.6318 96.9236 6.81504 96.6884 7.03385C96.4532 7.25265 96.259 7.47692 96.1058 7.70667V14H94.7274V1.89744L96.1058 1.74974ZM107.861 5.17949C109.081 5.17949 110.003 5.58701 110.626 6.40205C111.25 7.21709 111.562 8.30838 111.562 9.6759C111.562 10.5566 111.42 11.3361 111.135 12.0144C110.851 12.6926 110.432 13.226 109.88 13.6144C109.327 13.9973 108.649 14.1887 107.845 14.1887C106.625 14.1887 105.701 13.7785 105.072 12.9579C104.443 12.1374 104.128 11.0489 104.128 9.69231C104.128 8.80615 104.27 8.02393 104.555 7.34564C104.839 6.66188 105.258 6.13128 105.81 5.75385C106.368 5.37094 107.052 5.17949 107.861 5.17949ZM107.861 6.30359C107.117 6.30359 106.554 6.57983 106.171 7.13231C105.794 7.68479 105.605 8.53812 105.605 9.69231C105.605 10.8356 105.791 11.6834 106.163 12.2359C106.54 12.7829 107.101 13.0564 107.845 13.0564C108.589 13.0564 109.147 12.7802 109.519 12.2277C109.896 11.6752 110.085 10.8246 110.085 9.6759C110.085 8.52718 109.899 7.67932 109.527 7.13231C109.155 6.57983 108.6 6.30359 107.861 6.30359ZM117.779 1.88103V11.8667C117.779 12.2933 117.91 12.5969 118.173 12.7774C118.441 12.9525 118.785 13.04 119.207 13.04C119.464 13.04 119.71 13.0126 119.945 12.9579C120.186 12.9032 120.424 12.8294 120.659 12.7364L121.028 13.7456C120.793 13.8605 120.5 13.9617 120.15 14.0492C119.806 14.1422 119.415 14.1887 118.977 14.1887C118.211 14.1887 117.59 13.9781 117.114 13.5569C116.638 13.1303 116.4 12.5422 116.4 11.7928V2.97231H113.75V1.88103H117.779ZM129.428 1.70872L130.806 1.88103V14H129.6L129.469 12.8595C129.146 13.319 128.774 13.6554 128.353 13.8687C127.937 14.0821 127.491 14.1887 127.016 14.1887C126.266 14.1887 125.648 14 125.161 13.6226C124.674 13.2451 124.313 12.72 124.078 12.0472C123.843 11.3689 123.725 10.5839 123.725 9.69231C123.725 8.82803 123.859 8.05675 124.127 7.37846C124.395 6.6947 124.781 6.15863 125.284 5.77026C125.793 5.37641 126.403 5.17949 127.114 5.17949C128.071 5.17949 128.843 5.51863 129.428 6.19692V1.70872ZM127.475 6.28718C126.753 6.28718 126.198 6.56889 125.809 7.13231C125.421 7.69573 125.227 8.54906 125.227 9.69231C125.227 11.946 125.919 13.0728 127.303 13.0728C127.79 13.0728 128.208 12.9361 128.558 12.6626C128.908 12.3836 129.198 12.0663 129.428 11.7108V7.39487C129.193 7.04479 128.908 6.77402 128.575 6.58256C128.241 6.38564 127.874 6.28718 127.475 6.28718ZM134.086 9.46256V8.26462H140.666V9.46256H134.086ZM149.706 0.289231V1.37231C149.307 1.37231 148.943 1.41333 148.615 1.49539C148.292 1.57197 148.04 1.70598 147.86 1.89744C147.679 2.08889 147.606 2.35145 147.638 2.68513L147.983 6.04923C148.054 6.73846 147.956 7.25265 147.688 7.59179C147.425 7.93094 147.012 8.15248 146.449 8.25641C147.023 8.36034 147.441 8.57368 147.704 8.89641C147.967 9.21368 148.06 9.73607 147.983 10.4636L147.638 13.8277C147.606 14.1668 147.679 14.4321 147.86 14.6236C148.04 14.815 148.292 14.9491 148.615 15.0256C148.938 15.1022 149.301 15.1405 149.706 15.1405V16.2236C149.093 16.2236 148.519 16.1497 147.983 16.0021C147.447 15.8544 147.026 15.5945 146.719 15.2226C146.413 14.8561 146.298 14.3364 146.375 13.6636L146.703 10.5456C146.747 10.1737 146.711 9.85915 146.596 9.60205C146.487 9.33949 146.246 9.14256 145.874 9.01128C145.508 8.87453 144.958 8.80615 144.225 8.80615V7.70667C144.958 7.70667 145.508 7.64103 145.874 7.50974C146.246 7.37846 146.487 7.18427 146.596 6.92718C146.711 6.67009 146.747 6.35556 146.703 5.98359L146.375 2.84923C146.304 2.17641 146.419 1.65675 146.719 1.29026C147.026 0.918291 147.447 0.658462 147.983 0.51077C148.519 0.363077 149.093 0.289231 149.706 0.289231ZM155.513 12.8267H160.321L160.141 14H153.823V12.9579L158.614 6.55795H154.2V5.36H160.272V6.42667L155.513 12.8267ZM164.421 0.289231C165.034 0.289231 165.608 0.363077 166.144 0.51077C166.68 0.658462 167.102 0.918291 167.408 1.29026C167.714 1.65675 167.829 2.17641 167.753 2.84923L167.424 5.98359C167.364 6.54154 167.509 6.96821 167.859 7.26359C168.209 7.55897 168.89 7.70667 169.902 7.70667V8.80615C168.896 8.80615 168.215 8.95658 167.859 9.25744C167.509 9.55829 167.364 9.98769 167.424 10.5456L167.753 13.6636C167.824 14.3364 167.706 14.8561 167.4 15.2226C167.099 15.5945 166.68 15.8544 166.144 16.0021C165.608 16.1497 165.034 16.2236 164.421 16.2236V15.1405C164.821 15.1405 165.182 15.1022 165.504 15.0256C165.833 14.9491 166.087 14.815 166.267 14.6236C166.448 14.4321 166.522 14.1668 166.489 13.8277L166.144 10.4636C166.068 9.73607 166.166 9.21368 166.44 8.89641C166.719 8.57915 167.192 8.37128 167.859 8.27282C167.214 8.16342 166.749 7.93915 166.464 7.6C166.18 7.25538 166.073 6.73846 166.144 6.04923L166.489 2.68513C166.522 2.35145 166.448 2.08889 166.267 1.89744C166.087 1.70598 165.835 1.57197 165.513 1.49539C165.19 1.41333 164.826 1.37231 164.421 1.37231V0.289231Z" fill="var(--text-0)"/>
<path d="M233.687 359.16C233.687 359.496 233.743 359.741 233.855 359.896C233.967 360.051 234.14 360.165 234.375 360.24L234.047 361.184C233.684 361.136 233.367 361.021 233.095 360.84C232.823 360.653 232.626 360.373 232.503 360C232.199 360.389 231.82 360.685 231.367 360.888C230.914 361.085 230.412 361.184 229.863 361.184C229.02 361.184 228.356 360.947 227.871 360.472C227.386 359.997 227.143 359.368 227.143 358.584C227.143 357.715 227.482 357.048 228.159 356.584C228.836 356.12 229.815 355.888 231.095 355.888H232.335V355.184C232.335 354.576 232.156 354.147 231.799 353.896C231.447 353.64 230.956 353.512 230.327 353.512C230.05 353.512 229.724 353.547 229.351 353.616C228.978 353.68 228.572 353.789 228.135 353.944L227.783 352.928C228.3 352.736 228.786 352.6 229.239 352.52C229.692 352.44 230.124 352.4 230.535 352.4C231.586 352.4 232.372 352.645 232.895 353.136C233.423 353.621 233.687 354.283 233.687 355.12V359.16ZM230.207 360.16C230.623 360.16 231.02 360.056 231.399 359.848C231.778 359.635 232.09 359.341 232.335 358.968V356.8H231.119C230.191 356.8 229.535 356.96 229.151 357.28C228.772 357.6 228.583 358.029 228.583 358.568C228.583 359.091 228.716 359.488 228.983 359.76C229.255 360.027 229.663 360.16 230.207 360.16ZM244.273 352.576L241.209 361H239.649L236.609 352.576H238.033L240.473 359.776L242.881 352.576H244.273ZM252.874 359.16C252.874 359.496 252.93 359.741 253.042 359.896C253.154 360.051 253.328 360.165 253.562 360.24L253.234 361.184C252.872 361.136 252.554 361.021 252.282 360.84C252.01 360.653 251.813 360.373 251.69 360C251.386 360.389 251.008 360.685 250.554 360.888C250.101 361.085 249.6 361.184 249.05 361.184C248.208 361.184 247.544 360.947 247.058 360.472C246.573 359.997 246.33 359.368 246.33 358.584C246.33 357.715 246.669 357.048 247.346 356.584C248.024 356.12 249.002 355.888 250.282 355.888H251.522V355.184C251.522 354.576 251.344 354.147 250.986 353.896C250.634 353.64 250.144 353.512 249.514 353.512C249.237 353.512 248.912 353.547 248.538 353.616C248.165 353.68 247.76 353.789 247.322 353.944L246.97 352.928C247.488 352.736 247.973 352.6 248.426 352.52C248.88 352.44 249.312 352.4 249.722 352.4C250.773 352.4 251.56 352.645 252.082 353.136C252.61 353.621 252.874 354.283 252.874 355.12V359.16ZM249.394 360.16C249.81 360.16 250.208 360.056 250.586 359.848C250.965 359.635 251.277 359.341 251.522 358.968V356.8H250.306C249.378 356.8 248.722 356.96 248.338 357.28C247.96 357.6 247.77 358.029 247.77 358.568C247.77 359.091 247.904 359.488 248.17 359.76C248.442 360.027 248.85 360.16 249.394 360.16ZM260.7 352.576V359.936H263.076V361H256.756V359.936H259.356V353.64H256.836V352.576H260.7ZM259.628 348.632C259.927 348.632 260.164 348.723 260.34 348.904C260.521 349.085 260.612 349.307 260.612 349.568C260.612 349.84 260.521 350.069 260.34 350.256C260.164 350.437 259.927 350.528 259.628 350.528C259.345 350.528 259.113 350.437 258.932 350.256C258.751 350.069 258.66 349.84 258.66 349.568C258.66 349.307 258.751 349.085 258.932 348.904C259.113 348.723 259.345 348.632 259.628 348.632ZM269.31 349.184V358.92C269.31 359.336 269.438 359.632 269.694 359.808C269.955 359.979 270.291 360.064 270.702 360.064C270.958 360.064 271.201 360.037 271.43 359.984C271.659 359.931 271.889 359.859 272.118 359.768L272.478 360.752C272.249 360.864 271.963 360.963 271.622 361.048C271.286 361.139 270.905 361.184 270.478 361.184C269.731 361.184 269.126 360.979 268.662 360.568C268.198 360.152 267.966 359.579 267.966 358.848V350.248H265.382V349.184H269.31ZM281.656 359.16C281.656 359.496 281.712 359.741 281.824 359.896C281.936 360.051 282.109 360.165 282.344 360.24L282.016 361.184C281.653 361.136 281.336 361.021 281.064 360.84C280.792 360.653 280.594 360.373 280.472 360C280.168 360.389 279.789 360.685 279.336 360.888C278.882 361.085 278.381 361.184 277.832 361.184C276.989 361.184 276.325 360.947 275.84 360.472C275.354 359.997 275.112 359.368 275.112 358.584C275.112 357.715 275.45 357.048 276.128 356.584C276.805 356.12 277.784 355.888 279.064 355.888H280.304V355.184C280.304 354.576 280.125 354.147 279.768 353.896C279.416 353.64 278.925 353.512 278.296 353.512C278.018 353.512 277.693 353.547 277.32 353.616C276.946 353.68 276.541 353.789 276.104 353.944L275.752 352.928C276.269 352.736 276.754 352.6 277.208 352.52C277.661 352.44 278.093 352.4 278.504 352.4C279.554 352.4 280.341 352.645 280.864 353.136C281.392 353.621 281.656 354.283 281.656 355.12V359.16ZM278.176 360.16C278.592 360.16 278.989 360.056 279.368 359.848C279.746 359.635 280.058 359.341 280.304 358.968V356.8H279.088C278.16 356.8 277.504 356.96 277.12 357.28C276.741 357.6 276.552 358.029 276.552 358.568C276.552 359.091 276.685 359.488 276.952 359.76C277.224 360.027 277.632 360.16 278.176 360.16ZM286.561 353.672C286.871 353.267 287.225 352.955 287.625 352.736C288.031 352.512 288.476 352.4 288.961 352.4C289.713 352.4 290.321 352.581 290.785 352.944C291.249 353.307 291.588 353.819 291.801 354.48C292.015 355.136 292.121 355.904 292.121 356.784C292.121 357.632 291.993 358.389 291.737 359.056C291.481 359.717 291.105 360.237 290.609 360.616C290.119 360.995 289.511 361.184 288.785 361.184C287.809 361.184 287.044 360.832 286.489 360.128L286.393 361H285.217V349.184L286.561 349.016V353.672ZM288.465 360.096C289.169 360.096 289.711 359.824 290.089 359.28C290.468 358.736 290.657 357.901 290.657 356.776C290.657 356.04 290.583 355.429 290.433 354.944C290.284 354.453 290.06 354.088 289.761 353.848C289.468 353.603 289.105 353.48 288.673 353.48C288.204 353.48 287.791 353.621 287.433 353.904C287.081 354.181 286.791 354.491 286.561 354.832V359.008C286.78 359.339 287.055 359.603 287.385 359.8C287.721 359.997 288.081 360.096 288.465 360.096ZM298.091 349.184V358.92C298.091 359.336 298.219 359.632 298.475 359.808C298.736 359.979 299.072 360.064 299.483 360.064C299.739 360.064 299.982 360.037 300.211 359.984C300.44 359.931 300.67 359.859 300.899 359.768L301.259 360.752C301.03 360.864 300.744 360.963 300.403 361.048C300.067 361.139 299.686 361.184 299.259 361.184C298.512 361.184 297.907 360.979 297.443 360.568C296.979 360.152 296.747 359.579 296.747 358.848V350.248H294.163V349.184H298.091ZM305.461 357.264C305.488 357.915 305.613 358.448 305.837 358.864C306.061 359.275 306.357 359.579 306.725 359.776C307.093 359.968 307.493 360.064 307.925 360.064C308.357 360.064 308.746 360 309.093 359.872C309.445 359.744 309.805 359.555 310.173 359.304L310.805 360.192C310.41 360.501 309.96 360.744 309.453 360.92C308.952 361.096 308.437 361.184 307.909 361.184C307.093 361.184 306.397 361 305.821 360.632C305.245 360.264 304.805 359.752 304.501 359.096C304.202 358.435 304.053 357.669 304.053 356.8C304.053 355.947 304.205 355.189 304.509 354.528C304.813 353.867 305.24 353.347 305.789 352.968C306.338 352.589 306.986 352.4 307.733 352.4C308.442 352.4 309.053 352.568 309.565 352.904C310.077 353.235 310.469 353.709 310.741 354.328C311.018 354.941 311.157 355.675 311.157 356.528C311.157 356.672 311.154 356.808 311.149 356.936C311.144 357.059 311.136 357.168 311.125 357.264H305.461ZM307.749 353.504C307.125 353.504 306.602 353.725 306.181 354.168C305.765 354.611 305.528 355.296 305.469 356.224H309.861C309.845 355.323 309.648 354.645 309.269 354.192C308.89 353.733 308.384 353.504 307.749 353.504ZM329.832 361H327.928L326.84 354.816L325.656 361H323.8L322.264 352.576H323.64L324.712 360.168L326.056 353.648H327.648L328.92 360.168L329.992 352.576H331.304L329.832 361ZM337.45 352.576V359.936H339.826V361H333.506V359.936H336.106V353.64H333.586V352.576H337.45ZM336.378 348.632C336.677 348.632 336.914 348.723 337.09 348.904C337.271 349.085 337.362 349.307 337.362 349.568C337.362 349.84 337.271 350.069 337.09 350.256C336.914 350.437 336.677 350.528 336.378 350.528C336.095 350.528 335.863 350.437 335.682 350.256C335.501 350.069 335.41 349.84 335.41 349.568C335.41 349.307 335.501 349.085 335.682 348.904C335.863 348.723 336.095 348.632 336.378 348.632ZM347.82 349.016L349.164 349.184V361H347.988L347.86 359.888C347.545 360.336 347.183 360.664 346.772 360.872C346.367 361.08 345.932 361.184 345.468 361.184C344.737 361.184 344.135 361 343.66 360.632C343.185 360.264 342.833 359.752 342.604 359.096C342.375 358.435 342.26 357.669 342.26 356.8C342.26 355.957 342.391 355.205 342.652 354.544C342.913 353.877 343.289 353.355 343.78 352.976C344.276 352.592 344.871 352.4 345.564 352.4C346.049 352.4 346.476 352.485 346.844 352.656C347.212 352.821 347.537 353.067 347.82 353.392V349.016ZM345.916 353.48C345.212 353.48 344.671 353.755 344.292 354.304C343.913 354.853 343.724 355.685 343.724 356.8C343.724 357.525 343.801 358.133 343.956 358.624C344.111 359.115 344.337 359.483 344.636 359.728C344.94 359.973 345.311 360.096 345.748 360.096C346.228 360.096 346.636 359.96 346.972 359.688C347.313 359.416 347.596 359.109 347.82 358.768V354.56C347.591 354.219 347.313 353.955 346.988 353.768C346.663 353.576 346.305 353.48 345.916 353.48ZM359.062 360.576C358.774 360.768 358.424 360.917 358.014 361.024C357.603 361.131 357.2 361.184 356.806 361.184C355.899 361.184 355.2 360.947 354.71 360.472C354.219 359.997 353.974 359.387 353.974 358.64V353.616H352.038V352.576H353.974V350.664L355.318 350.504V352.576H358.23L358.07 353.616H355.318V358.624C355.318 359.093 355.44 359.451 355.686 359.696C355.936 359.941 356.35 360.064 356.926 360.064C357.24 360.064 357.531 360.027 357.798 359.952C358.064 359.877 358.312 359.781 358.542 359.664L359.062 360.576ZM363.311 349.056V353.728C363.642 353.285 364.047 352.955 364.527 352.736C365.013 352.512 365.503 352.4 365.999 352.4C366.821 352.4 367.421 352.619 367.799 353.056C368.178 353.493 368.367 354.101 368.367 354.88V361H367.023V354.912C367.023 354.405 366.906 354.037 366.671 353.808C366.437 353.573 366.069 353.456 365.567 353.456C365.247 353.456 364.943 353.528 364.655 353.672C364.367 353.816 364.109 353.995 363.879 354.208C363.65 354.421 363.461 354.64 363.311 354.864V361H361.967V349.2L363.311 349.056Z" fill="var(--text-0)"/>
<path d="M2 26L12 31.7735V20.2265L2 26ZM194 26L184 20.2265V31.7735L194 26ZM11 27H185V25H11V27Z" fill="var(--text-0)"/>
<path d="M2 376L12 381.774V370.226L2 376ZM600 376L590 370.226V381.774L600 376ZM11 377H591V375H11V377Z" fill="var(--text-0)"/>
<path d="M725 186V171L755.5 205.5L725 240V226H673V186L725 186Z" fill="var(--token-neutral-2)" stroke="var(--text-0)" stroke-linecap="round"/>
<path d="M663.791 110.36L660.648 119H659.048L655.93 110.36H657.391L659.893 117.745L662.363 110.36H663.791ZM669.704 106.315C670.011 106.315 670.254 106.408 670.435 106.594C670.621 106.78 670.714 107.007 670.714 107.275C670.714 107.554 670.621 107.789 670.435 107.981C670.254 108.166 670.011 108.259 669.704 108.259C669.414 108.259 669.176 108.166 668.99 107.981C668.804 107.789 668.712 107.554 668.712 107.275C668.712 107.007 668.804 106.78 668.99 106.594C669.176 106.408 669.414 106.315 669.704 106.315ZM670.804 110.36V117.909H673.241V119H666.759V117.909H669.425V111.451H666.841V110.36H670.804ZM677.357 115.168C677.396 116.169 677.658 116.899 678.145 117.359C678.637 117.813 679.217 118.04 679.884 118.04C680.328 118.04 680.727 117.974 681.082 117.843C681.438 117.712 681.807 117.518 682.19 117.261L682.838 118.171C682.439 118.489 681.98 118.737 681.46 118.918C680.94 119.098 680.41 119.189 679.868 119.189C679.026 119.189 678.309 119 677.718 118.623C677.133 118.245 676.684 117.72 676.373 117.047C676.066 116.369 675.913 115.584 675.913 114.692C675.913 113.817 676.066 113.04 676.373 112.362C676.684 111.684 677.122 111.15 677.686 110.762C678.254 110.374 678.922 110.179 679.688 110.179C680.776 110.179 681.632 110.557 682.256 111.312C682.885 112.067 683.199 113.101 683.199 114.413C683.199 114.561 683.194 114.701 683.183 114.832C683.177 114.963 683.172 115.075 683.167 115.168H677.357ZM679.704 111.312C679.064 111.312 678.528 111.539 678.096 111.993C677.664 112.447 677.42 113.15 677.366 114.102H681.87C681.854 113.177 681.651 112.482 681.263 112.017C680.875 111.547 680.355 111.312 679.704 111.312ZM692.518 119H690.565L689.449 112.657L688.235 119H686.331L684.756 110.36H686.167L687.267 118.147L688.645 111.459H690.278L691.583 118.147L692.682 110.36H694.028L692.518 119ZM699.826 110.179C700.592 110.179 701.202 110.365 701.656 110.737C702.116 111.109 702.447 111.635 702.649 112.313C702.851 112.986 702.952 113.773 702.952 114.676C702.952 115.546 702.829 116.322 702.583 117.006C702.343 117.684 701.976 118.218 701.484 118.606C700.991 118.995 700.371 119.189 699.621 119.189C698.675 119.189 697.915 118.855 697.34 118.188V122.307L695.962 122.479V110.36H697.135L697.25 111.566C697.567 111.123 697.945 110.781 698.382 110.541C698.82 110.3 699.301 110.179 699.826 110.179ZM699.498 111.287C699.022 111.287 698.601 111.432 698.235 111.722C697.868 112.006 697.57 112.324 697.34 112.674V116.957C697.564 117.291 697.846 117.556 698.185 117.753C698.53 117.944 698.907 118.04 699.318 118.04C700.034 118.04 700.573 117.766 700.934 117.219C701.295 116.672 701.476 115.822 701.476 114.668C701.476 112.414 700.816 111.287 699.498 111.287ZM709.096 110.179C710.316 110.179 711.237 110.587 711.861 111.402C712.484 112.217 712.796 113.308 712.796 114.676C712.796 115.557 712.654 116.336 712.37 117.014C712.085 117.693 711.667 118.226 711.114 118.614C710.562 118.997 709.883 119.189 709.079 119.189C707.859 119.189 706.935 118.778 706.306 117.958C705.677 117.137 705.362 116.049 705.362 114.692C705.362 113.806 705.505 113.024 705.789 112.346C706.074 111.662 706.492 111.131 707.044 110.754C707.602 110.371 708.286 110.179 709.096 110.179ZM709.096 111.304C708.352 111.304 707.788 111.58 707.405 112.132C707.028 112.685 706.839 113.538 706.839 114.692C706.839 115.836 707.025 116.683 707.397 117.236C707.775 117.783 708.335 118.056 709.079 118.056C709.823 118.056 710.381 117.78 710.753 117.228C711.131 116.675 711.319 115.825 711.319 114.676C711.319 113.527 711.133 112.679 710.761 112.132C710.389 111.58 709.834 111.304 709.096 111.304ZM715.731 119V117.942H717.077V111.418H715.731V110.36H718.127L718.382 112.403C718.715 111.692 719.12 111.142 719.596 110.754C720.072 110.365 720.701 110.171 721.483 110.171C721.724 110.171 721.937 110.19 722.123 110.229C722.315 110.262 722.509 110.305 722.706 110.36L722.509 113.281H721.376V111.443C721.355 111.443 721.33 111.443 721.303 111.443C719.979 111.443 719.03 112.389 718.455 114.282V117.942H720.211V119H715.731ZM732.352 118.565C732.057 118.762 731.699 118.915 731.278 119.025C730.856 119.134 730.443 119.189 730.039 119.189C729.109 119.189 728.392 118.945 727.889 118.458C727.386 117.972 727.134 117.345 727.134 116.579V111.427H725.148V110.36H727.134V108.399L728.512 108.235V110.36H731.499L731.335 111.427H728.512V116.563C728.512 117.044 728.638 117.411 728.89 117.663C729.147 117.914 729.571 118.04 730.162 118.04C730.484 118.04 730.783 118.002 731.056 117.925C731.33 117.849 731.584 117.75 731.819 117.63L732.352 118.565ZM758.109 115.644L757.617 116.76L748.624 112.764V111.443L757.617 107.439L758.109 108.555L750.027 112.099L758.109 115.644ZM757.806 119.451L757.322 120.567L748.321 116.571L748.805 115.505L757.806 119.451ZM624.891 127.521C625.602 127.521 626.217 127.65 626.737 127.907C627.256 128.164 627.656 128.506 627.935 128.932C628.219 129.359 628.361 129.829 628.361 130.344C628.361 130.803 628.26 131.219 628.058 131.591C627.855 131.957 627.587 132.261 627.254 132.502C626.92 132.742 626.553 132.901 626.154 132.977C626.597 133.01 627.013 133.136 627.401 133.355C627.795 133.568 628.112 133.875 628.353 134.274C628.599 134.673 628.722 135.163 628.722 135.743C628.722 136.394 628.558 136.982 628.23 137.507C627.902 138.026 627.442 138.437 626.852 138.737C626.266 139.038 625.582 139.189 624.8 139.189C624.166 139.189 623.537 139.068 622.913 138.828C622.29 138.587 621.762 138.204 621.33 137.679L622.257 136.924C622.579 137.302 622.962 137.583 623.405 137.769C623.854 137.955 624.308 138.048 624.767 138.048C625.555 138.048 626.171 137.843 626.614 137.433C627.057 137.017 627.278 136.454 627.278 135.743C627.278 134.938 627.054 134.381 626.605 134.069C626.162 133.757 625.607 133.601 624.94 133.601H623.988L624.16 132.51H624.825C625.191 132.51 625.536 132.439 625.859 132.296C626.187 132.154 626.455 131.938 626.663 131.648C626.871 131.358 626.975 130.989 626.975 130.541C626.975 129.917 626.767 129.441 626.351 129.113C625.935 128.785 625.432 128.621 624.841 128.621C624.349 128.621 623.92 128.708 623.553 128.883C623.187 129.053 622.817 129.312 622.445 129.663L621.682 128.817C622.164 128.363 622.675 128.035 623.217 127.833C623.758 127.625 624.316 127.521 624.891 127.521ZM644.398 129.507H645.792L645.686 132.83L648.804 131.722L649.222 133.018L646.047 133.954L648.073 136.579L646.974 137.384L645.095 134.643L643.216 137.384L642.116 136.579L644.143 133.954L640.968 133.018L641.386 131.722L644.504 132.83L644.398 129.507ZM670.417 134.463V133.265H676.661V134.463H670.417ZM662.745 134.463V133.265H668.989V134.463H662.745ZM688.056 138.565C687.76 138.762 687.402 138.915 686.981 139.025C686.56 139.134 686.147 139.189 685.742 139.189C684.812 139.189 684.095 138.945 683.592 138.458C683.089 137.972 682.837 137.345 682.837 136.579V131.427H680.851V130.36H682.837V128.399L684.216 128.235V130.36H687.202L687.038 131.427H684.216V136.563C684.216 137.044 684.341 137.411 684.593 137.663C684.85 137.914 685.274 138.04 685.865 138.04C686.188 138.04 686.486 138.002 686.759 137.925C687.033 137.849 687.287 137.75 687.522 137.63L688.056 138.565ZM692.418 126.75V131.542C692.757 131.093 693.173 130.754 693.665 130.524C694.163 130.294 694.667 130.179 695.175 130.179C696.018 130.179 696.633 130.404 697.021 130.852C697.41 131.301 697.604 131.924 697.604 132.723V139H696.225V132.756C696.225 132.236 696.105 131.859 695.864 131.624C695.624 131.383 695.246 131.263 694.732 131.263C694.404 131.263 694.092 131.336 693.797 131.484C693.501 131.632 693.236 131.815 693.001 132.034C692.766 132.253 692.571 132.477 692.418 132.707V139H691.04V126.897L692.418 126.75ZM700.966 139V137.942H702.311V131.418H700.966V130.36H703.362L703.616 132.403C703.95 131.692 704.354 131.142 704.83 130.754C705.306 130.365 705.935 130.171 706.717 130.171C706.958 130.171 707.171 130.19 707.357 130.229C707.549 130.262 707.743 130.305 707.94 130.36L707.743 133.281H706.611V131.443C706.589 131.443 706.564 131.443 706.537 131.443C705.213 131.443 704.264 132.389 703.69 134.282V137.942H705.446V139H700.966ZM711.81 135.168C711.849 136.169 712.111 136.899 712.598 137.359C713.09 137.813 713.67 138.04 714.338 138.04C714.781 138.04 715.18 137.974 715.536 137.843C715.891 137.712 716.26 137.518 716.643 137.261L717.291 138.171C716.892 138.489 716.433 138.737 715.913 138.918C715.393 139.098 714.863 139.189 714.321 139.189C713.479 139.189 712.762 139 712.171 138.623C711.586 138.245 711.138 137.72 710.826 137.047C710.519 136.369 710.366 135.584 710.366 134.692C710.366 133.817 710.519 133.04 710.826 132.362C711.138 131.684 711.575 131.15 712.139 130.762C712.708 130.374 713.375 130.179 714.141 130.179C715.229 130.179 716.085 130.557 716.709 131.312C717.338 132.067 717.652 133.101 717.652 134.413C717.652 134.561 717.647 134.701 717.636 134.832C717.631 134.963 717.625 135.075 717.62 135.168H711.81ZM714.157 131.312C713.517 131.312 712.981 131.539 712.549 131.993C712.117 132.447 711.873 133.15 711.819 134.102H716.323C716.307 133.177 716.104 132.482 715.716 132.017C715.328 131.547 714.808 131.312 714.157 131.312ZM723.509 138.048C724.176 138.048 724.701 137.925 725.084 137.679C725.467 137.433 725.658 137.099 725.658 136.678C725.658 136.421 725.609 136.197 725.511 136.005C725.418 135.814 725.223 135.641 724.928 135.488C724.633 135.33 724.179 135.174 723.566 135.021C722.97 134.873 722.45 134.703 722.007 134.512C721.569 134.315 721.228 134.061 720.981 133.749C720.741 133.437 720.62 133.032 720.62 132.534C720.62 131.807 720.924 131.232 721.531 130.811C722.138 130.39 722.929 130.179 723.902 130.179C724.597 130.179 725.202 130.272 725.716 130.458C726.235 130.644 726.676 130.869 727.037 131.131L726.43 132.067C726.107 131.842 725.746 131.659 725.346 131.517C724.953 131.369 724.477 131.295 723.919 131.295C723.241 131.295 722.759 131.402 722.475 131.615C722.19 131.823 722.048 132.094 722.048 132.428C722.048 132.685 722.116 132.898 722.253 133.068C722.395 133.232 722.633 133.379 722.967 133.511C723.301 133.642 723.76 133.787 724.345 133.946C724.909 134.099 725.401 134.279 725.822 134.487C726.244 134.695 726.569 134.969 726.799 135.308C727.034 135.641 727.152 136.076 727.152 136.612C727.152 137.225 726.977 137.723 726.626 138.106C726.276 138.483 725.822 138.759 725.264 138.934C724.712 139.104 724.127 139.189 723.509 139.189C722.726 139.189 722.059 139.077 721.506 138.852C720.959 138.623 720.5 138.346 720.128 138.024L720.916 137.113C721.255 137.392 721.643 137.619 722.081 137.794C722.524 137.963 723 138.048 723.509 138.048ZM731.793 126.75V131.542C732.132 131.093 732.548 130.754 733.04 130.524C733.538 130.294 734.042 130.179 734.55 130.179C735.393 130.179 736.008 130.404 736.396 130.852C736.785 131.301 736.979 131.924 736.979 132.723V139H735.6V132.756C735.6 132.236 735.48 131.859 735.239 131.624C734.999 131.383 734.621 131.263 734.107 131.263C733.779 131.263 733.467 131.336 733.172 131.484C732.876 131.632 732.611 131.815 732.376 132.034C732.141 132.253 731.946 132.477 731.793 132.707V139H730.415V126.897L731.793 126.75ZM743.549 130.179C744.769 130.179 745.69 130.587 746.314 131.402C746.938 132.217 747.249 133.308 747.249 134.676C747.249 135.557 747.107 136.336 746.823 137.014C746.538 137.693 746.12 138.226 745.567 138.614C745.015 138.997 744.337 139.189 743.532 139.189C742.313 139.189 741.388 138.778 740.759 137.958C740.13 137.137 739.816 136.049 739.816 134.692C739.816 133.806 739.958 133.024 740.242 132.346C740.527 131.662 740.945 131.131 741.498 130.754C742.056 130.371 742.739 130.179 743.549 130.179ZM743.549 131.304C742.805 131.304 742.242 131.58 741.859 132.132C741.481 132.685 741.292 133.538 741.292 134.692C741.292 135.836 741.478 136.683 741.85 137.236C742.228 137.783 742.789 138.056 743.532 138.056C744.276 138.056 744.834 137.78 745.206 137.228C745.584 136.675 745.772 135.825 745.772 134.676C745.772 133.527 745.586 132.679 745.215 132.132C744.843 131.58 744.287 131.304 743.549 131.304ZM753.466 126.881V136.867C753.466 137.293 753.598 137.597 753.86 137.777C754.128 137.952 754.473 138.04 754.894 138.04C755.151 138.04 755.397 138.013 755.633 137.958C755.873 137.903 756.111 137.829 756.346 137.736L756.716 138.746C756.48 138.861 756.188 138.962 755.838 139.049C755.493 139.142 755.102 139.189 754.664 139.189C753.899 139.189 753.278 138.978 752.802 138.557C752.326 138.13 752.088 137.542 752.088 136.793V127.972H749.438V126.881H753.466ZM765.115 126.709L766.494 126.881V139H765.288L765.156 137.859C764.834 138.319 764.462 138.655 764.04 138.869C763.625 139.082 763.179 139.189 762.703 139.189C761.954 139.189 761.336 139 760.849 138.623C760.362 138.245 760.001 137.72 759.766 137.047C759.53 136.369 759.413 135.584 759.413 134.692C759.413 133.828 759.547 133.057 759.815 132.378C760.083 131.695 760.468 131.159 760.972 130.77C761.48 130.376 762.09 130.179 762.801 130.179C763.759 130.179 764.53 130.519 765.115 131.197V126.709ZM763.163 131.287C762.44 131.287 761.885 131.569 761.497 132.132C761.108 132.696 760.914 133.549 760.914 134.692C760.914 136.946 761.606 138.073 762.99 138.073C763.477 138.073 763.896 137.936 764.246 137.663C764.596 137.384 764.886 137.066 765.115 136.711V132.395C764.88 132.045 764.596 131.774 764.262 131.583C763.928 131.386 763.562 131.287 763.163 131.287ZM769.773 134.463V133.265H776.354V134.463H769.773ZM785.394 125.289V126.372C784.994 126.372 784.631 126.413 784.302 126.495C783.98 126.572 783.728 126.706 783.547 126.897C783.367 127.089 783.293 127.351 783.326 127.685L783.671 131.049C783.742 131.738 783.643 132.253 783.375 132.592C783.113 132.931 782.7 133.152 782.136 133.256C782.711 133.36 783.129 133.574 783.392 133.896C783.654 134.214 783.747 134.736 783.671 135.464L783.326 138.828C783.293 139.167 783.367 139.432 783.547 139.624C783.728 139.815 783.98 139.949 784.302 140.026C784.625 140.102 784.989 140.141 785.394 140.141V141.224C784.781 141.224 784.207 141.15 783.671 141.002C783.134 140.854 782.713 140.595 782.407 140.223C782.101 139.856 781.986 139.336 782.062 138.664L782.391 135.546C782.434 135.174 782.399 134.859 782.284 134.602C782.174 134.339 781.934 134.143 781.562 134.011C781.195 133.875 780.646 133.806 779.913 133.806V132.707C780.646 132.707 781.195 132.641 781.562 132.51C781.934 132.378 782.174 132.184 782.284 131.927C782.399 131.67 782.434 131.356 782.391 130.984L782.062 127.849C781.991 127.176 782.106 126.657 782.407 126.29C782.713 125.918 783.134 125.658 783.671 125.511C784.207 125.363 784.781 125.289 785.394 125.289ZM791.2 137.827H796.009L795.828 139H789.51V137.958L794.302 131.558H789.888V130.36H795.959V131.427L791.2 137.827ZM800.109 125.289C800.721 125.289 801.296 125.363 801.832 125.511C802.368 125.658 802.789 125.918 803.095 126.29C803.402 126.657 803.517 127.176 803.44 127.849L803.112 130.984C803.052 131.542 803.197 131.968 803.547 132.264C803.897 132.559 804.578 132.707 805.59 132.707V133.806C804.583 133.806 803.902 133.957 803.547 134.257C803.197 134.558 803.052 134.988 803.112 135.546L803.44 138.664C803.511 139.336 803.394 139.856 803.087 140.223C802.786 140.595 802.368 140.854 801.832 141.002C801.296 141.15 800.721 141.224 800.109 141.224V140.141C800.508 140.141 800.869 140.102 801.192 140.026C801.52 139.949 801.774 139.815 801.955 139.624C802.135 139.432 802.209 139.167 802.176 138.828L801.832 135.464C801.755 134.736 801.854 134.214 802.127 133.896C802.406 133.579 802.879 133.371 803.547 133.273C802.901 133.163 802.436 132.939 802.152 132.6C801.867 132.255 801.761 131.738 801.832 131.049L802.176 127.685C802.209 127.351 802.135 127.089 801.955 126.897C801.774 126.706 801.523 126.572 801.2 126.495C800.877 126.413 800.514 126.372 800.109 126.372V125.289Z" fill="var(--text-0)"/>
</svg>
