<svg viewBox="0 0 1076 320" fill="none" xmlns="http://www.w3.org/2000/svg">
<line x1="1" y1="280" x2="1.00001" y2="28" stroke="var(--text-0)" stroke-width="2" stroke-dasharray="4 4"/>
<line x1="599" y1="280" x2="599" y2="28" stroke="var(--text-0)" stroke-width="2" stroke-dasharray="4 4"/>
<path d="M235.687 11.16C235.687 11.496 235.743 11.7413 235.855 11.896C235.967 12.0507 236.14 12.1653 236.375 12.24L236.047 13.184C235.684 13.136 235.367 13.0213 235.095 12.84C234.823 12.6533 234.626 12.3733 234.503 12C234.199 12.3893 233.82 12.6853 233.367 12.888C232.914 13.0853 232.412 13.184 231.863 13.184C231.02 13.184 230.356 12.9467 229.871 12.472C229.386 11.9973 229.143 11.368 229.143 10.584C229.143 9.71467 229.482 9.048 230.159 8.584C230.836 8.12 231.815 7.888 233.095 7.888H234.335V7.184C234.335 6.576 234.156 6.14667 233.799 5.896C233.447 5.64 232.956 5.512 232.327 5.512C232.05 5.512 231.724 5.54667 231.351 5.616C230.978 5.68 230.572 5.78933 230.135 5.944L229.783 4.928C230.3 4.736 230.786 4.6 231.239 4.52C231.692 4.44 232.124 4.4 232.535 4.4C233.586 4.4 234.372 4.64533 234.895 5.136C235.423 5.62133 235.687 6.28267 235.687 7.12V11.16ZM232.207 12.16C232.623 12.16 233.02 12.056 233.399 11.848C233.778 11.6347 234.09 11.3413 234.335 10.968V8.8H233.119C232.191 8.8 231.535 8.96 231.151 9.28C230.772 9.6 230.583 10.0293 230.583 10.568C230.583 11.0907 230.716 11.488 230.983 11.76C231.255 12.0267 231.663 12.16 232.207 12.16ZM246.273 4.576L243.209 13H241.649L238.609 4.576H240.033L242.473 11.776L244.881 4.576H246.273ZM254.874 11.16C254.874 11.496 254.93 11.7413 255.042 11.896C255.154 12.0507 255.328 12.1653 255.562 12.24L255.234 13.184C254.872 13.136 254.554 13.0213 254.282 12.84C254.01 12.6533 253.813 12.3733 253.69 12C253.386 12.3893 253.008 12.6853 252.554 12.888C252.101 13.0853 251.6 13.184 251.05 13.184C250.208 13.184 249.544 12.9467 249.058 12.472C248.573 11.9973 248.33 11.368 248.33 10.584C248.33 9.71467 248.669 9.048 249.346 8.584C250.024 8.12 251.002 7.888 252.282 7.888H253.522V7.184C253.522 6.576 253.344 6.14667 252.986 5.896C252.634 5.64 252.144 5.512 251.514 5.512C251.237 5.512 250.912 5.54667 250.538 5.616C250.165 5.68 249.76 5.78933 249.322 5.944L248.97 4.928C249.488 4.736 249.973 4.6 250.426 4.52C250.88 4.44 251.312 4.4 251.722 4.4C252.773 4.4 253.56 4.64533 254.082 5.136C254.61 5.62133 254.874 6.28267 254.874 7.12V11.16ZM251.394 12.16C251.81 12.16 252.208 12.056 252.586 11.848C252.965 11.6347 253.277 11.3413 253.522 10.968V8.8H252.306C251.378 8.8 250.722 8.96 250.338 9.28C249.96 9.6 249.77 10.0293 249.77 10.568C249.77 11.0907 249.904 11.488 250.17 11.76C250.442 12.0267 250.85 12.16 251.394 12.16ZM262.7 4.576V11.936H265.076V13H258.756V11.936H261.356V5.64H258.836V4.576H262.7ZM261.628 0.631999C261.927 0.631999 262.164 0.722666 262.34 0.903999C262.521 1.08533 262.612 1.30667 262.612 1.568C262.612 1.84 262.521 2.06933 262.34 2.256C262.164 2.43733 261.927 2.528 261.628 2.528C261.345 2.528 261.113 2.43733 260.932 2.256C260.751 2.06933 260.66 1.84 260.66 1.568C260.66 1.30667 260.751 1.08533 260.932 0.903999C261.113 0.722666 261.345 0.631999 261.628 0.631999ZM271.31 1.184V10.92C271.31 11.336 271.438 11.632 271.694 11.808C271.955 11.9787 272.291 12.064 272.702 12.064C272.958 12.064 273.201 12.0373 273.43 11.984C273.659 11.9307 273.889 11.8587 274.118 11.768L274.478 12.752C274.249 12.864 273.963 12.9627 273.622 13.048C273.286 13.1387 272.905 13.184 272.478 13.184C271.731 13.184 271.126 12.9787 270.662 12.568C270.198 12.152 269.966 11.5787 269.966 10.848V2.248H267.382V1.184H271.31ZM283.656 11.16C283.656 11.496 283.712 11.7413 283.824 11.896C283.936 12.0507 284.109 12.1653 284.344 12.24L284.016 13.184C283.653 13.136 283.336 13.0213 283.064 12.84C282.792 12.6533 282.594 12.3733 282.472 12C282.168 12.3893 281.789 12.6853 281.336 12.888C280.882 13.0853 280.381 13.184 279.832 13.184C278.989 13.184 278.325 12.9467 277.84 12.472C277.354 11.9973 277.112 11.368 277.112 10.584C277.112 9.71467 277.45 9.048 278.128 8.584C278.805 8.12 279.784 7.888 281.064 7.888H282.304V7.184C282.304 6.576 282.125 6.14667 281.768 5.896C281.416 5.64 280.925 5.512 280.296 5.512C280.018 5.512 279.693 5.54667 279.32 5.616C278.946 5.68 278.541 5.78933 278.104 5.944L277.752 4.928C278.269 4.736 278.754 4.6 279.208 4.52C279.661 4.44 280.093 4.4 280.504 4.4C281.554 4.4 282.341 4.64533 282.864 5.136C283.392 5.62133 283.656 6.28267 283.656 7.12V11.16ZM280.176 12.16C280.592 12.16 280.989 12.056 281.368 11.848C281.746 11.6347 282.058 11.3413 282.304 10.968V8.8H281.088C280.16 8.8 279.504 8.96 279.12 9.28C278.741 9.6 278.552 10.0293 278.552 10.568C278.552 11.0907 278.685 11.488 278.952 11.76C279.224 12.0267 279.632 12.16 280.176 12.16ZM288.561 5.672C288.871 5.26667 289.225 4.95467 289.625 4.736C290.031 4.512 290.476 4.4 290.961 4.4C291.713 4.4 292.321 4.58133 292.785 4.944C293.249 5.30667 293.588 5.81867 293.801 6.48C294.015 7.136 294.121 7.904 294.121 8.784C294.121 9.632 293.993 10.3893 293.737 11.056C293.481 11.7173 293.105 12.2373 292.609 12.616C292.119 12.9947 291.511 13.184 290.785 13.184C289.809 13.184 289.044 12.832 288.489 12.128L288.393 13H287.217V1.184L288.561 1.016V5.672ZM290.465 12.096C291.169 12.096 291.711 11.824 292.089 11.28C292.468 10.736 292.657 9.90133 292.657 8.776C292.657 8.04 292.583 7.42933 292.433 6.944C292.284 6.45333 292.06 6.088 291.761 5.848C291.468 5.60267 291.105 5.48 290.673 5.48C290.204 5.48 289.791 5.62133 289.433 5.904C289.081 6.18133 288.791 6.49067 288.561 6.832V11.008C288.78 11.3387 289.055 11.6027 289.385 11.8C289.721 11.9973 290.081 12.096 290.465 12.096ZM300.091 1.184V10.92C300.091 11.336 300.219 11.632 300.475 11.808C300.736 11.9787 301.072 12.064 301.483 12.064C301.739 12.064 301.982 12.0373 302.211 11.984C302.44 11.9307 302.67 11.8587 302.899 11.768L303.259 12.752C303.03 12.864 302.744 12.9627 302.403 13.048C302.067 13.1387 301.686 13.184 301.259 13.184C300.512 13.184 299.907 12.9787 299.443 12.568C298.979 12.152 298.747 11.5787 298.747 10.848V2.248H296.163V1.184H300.091ZM307.461 9.264C307.488 9.91467 307.613 10.448 307.837 10.864C308.061 11.2747 308.357 11.5787 308.725 11.776C309.093 11.968 309.493 12.064 309.925 12.064C310.357 12.064 310.746 12 311.093 11.872C311.445 11.744 311.805 11.5547 312.173 11.304L312.805 12.192C312.41 12.5013 311.96 12.744 311.453 12.92C310.952 13.096 310.437 13.184 309.909 13.184C309.093 13.184 308.397 13 307.821 12.632C307.245 12.264 306.805 11.752 306.501 11.096C306.202 10.4347 306.053 9.66933 306.053 8.8C306.053 7.94667 306.205 7.18933 306.509 6.528C306.813 5.86667 307.24 5.34667 307.789 4.968C308.338 4.58933 308.986 4.4 309.733 4.4C310.442 4.4 311.053 4.568 311.565 4.904C312.077 5.23467 312.469 5.70933 312.741 6.328C313.018 6.94133 313.157 7.67467 313.157 8.528C313.157 8.672 313.154 8.808 313.149 8.936C313.144 9.05867 313.136 9.168 313.125 9.264H307.461ZM309.749 5.504C309.125 5.504 308.602 5.72533 308.181 6.168C307.765 6.61067 307.528 7.296 307.469 8.224H311.861C311.845 7.32267 311.648 6.64533 311.269 6.192C310.89 5.73333 310.384 5.504 309.749 5.504ZM331.832 13H329.928L328.84 6.816L327.656 13H325.8L324.264 4.576H325.64L326.712 12.168L328.056 5.648H329.648L330.92 12.168L331.992 4.576H333.304L331.832 13ZM339.45 4.576V11.936H341.826V13H335.506V11.936H338.106V5.64H335.586V4.576H339.45ZM338.378 0.631999C338.677 0.631999 338.914 0.722666 339.09 0.903999C339.271 1.08533 339.362 1.30667 339.362 1.568C339.362 1.84 339.271 2.06933 339.09 2.256C338.914 2.43733 338.677 2.528 338.378 2.528C338.095 2.528 337.863 2.43733 337.682 2.256C337.501 2.06933 337.41 1.84 337.41 1.568C337.41 1.30667 337.501 1.08533 337.682 0.903999C337.863 0.722666 338.095 0.631999 338.378 0.631999ZM349.82 1.016L351.164 1.184V13H349.988L349.86 11.888C349.545 12.336 349.183 12.664 348.772 12.872C348.367 13.08 347.932 13.184 347.468 13.184C346.737 13.184 346.135 13 345.66 12.632C345.185 12.264 344.833 11.752 344.604 11.096C344.375 10.4347 344.26 9.66933 344.26 8.8C344.26 7.95733 344.391 7.20533 344.652 6.544C344.913 5.87733 345.289 5.35467 345.78 4.976C346.276 4.592 346.871 4.4 347.564 4.4C348.049 4.4 348.476 4.48533 348.844 4.656C349.212 4.82133 349.537 5.06667 349.82 5.392V1.016ZM347.916 5.48C347.212 5.48 346.671 5.75467 346.292 6.304C345.913 6.85333 345.724 7.68533 345.724 8.8C345.724 9.52533 345.801 10.1333 345.956 10.624C346.111 11.1147 346.337 11.4827 346.636 11.728C346.94 11.9733 347.311 12.096 347.748 12.096C348.228 12.096 348.636 11.96 348.972 11.688C349.313 11.416 349.596 11.1093 349.82 10.768V6.56C349.591 6.21867 349.313 5.95467 348.988 5.768C348.663 5.576 348.305 5.48 347.916 5.48ZM361.062 12.576C360.774 12.768 360.424 12.9173 360.014 13.024C359.603 13.1307 359.2 13.184 358.806 13.184C357.899 13.184 357.2 12.9467 356.71 12.472C356.219 11.9973 355.974 11.3867 355.974 10.64V5.616H354.038V4.576H355.974V2.664L357.318 2.504V4.576H360.23L360.07 5.616H357.318V10.624C357.318 11.0933 357.44 11.4507 357.686 11.696C357.936 11.9413 358.35 12.064 358.926 12.064C359.24 12.064 359.531 12.0267 359.798 11.952C360.064 11.8773 360.312 11.7813 360.542 11.664L361.062 12.576ZM365.311 1.056V5.728C365.642 5.28533 366.047 4.95467 366.527 4.736C367.013 4.512 367.503 4.4 367.999 4.4C368.821 4.4 369.421 4.61867 369.799 5.056C370.178 5.49333 370.367 6.10133 370.367 6.88V13H369.023V6.912C369.023 6.40533 368.906 6.03733 368.671 5.808C368.437 5.57333 368.069 5.456 367.567 5.456C367.247 5.456 366.943 5.528 366.655 5.672C366.367 5.816 366.109 5.99467 365.879 6.208C365.65 6.42133 365.461 6.64 365.311 6.864V13H363.967V1.2L365.311 1.056Z" fill="var(--text-0)"/>
<path d="M2 28L12 33.7735V22.2265L2 28ZM600 28L590 22.2265V33.7735L600 28ZM11 29H591V27H11V29Z" fill="var(--text-0)"/>
<path d="M725 150V135L755.5 169.5L725 204V190H673V150L725 150Z" fill="var(--token-neutral-2)" stroke="var(--text-0)" stroke-linecap="round"/>
<path d="M663.791 87.36L660.648 96H659.048L655.93 87.36H657.391L659.893 94.7446L662.363 87.36H663.791ZM669.704 83.3149C670.011 83.3149 670.254 83.4079 670.435 83.5938C670.621 83.7798 670.714 84.0068 670.714 84.2749C670.714 84.5538 670.621 84.7891 670.435 84.9805C670.254 85.1665 670.011 85.2595 669.704 85.2595C669.414 85.2595 669.176 85.1665 668.99 84.9805C668.804 84.7891 668.712 84.5538 668.712 84.2749C668.712 84.0068 668.804 83.7798 668.99 83.5938C669.176 83.4079 669.414 83.3149 669.704 83.3149ZM670.804 87.36V94.9087H673.241V96H666.759V94.9087H669.425V88.4513H666.841V87.36H670.804ZM677.357 92.1682C677.396 93.1692 677.658 93.8995 678.145 94.359C678.637 94.813 679.217 95.04 679.884 95.04C680.328 95.04 680.727 94.9744 681.082 94.8431C681.438 94.7118 681.807 94.5176 682.19 94.2605L682.838 95.1713C682.439 95.4885 681.98 95.7374 681.46 95.9179C680.94 96.0985 680.41 96.1887 679.868 96.1887C679.026 96.1887 678.309 96 677.718 95.6226C677.133 95.2451 676.684 94.72 676.373 94.0472C676.066 93.3689 675.913 92.5839 675.913 91.6923C675.913 90.8171 676.066 90.0403 676.373 89.3621C676.684 88.6838 677.122 88.1504 677.686 87.7621C678.254 87.3737 678.922 87.1795 679.688 87.1795C680.776 87.1795 681.632 87.5569 682.256 88.3118C682.885 89.0667 683.199 90.1005 683.199 91.4133C683.199 91.561 683.194 91.7005 683.183 91.8318C683.177 91.9631 683.172 92.0752 683.167 92.1682H677.357ZM679.704 88.3118C679.064 88.3118 678.528 88.5388 678.096 88.9928C677.664 89.4468 677.42 90.1497 677.366 91.1015H681.87C681.854 90.1771 681.651 89.4824 681.263 89.0174C680.875 88.547 680.355 88.3118 679.704 88.3118ZM692.518 96H690.565L689.449 89.6574L688.235 96H686.331L684.756 87.36H686.167L687.267 95.1467L688.645 88.4595H690.278L691.583 95.1467L692.682 87.36H694.028L692.518 96ZM699.826 87.1795C700.592 87.1795 701.202 87.3655 701.656 87.7374C702.116 88.1094 702.447 88.6345 702.649 89.3128C702.851 89.9856 702.952 90.7733 702.952 91.6759C702.952 92.5456 702.829 93.3224 702.583 94.0062C702.343 94.6844 701.976 95.2178 701.484 95.6062C700.991 95.9945 700.371 96.1887 699.621 96.1887C698.675 96.1887 697.915 95.855 697.34 95.1877V99.3067L695.962 99.479V87.36H697.135L697.25 88.5662C697.567 88.1231 697.945 87.7812 698.382 87.5405C698.82 87.2998 699.301 87.1795 699.826 87.1795ZM699.498 88.2872C699.022 88.2872 698.601 88.4321 698.235 88.7221C697.868 89.0065 697.57 89.3238 697.34 89.6738V93.9569C697.564 94.2906 697.846 94.5559 698.185 94.7528C698.53 94.9443 698.907 95.04 699.318 95.04C700.034 95.04 700.573 94.7665 700.934 94.2195C701.295 93.6725 701.476 92.8219 701.476 91.6677C701.476 89.414 700.816 88.2872 699.498 88.2872ZM709.096 87.1795C710.316 87.1795 711.237 87.587 711.861 88.4021C712.484 89.2171 712.796 90.3084 712.796 91.6759C712.796 92.5566 712.654 93.3361 712.37 94.0144C712.085 94.6926 711.667 95.226 711.114 95.6144C710.562 95.9973 709.883 96.1887 709.079 96.1887C707.859 96.1887 706.935 95.7785 706.306 94.9579C705.677 94.1374 705.362 93.0489 705.362 91.6923C705.362 90.8062 705.505 90.0239 705.789 89.3456C706.074 88.6619 706.492 88.1313 707.044 87.7538C707.602 87.3709 708.286 87.1795 709.096 87.1795ZM709.096 88.3036C708.352 88.3036 707.788 88.5798 707.405 89.1323C707.028 89.6848 706.839 90.5381 706.839 91.6923C706.839 92.8356 707.025 93.6834 707.397 94.2359C707.775 94.7829 708.335 95.0564 709.079 95.0564C709.823 95.0564 710.381 94.7802 710.753 94.2277C711.131 93.6752 711.319 92.8246 711.319 91.6759C711.319 90.5272 711.133 89.6793 710.761 89.1323C710.389 88.5798 709.834 88.3036 709.096 88.3036ZM715.731 96V94.9415H717.077V88.4185H715.731V87.36H718.127L718.382 89.4031C718.715 88.692 719.12 88.1422 719.596 87.7538C720.072 87.3655 720.701 87.1713 721.483 87.1713C721.724 87.1713 721.937 87.1904 722.123 87.2287C722.315 87.2615 722.509 87.3053 722.706 87.36L722.509 90.281H721.376V88.4431C721.355 88.4431 721.33 88.4431 721.303 88.4431C719.979 88.4431 719.03 89.3894 718.455 91.2821V94.9415H720.211V96H715.731ZM732.352 95.5651C732.057 95.7621 731.699 95.9152 731.278 96.0246C730.856 96.134 730.443 96.1887 730.039 96.1887C729.109 96.1887 728.392 95.9453 727.889 95.4585C727.386 94.9716 727.134 94.3453 727.134 93.5795V88.4267H725.148V87.36H727.134V85.399L728.512 85.2349V87.36H731.499L731.335 88.4267H728.512V93.5631C728.512 94.0444 728.638 94.4109 728.89 94.6626C729.147 94.9142 729.571 95.04 730.162 95.04C730.484 95.04 730.783 95.0017 731.056 94.9251C731.33 94.8485 731.584 94.7501 731.819 94.6297L732.352 95.5651ZM758.109 92.6441L757.617 93.76L748.624 89.7641V88.4431L757.617 84.439L758.109 85.5549L750.027 89.0995L758.109 92.6441ZM757.806 96.4513L757.322 97.5672L748.321 93.5713L748.805 92.5046L757.806 96.4513ZM650.729 111.463V110.265H656.974V111.463H650.729ZM643.058 111.463V110.265H649.302V111.463H643.058ZM668.368 115.565C668.073 115.762 667.714 115.915 667.293 116.025C666.872 116.134 666.459 116.189 666.054 116.189C665.124 116.189 664.408 115.945 663.905 115.458C663.401 114.972 663.15 114.345 663.15 113.579V108.427H661.164V107.36H663.15V105.399L664.528 105.235V107.36H667.515L667.351 108.427H664.528V113.563C664.528 114.044 664.654 114.411 664.906 114.663C665.163 114.914 665.587 115.04 666.177 115.04C666.5 115.04 666.798 115.002 667.072 114.925C667.345 114.849 667.6 114.75 667.835 114.63L668.368 115.565ZM672.731 103.75V108.542C673.07 108.093 673.486 107.754 673.978 107.524C674.476 107.294 674.979 107.179 675.488 107.179C676.33 107.179 676.946 107.404 677.334 107.852C677.722 108.301 677.916 108.924 677.916 109.723V116H676.538V109.756C676.538 109.236 676.418 108.859 676.177 108.624C675.936 108.383 675.559 108.263 675.045 108.263C674.716 108.263 674.405 108.336 674.109 108.484C673.814 108.632 673.549 108.815 673.313 109.034C673.078 109.253 672.884 109.477 672.731 109.707V116H671.352V103.897L672.731 103.75ZM681.278 116V114.942H682.624V108.418H681.278V107.36H683.674L683.928 109.403C684.262 108.692 684.667 108.142 685.143 107.754C685.619 107.365 686.248 107.171 687.03 107.171C687.271 107.171 687.484 107.19 687.67 107.229C687.861 107.262 688.056 107.305 688.253 107.36L688.056 110.281H686.923V108.443C686.901 108.443 686.877 108.443 686.849 108.443C685.526 108.443 684.577 109.389 684.002 111.282V114.942H685.758V116H681.278ZM692.123 112.168C692.161 113.169 692.424 113.899 692.911 114.359C693.403 114.813 693.983 115.04 694.65 115.04C695.093 115.04 695.493 114.974 695.848 114.843C696.204 114.712 696.573 114.518 696.956 114.261L697.604 115.171C697.205 115.489 696.745 115.737 696.225 115.918C695.706 116.098 695.175 116.189 694.634 116.189C693.791 116.189 693.075 116 692.484 115.623C691.899 115.245 691.45 114.72 691.138 114.047C690.832 113.369 690.679 112.584 690.679 111.692C690.679 110.817 690.832 110.04 691.138 109.362C691.45 108.684 691.888 108.15 692.451 107.762C693.02 107.374 693.687 107.179 694.453 107.179C695.542 107.179 696.398 107.557 697.021 108.312C697.65 109.067 697.965 110.101 697.965 111.413C697.965 111.561 697.96 111.701 697.949 111.832C697.943 111.963 697.938 112.075 697.932 112.168H692.123ZM694.47 108.312C693.83 108.312 693.294 108.539 692.861 108.993C692.429 109.447 692.186 110.15 692.131 111.102H696.636C696.619 110.177 696.417 109.482 696.029 109.017C695.64 108.547 695.121 108.312 694.47 108.312ZM703.821 115.048C704.488 115.048 705.014 114.925 705.396 114.679C705.779 114.433 705.971 114.099 705.971 113.678C705.971 113.421 705.922 113.197 705.823 113.005C705.73 112.814 705.536 112.641 705.241 112.488C704.945 112.33 704.491 112.174 703.878 112.021C703.282 111.873 702.763 111.703 702.32 111.512C701.882 111.315 701.54 111.061 701.294 110.749C701.053 110.437 700.933 110.032 700.933 109.534C700.933 108.807 701.236 108.232 701.844 107.811C702.451 107.39 703.241 107.179 704.215 107.179C704.91 107.179 705.514 107.272 706.028 107.458C706.548 107.644 706.988 107.869 707.349 108.131L706.742 109.067C706.419 108.842 706.058 108.659 705.659 108.517C705.265 108.369 704.789 108.295 704.231 108.295C703.553 108.295 703.072 108.402 702.787 108.615C702.503 108.823 702.361 109.094 702.361 109.428C702.361 109.685 702.429 109.898 702.566 110.068C702.708 110.232 702.946 110.379 703.28 110.511C703.613 110.642 704.073 110.787 704.658 110.946C705.221 111.099 705.714 111.279 706.135 111.487C706.556 111.695 706.882 111.969 707.111 112.308C707.347 112.641 707.464 113.076 707.464 113.612C707.464 114.225 707.289 114.723 706.939 115.106C706.589 115.483 706.135 115.759 705.577 115.934C705.024 116.104 704.439 116.189 703.821 116.189C703.039 116.189 702.371 116.077 701.819 115.852C701.272 115.623 700.812 115.346 700.441 115.024L701.228 114.113C701.567 114.392 701.956 114.619 702.393 114.794C702.836 114.963 703.312 115.048 703.821 115.048ZM712.106 103.75V108.542C712.445 108.093 712.861 107.754 713.353 107.524C713.851 107.294 714.354 107.179 714.863 107.179C715.705 107.179 716.321 107.404 716.709 107.852C717.097 108.301 717.291 108.924 717.291 109.723V116H715.913V109.756C715.913 109.236 715.793 108.859 715.552 108.624C715.311 108.383 714.934 108.263 714.42 108.263C714.091 108.263 713.78 108.336 713.484 108.484C713.189 108.632 712.924 108.815 712.688 109.034C712.453 109.253 712.259 109.477 712.106 109.707V116H710.727V103.897L712.106 103.75ZM723.861 107.179C725.081 107.179 726.003 107.587 726.626 108.402C727.25 109.217 727.562 110.308 727.562 111.676C727.562 112.557 727.42 113.336 727.135 114.014C726.851 114.693 726.432 115.226 725.88 115.614C725.327 115.997 724.649 116.189 723.845 116.189C722.625 116.189 721.701 115.778 721.072 114.958C720.443 114.137 720.128 113.049 720.128 111.692C720.128 110.806 720.27 110.024 720.555 109.346C720.839 108.662 721.258 108.131 721.81 107.754C722.368 107.371 723.052 107.179 723.861 107.179ZM723.861 108.304C723.117 108.304 722.554 108.58 722.171 109.132C721.794 109.685 721.605 110.538 721.605 111.692C721.605 112.836 721.791 113.683 722.163 114.236C722.54 114.783 723.101 115.056 723.845 115.056C724.589 115.056 725.147 114.78 725.519 114.228C725.896 113.675 726.085 112.825 726.085 111.676C726.085 110.527 725.899 109.679 725.527 109.132C725.155 108.58 724.6 108.304 723.861 108.304ZM733.779 103.881V113.867C733.779 114.293 733.91 114.597 734.173 114.777C734.441 114.952 734.785 115.04 735.207 115.04C735.464 115.04 735.71 115.013 735.945 114.958C736.186 114.903 736.424 114.829 736.659 114.736L737.028 115.746C736.793 115.861 736.5 115.962 736.15 116.049C735.806 116.142 735.415 116.189 734.977 116.189C734.211 116.189 733.59 115.978 733.114 115.557C732.638 115.13 732.4 114.542 732.4 113.793V104.972H729.75V103.881H733.779ZM745.428 103.709L746.806 103.881V116H745.6L745.469 114.859C745.146 115.319 744.774 115.655 744.353 115.869C743.937 116.082 743.491 116.189 743.016 116.189C742.266 116.189 741.648 116 741.161 115.623C740.674 115.245 740.313 114.72 740.078 114.047C739.843 113.369 739.725 112.584 739.725 111.692C739.725 110.828 739.859 110.057 740.127 109.378C740.395 108.695 740.781 108.159 741.284 107.77C741.793 107.376 742.403 107.179 743.114 107.179C744.071 107.179 744.843 107.519 745.428 108.197V103.709ZM743.475 108.287C742.753 108.287 742.198 108.569 741.809 109.132C741.421 109.696 741.227 110.549 741.227 111.692C741.227 113.946 741.919 115.073 743.303 115.073C743.79 115.073 744.208 114.936 744.558 114.663C744.908 114.384 745.198 114.066 745.428 113.711V109.395C745.193 109.045 744.908 108.774 744.575 108.583C744.241 108.386 743.874 108.287 743.475 108.287ZM750.086 111.463V110.265H756.666V111.463H750.086ZM765.706 102.289V103.372C765.307 103.372 764.943 103.413 764.615 103.495C764.292 103.572 764.04 103.706 763.86 103.897C763.679 104.089 763.606 104.351 763.638 104.685L763.983 108.049C764.054 108.738 763.956 109.253 763.688 109.592C763.425 109.931 763.012 110.152 762.449 110.256C763.023 110.36 763.441 110.574 763.704 110.896C763.967 111.214 764.06 111.736 763.983 112.464L763.638 115.828C763.606 116.167 763.679 116.432 763.86 116.624C764.04 116.815 764.292 116.949 764.615 117.026C764.938 117.102 765.301 117.141 765.706 117.141V118.224C765.093 118.224 764.519 118.15 763.983 118.002C763.447 117.854 763.026 117.595 762.719 117.223C762.413 116.856 762.298 116.336 762.375 115.664L762.703 112.546C762.747 112.174 762.711 111.859 762.596 111.602C762.487 111.339 762.246 111.143 761.874 111.011C761.508 110.875 760.958 110.806 760.225 110.806V109.707C760.958 109.707 761.508 109.641 761.874 109.51C762.246 109.378 762.487 109.184 762.596 108.927C762.711 108.67 762.747 108.356 762.703 107.984L762.375 104.849C762.304 104.176 762.419 103.657 762.719 103.29C763.026 102.918 763.447 102.658 763.983 102.511C764.519 102.363 765.093 102.289 765.706 102.289ZM771.513 114.827H776.321L776.141 116H769.823V114.958L774.614 108.558H770.2V107.36H776.272V108.427L771.513 114.827ZM780.421 102.289C781.034 102.289 781.608 102.363 782.144 102.511C782.68 102.658 783.102 102.918 783.408 103.29C783.714 103.657 783.829 104.176 783.753 104.849L783.424 107.984C783.364 108.542 783.509 108.968 783.859 109.264C784.209 109.559 784.89 109.707 785.902 109.707V110.806C784.896 110.806 784.215 110.957 783.859 111.257C783.509 111.558 783.364 111.988 783.424 112.546L783.753 115.664C783.824 116.336 783.706 116.856 783.4 117.223C783.099 117.595 782.68 117.854 782.144 118.002C781.608 118.15 781.034 118.224 780.421 118.224V117.141C780.821 117.141 781.182 117.102 781.504 117.026C781.833 116.949 782.087 116.815 782.267 116.624C782.448 116.432 782.522 116.167 782.489 115.828L782.144 112.464C782.068 111.736 782.166 111.214 782.44 110.896C782.719 110.579 783.192 110.371 783.859 110.273C783.214 110.163 782.749 109.939 782.464 109.6C782.18 109.255 782.073 108.738 782.144 108.049L782.489 104.685C782.522 104.351 782.448 104.089 782.267 103.897C782.087 103.706 781.835 103.572 781.513 103.495C781.19 103.413 780.826 103.372 780.421 103.372V102.289Z" fill="var(--text-0)"/>
<rect x="827" y="81" width="248" height="48" rx="15" fill="var(--token-neutral-2)" stroke="var(--text-0)" stroke-width="2"/>
<rect x="827" y="146" width="248" height="48" rx="15" fill="var(--token-neutral-2)" stroke="var(--text-0)" stroke-width="2"/>
<rect x="827" y="211" width="248" height="48" rx="15" fill="var(--token-neutral-2)" stroke="var(--text-0)" stroke-width="2"/>
<rect x="1" y="71" width="186" height="248" rx="15" fill="var(--token-neutral-2)" stroke="var(--text-0)" stroke-width="2"/>
<rect x="207" y="71" width="186" height="248" rx="15" fill="var(--token-neutral-2)" stroke="var(--text-0)" stroke-width="2"/>
<rect x="413" y="71" width="186" height="248" rx="15" fill="var(--token-neutral-2)" stroke="var(--text-0)" stroke-width="2"/>
</svg>
