<svg viewBox="0 0 1187 370" fill="none" xmlns="http://www.w3.org/2000/svg">
<path d="M709 109V94L739.5 128.5L709 163V149H657V109L709 109Z" fill="var(--token-neutral-2)" stroke="var(--text-0)" stroke-linecap="round"/>
<line x1="1" y1="150" x2="1.00001" y2="24" stroke="var(--text-0)" stroke-width="2" stroke-dasharray="4 4"/>
<line x1="154" y1="255" x2="154" y2="129" stroke="var(--text-0)" stroke-width="2" stroke-dasharray="4 4"/>
<line x1="1" y1="255" x2="1.00001" y2="129" stroke="var(--text-0)" stroke-width="2" stroke-dasharray="4 4"/>
<line x1="601" y1="150" x2="601" y2="24" stroke="var(--text-0)" stroke-width="2" stroke-dasharray="4 4"/>
<path d="M195.468 0.808C196.161 0.808 196.759 0.933333 197.26 1.184C197.767 1.42933 198.159 1.76267 198.436 2.184C198.713 2.6 198.852 3.05867 198.852 3.56C198.852 4.00267 198.753 4.40533 198.556 4.768C198.359 5.13067 198.097 5.42933 197.772 5.664C197.447 5.89867 197.089 6.05333 196.7 6.128C197.132 6.16 197.537 6.28267 197.916 6.496C198.295 6.704 198.604 7.00267 198.844 7.392C199.084 7.776 199.204 8.25333 199.204 8.824C199.204 9.45867 199.044 10.032 198.724 10.544C198.404 11.0507 197.956 11.4507 197.38 11.744C196.809 12.0373 196.143 12.184 195.38 12.184C194.767 12.184 194.153 12.0667 193.54 11.832C192.932 11.5973 192.417 11.224 191.996 10.712L192.9 9.976C193.215 10.344 193.588 10.6187 194.02 10.8C194.457 10.9813 194.9 11.072 195.348 11.072C196.116 11.072 196.716 10.872 197.148 10.472C197.58 10.0667 197.796 9.51733 197.796 8.824C197.796 8.30133 197.695 7.888 197.492 7.584C197.295 7.28 197.025 7.064 196.684 6.936C196.343 6.80267 195.953 6.736 195.516 6.736H194.588L194.756 5.672H195.404C195.761 5.672 196.097 5.60533 196.412 5.472C196.732 5.33333 196.993 5.12 197.196 4.832C197.399 4.544 197.5 4.184 197.5 3.752C197.5 3.144 197.297 2.68 196.892 2.36C196.487 2.04 195.996 1.88 195.42 1.88C194.94 1.88 194.521 1.96533 194.164 2.136C193.807 2.30133 193.447 2.55467 193.084 2.896L192.34 2.072C192.809 1.62933 193.308 1.30933 193.836 1.112C194.364 0.909333 194.908 0.808 195.468 0.808ZM214.479 2.744H215.839L215.735 5.984L218.775 4.904L219.183 6.168L216.087 7.08L218.063 9.64L216.991 10.424L215.159 7.752L213.327 10.424L212.255 9.64L214.231 7.08L211.135 6.168L211.543 4.904L214.583 5.984L214.479 2.744ZM232.835 10.856H237.523L237.347 12H231.187V10.984L235.859 4.744H231.555V3.576H237.475V4.616L232.835 10.856ZM262.944 8.728L262.464 9.816L253.696 5.92L254.168 4.88L262.944 8.728ZM262.648 12.44L262.176 13.528L253.4 9.632L253.872 8.592L262.648 12.44ZM262.944 1.816L254.168 5.672L253.696 5.92V4.632L262.464 0.728L262.944 1.816ZM281.988 11.072C282.633 11.072 283.142 10.952 283.516 10.712C283.894 10.4667 284.084 10.1413 284.084 9.736C284.084 9.48 284.036 9.25867 283.94 9.072C283.849 8.88533 283.66 8.71733 283.372 8.568C283.084 8.41867 282.641 8.26933 282.044 8.12C281.462 7.976 280.956 7.81067 280.524 7.624C280.097 7.432 279.764 7.184 279.524 6.88C279.289 6.576 279.172 6.18133 279.172 5.696C279.172 5.22133 279.305 4.81333 279.572 4.472C279.844 4.12533 280.22 3.86133 280.7 3.68C281.18 3.49333 281.737 3.4 282.372 3.4C283.049 3.4 283.638 3.49067 284.14 3.672C284.646 3.848 285.076 4.06667 285.428 4.328L284.836 5.24C284.516 5.02133 284.164 4.84267 283.78 4.704C283.396 4.56 282.932 4.488 282.388 4.488C281.726 4.488 281.257 4.592 280.98 4.8C280.702 5.00267 280.564 5.26667 280.564 5.592C280.564 5.83733 280.63 6.04267 280.764 6.208C280.902 6.368 281.134 6.51467 281.46 6.648C281.785 6.776 282.233 6.91733 282.804 7.072C283.353 7.216 283.83 7.38933 284.236 7.592C284.646 7.79467 284.966 8.06133 285.196 8.392C285.425 8.72267 285.54 9.14933 285.54 9.672C285.54 10.2693 285.369 10.7547 285.028 11.128C284.686 11.496 284.244 11.7653 283.7 11.936C283.161 12.1013 282.59 12.184 281.988 12.184C281.225 12.184 280.574 12.0747 280.036 11.856C279.502 11.632 279.054 11.3627 278.692 11.048L279.46 10.16C279.79 10.432 280.169 10.6533 280.596 10.824C281.028 10.9893 281.492 11.072 281.988 11.072ZM292.485 3.4C293.232 3.4 293.827 3.58133 294.269 3.944C294.717 4.30667 295.04 4.81867 295.237 5.48C295.435 6.136 295.533 6.904 295.533 7.784C295.533 8.632 295.413 9.38933 295.173 10.056C294.939 10.7173 294.581 11.2373 294.101 11.616C293.621 11.9947 293.016 12.184 292.285 12.184C291.363 12.184 290.621 11.8587 290.061 11.208V15.224L288.717 15.392V3.576H289.861L289.973 4.752C290.283 4.32 290.651 3.98667 291.077 3.752C291.509 3.51733 291.979 3.4 292.485 3.4ZM292.165 4.48C291.701 4.48 291.291 4.62133 290.933 4.904C290.581 5.18133 290.291 5.49067 290.061 5.832V10.008C290.28 10.3333 290.555 10.592 290.885 10.784C291.221 10.9707 291.589 11.064 291.989 11.064C292.688 11.064 293.213 10.7973 293.565 10.264C293.917 9.73067 294.093 8.90133 294.093 7.776C294.093 7.04 294.024 6.42933 293.885 5.944C293.747 5.45333 293.536 5.088 293.253 4.848C292.971 4.60267 292.608 4.48 292.165 4.48ZM304.343 10.16C304.343 10.496 304.399 10.7413 304.511 10.896C304.623 11.0507 304.796 11.1653 305.031 11.24L304.703 12.184C304.34 12.136 304.023 12.0213 303.751 11.84C303.479 11.6533 303.282 11.3733 303.159 11C302.855 11.3893 302.476 11.6853 302.023 11.888C301.57 12.0853 301.068 12.184 300.519 12.184C299.676 12.184 299.012 11.9467 298.527 11.472C298.042 10.9973 297.799 10.368 297.799 9.584C297.799 8.71467 298.138 8.048 298.815 7.584C299.492 7.12 300.471 6.888 301.751 6.888H302.991V6.184C302.991 5.576 302.812 5.14667 302.455 4.896C302.103 4.64 301.612 4.512 300.983 4.512C300.706 4.512 300.38 4.54667 300.007 4.616C299.634 4.68 299.228 4.78933 298.791 4.944L298.439 3.928C298.956 3.736 299.442 3.6 299.895 3.52C300.348 3.44 300.78 3.4 301.191 3.4C302.242 3.4 303.028 3.64533 303.551 4.136C304.079 4.62133 304.343 5.28267 304.343 6.12V10.16ZM300.863 11.16C301.279 11.16 301.676 11.056 302.055 10.848C302.434 10.6347 302.746 10.3413 302.991 9.968V7.8H301.775C300.847 7.8 300.191 7.96 299.807 8.28C299.428 8.6 299.239 9.02933 299.239 9.568C299.239 10.0907 299.372 10.488 299.639 10.76C299.911 11.0267 300.319 11.16 300.863 11.16ZM311.713 11.024C312.134 11.024 312.526 10.9547 312.889 10.816C313.257 10.6773 313.596 10.5013 313.905 10.288L314.561 11.168C314.193 11.4827 313.75 11.7307 313.233 11.912C312.716 12.0933 312.209 12.184 311.713 12.184C310.876 12.184 310.161 12.0053 309.569 11.648C308.982 11.2853 308.534 10.7787 308.225 10.128C307.916 9.472 307.761 8.704 307.761 7.824C307.761 6.98133 307.916 6.22667 308.225 5.56C308.54 4.888 308.99 4.36 309.577 3.976C310.169 3.592 310.886 3.4 311.729 3.4C312.268 3.4 312.772 3.48267 313.241 3.648C313.716 3.808 314.15 4.05067 314.545 4.376L313.889 5.272C313.532 5.02133 313.172 4.83467 312.809 4.712C312.452 4.584 312.086 4.52 311.713 4.52C310.988 4.52 310.39 4.792 309.921 5.336C309.452 5.88 309.217 6.70933 309.217 7.824C309.217 8.57067 309.324 9.18133 309.537 9.656C309.756 10.1253 310.052 10.472 310.425 10.696C310.804 10.9147 311.233 11.024 311.713 11.024ZM318.555 8.264C318.581 8.91467 318.707 9.448 318.931 9.864C319.155 10.2747 319.451 10.5787 319.819 10.776C320.187 10.968 320.587 11.064 321.019 11.064C321.451 11.064 321.84 11 322.187 10.872C322.539 10.744 322.899 10.5547 323.267 10.304L323.899 11.192C323.504 11.5013 323.053 11.744 322.547 11.92C322.045 12.096 321.531 12.184 321.003 12.184C320.187 12.184 319.491 12 318.915 11.632C318.339 11.264 317.899 10.752 317.595 10.096C317.296 9.43467 317.147 8.66933 317.147 7.8C317.147 6.94667 317.299 6.18933 317.603 5.528C317.907 4.86667 318.333 4.34667 318.883 3.968C319.432 3.58933 320.08 3.4 320.827 3.4C321.536 3.4 322.147 3.568 322.659 3.904C323.171 4.23467 323.563 4.70933 323.835 5.328C324.112 5.94133 324.251 6.67467 324.251 7.528C324.251 7.672 324.248 7.808 324.243 7.936C324.237 8.05867 324.229 8.168 324.219 8.264H318.555ZM320.843 4.504C320.219 4.504 319.696 4.72533 319.275 5.168C318.859 5.61067 318.621 6.296 318.563 7.224H322.955C322.939 6.32267 322.741 5.64533 322.363 5.192C321.984 4.73333 321.477 4.504 320.843 4.504ZM349.288 8.728L348.808 9.816L340.04 5.92L340.512 4.88L349.288 8.728ZM348.992 12.44L348.52 13.528L339.744 9.632L340.216 8.592L348.992 12.44ZM349.288 1.816L340.512 5.672L340.04 5.92V4.632L348.808 0.728L349.288 1.816ZM368.243 0.808L369.363 1.28L366.435 8.248H372.315V9.32H365.011V8.344L368.243 0.808ZM370.891 5.12V12H369.595L369.587 8.504L369.771 5.12H370.891ZM387.167 2.744H388.527L388.423 5.984L391.463 4.904L391.871 6.168L388.775 7.08L390.751 9.64L389.679 10.424L387.847 7.752L386.015 10.424L384.943 9.64L386.919 7.08L383.823 6.168L384.231 4.904L387.271 5.984L387.167 2.744ZM405.522 10.856H410.21L410.034 12H403.874V10.984L408.546 4.744H404.242V3.576H410.162V4.616L405.522 10.856Z" fill="var(--text-0)"/>
<path d="M15.7295 238.463V237.265H21.9736V238.463H15.7295ZM8.05768 238.463V237.265H14.3018V238.463H8.05768ZM33.3681 242.565C33.0727 242.762 32.7144 242.915 32.2932 243.025C31.872 243.134 31.459 243.189 31.0542 243.189C30.1243 243.189 29.4078 242.945 28.9045 242.458C28.4013 241.972 28.1496 241.345 28.1496 240.579V235.427H26.164V234.36H28.1496V232.399L29.5281 232.235V234.36H32.5148L32.3507 235.427H29.5281V240.563C29.5281 241.044 29.6539 241.411 29.9055 241.663C30.1626 241.914 30.5866 242.04 31.1773 242.04C31.5001 242.04 31.7982 242.002 32.0717 241.925C32.3452 241.849 32.5995 241.75 32.8348 241.63L33.3681 242.565ZM37.7308 230.75V235.542C38.07 235.093 38.4857 234.754 38.978 234.524C39.4758 234.294 39.979 234.179 40.4877 234.179C41.3301 234.179 41.9455 234.404 42.3339 234.852C42.7223 235.301 42.9165 235.924 42.9165 236.723V243H41.538V236.756C41.538 236.236 41.4177 235.859 41.177 235.624C40.9363 235.383 40.5589 235.263 40.0447 235.263C39.7165 235.263 39.4047 235.336 39.1093 235.484C38.8139 235.632 38.5486 235.815 38.3134 236.034C38.0782 236.253 37.884 236.477 37.7308 236.707V243H36.3524V230.897L37.7308 230.75ZM46.2782 243V241.942H47.6238V235.418H46.2782V234.36H48.6741L48.9284 236.403C49.2621 235.692 49.6669 235.142 50.1428 234.754C50.6187 234.365 51.2477 234.171 52.03 234.171C52.2706 234.171 52.484 234.19 52.67 234.229C52.8614 234.262 53.0556 234.305 53.2525 234.36L53.0556 237.281H51.9233V235.443C51.9014 235.443 51.8768 235.443 51.8494 235.443C50.5257 235.443 49.5766 236.389 49.0023 238.282V241.942H50.7582V243H46.2782ZM57.1229 239.168C57.1612 240.169 57.4238 240.899 57.9106 241.359C58.4029 241.813 58.9828 242.04 59.6501 242.04C60.0932 242.04 60.4925 241.974 60.8481 241.843C61.2036 241.712 61.5728 241.518 61.9558 241.261L62.604 242.171C62.2046 242.489 61.7452 242.737 61.2255 242.918C60.7058 243.098 60.1752 243.189 59.6337 243.189C58.7913 243.189 58.0747 243 57.484 242.623C56.8987 242.245 56.4501 241.72 56.1383 241.047C55.832 240.369 55.6788 239.584 55.6788 238.692C55.6788 237.817 55.832 237.04 56.1383 236.362C56.4501 235.684 56.8877 235.15 57.4511 234.762C58.02 234.374 58.6874 234.179 59.4532 234.179C60.5417 234.179 61.3978 234.557 62.0214 235.312C62.6505 236.067 62.965 237.101 62.965 238.413C62.965 238.561 62.9595 238.701 62.9486 238.832C62.9431 238.963 62.9376 239.075 62.9322 239.168H57.1229ZM59.4696 235.312C58.8296 235.312 58.2935 235.539 57.8614 235.993C57.4293 236.447 57.1858 237.15 57.1311 238.102H61.6358C61.6193 237.177 61.4169 236.482 61.0286 236.017C60.6402 235.547 60.1205 235.312 59.4696 235.312ZM68.821 242.048C69.4884 242.048 70.0135 241.925 70.3964 241.679C70.7793 241.433 70.9708 241.099 70.9708 240.678C70.9708 240.421 70.9216 240.197 70.8231 240.005C70.7301 239.814 70.5359 239.641 70.2405 239.488C69.9451 239.33 69.4911 239.174 68.8785 239.021C68.2822 238.873 67.7626 238.703 67.3195 238.512C66.8819 238.315 66.54 238.061 66.2939 237.749C66.0532 237.437 65.9328 237.032 65.9328 236.534C65.9328 235.807 66.2364 235.232 66.8436 234.811C67.4508 234.39 68.2412 234.179 69.2149 234.179C69.9096 234.179 70.514 234.272 71.0282 234.458C71.5479 234.644 71.9882 234.869 72.3492 235.131L71.7421 236.067C71.4193 235.842 71.0583 235.659 70.659 235.517C70.2651 235.369 69.7892 235.295 69.2313 235.295C68.553 235.295 68.0716 235.402 67.7872 235.615C67.5028 235.823 67.3605 236.094 67.3605 236.428C67.3605 236.685 67.4289 236.898 67.5657 237.068C67.7079 237.232 67.9458 237.379 68.2795 237.511C68.6132 237.642 69.0727 237.787 69.658 237.946C70.2214 238.099 70.7137 238.279 71.1349 238.487C71.5561 238.695 71.8816 238.969 72.1113 239.308C72.3465 239.641 72.4641 240.076 72.4641 240.612C72.4641 241.225 72.2891 241.723 71.939 242.106C71.5889 242.483 71.1349 242.759 70.5769 242.934C70.0245 243.104 69.4392 243.189 68.821 243.189C68.0388 243.189 67.3715 243.077 66.819 242.852C66.272 242.623 65.8125 242.346 65.4405 242.024L66.2282 241.113C66.5674 241.392 66.9557 241.619 67.3933 241.794C67.8364 241.963 68.3123 242.048 68.821 242.048ZM77.1058 230.75V235.542C77.445 235.093 77.8607 234.754 78.353 234.524C78.8508 234.294 79.354 234.179 79.8627 234.179C80.7051 234.179 81.3205 234.404 81.7089 234.852C82.0973 235.301 82.2915 235.924 82.2915 236.723V243H80.913V236.756C80.913 236.236 80.7927 235.859 80.552 235.624C80.3113 235.383 79.9339 235.263 79.4197 235.263C79.0915 235.263 78.7797 235.336 78.4843 235.484C78.1889 235.632 77.9236 235.815 77.6884 236.034C77.4532 236.253 77.259 236.477 77.1058 236.707V243H75.7274V230.897L77.1058 230.75ZM88.8614 234.179C90.0812 234.179 91.0029 234.587 91.6265 235.402C92.2501 236.217 92.5619 237.308 92.5619 238.676C92.5619 239.557 92.4197 240.336 92.1352 241.014C91.8508 241.693 91.4323 242.226 90.8798 242.614C90.3273 242.997 89.6491 243.189 88.845 243.189C87.6251 243.189 86.7007 242.778 86.0716 241.958C85.4426 241.137 85.128 240.049 85.128 238.692C85.128 237.806 85.2703 237.024 85.5547 236.346C85.8391 235.662 86.2576 235.131 86.8101 234.754C87.368 234.371 88.0518 234.179 88.8614 234.179ZM88.8614 235.304C88.1174 235.304 87.554 235.58 87.1711 236.132C86.7937 236.685 86.605 237.538 86.605 238.692C86.605 239.836 86.7909 240.683 87.1629 241.236C87.5403 241.783 88.101 242.056 88.845 242.056C89.5889 242.056 90.1468 241.78 90.5188 241.228C90.8962 240.675 91.085 239.825 91.085 238.676C91.085 237.527 90.899 236.679 90.527 236.132C90.155 235.58 89.5998 235.304 88.8614 235.304ZM98.779 230.881V240.867C98.779 241.293 98.9102 241.597 99.1728 241.777C99.4408 241.952 99.7855 242.04 100.207 242.04C100.464 242.04 100.71 242.013 100.945 241.958C101.186 241.903 101.424 241.829 101.659 241.736L102.028 242.746C101.793 242.861 101.5 242.962 101.15 243.049C100.806 243.142 100.415 243.189 99.9769 243.189C99.2111 243.189 98.5902 242.978 98.1143 242.557C97.6384 242.13 97.4005 241.542 97.4005 240.793V231.972H94.7502V230.881H98.779ZM110.428 230.709L111.806 230.881V243H110.6L110.469 241.859C110.146 242.319 109.774 242.655 109.353 242.869C108.937 243.082 108.491 243.189 108.016 243.189C107.266 243.189 106.648 243 106.161 242.623C105.674 242.245 105.313 241.72 105.078 241.047C104.843 240.369 104.725 239.584 104.725 238.692C104.725 237.828 104.859 237.057 105.127 236.378C105.395 235.695 105.781 235.159 106.284 234.77C106.793 234.376 107.403 234.179 108.114 234.179C109.071 234.179 109.843 234.519 110.428 235.197V230.709ZM108.475 235.287C107.753 235.287 107.198 235.569 106.809 236.132C106.421 236.696 106.227 237.549 106.227 238.692C106.227 240.946 106.919 242.073 108.303 242.073C108.79 242.073 109.208 241.936 109.558 241.663C109.908 241.384 110.198 241.066 110.428 240.711V236.395C110.193 236.045 109.908 235.774 109.575 235.583C109.241 235.386 108.874 235.287 108.475 235.287ZM115.086 238.463V237.265H121.666V238.463H115.086ZM130.706 229.289V230.372C130.307 230.372 129.943 230.413 129.615 230.495C129.292 230.572 129.04 230.706 128.86 230.897C128.679 231.089 128.606 231.351 128.638 231.685L128.983 235.049C129.054 235.738 128.956 236.253 128.688 236.592C128.425 236.931 128.012 237.152 127.449 237.256C128.023 237.36 128.441 237.574 128.704 237.896C128.967 238.214 129.06 238.736 128.983 239.464L128.638 242.828C128.606 243.167 128.679 243.432 128.86 243.624C129.04 243.815 129.292 243.949 129.615 244.026C129.938 244.102 130.301 244.141 130.706 244.141V245.224C130.093 245.224 129.519 245.15 128.983 245.002C128.447 244.854 128.026 244.595 127.719 244.223C127.413 243.856 127.298 243.336 127.375 242.664L127.703 239.546C127.747 239.174 127.711 238.859 127.596 238.602C127.487 238.339 127.246 238.143 126.874 238.011C126.508 237.875 125.958 237.806 125.225 237.806V236.707C125.958 236.707 126.508 236.641 126.874 236.51C127.246 236.378 127.487 236.184 127.596 235.927C127.711 235.67 127.747 235.356 127.703 234.984L127.375 231.849C127.304 231.176 127.419 230.657 127.719 230.29C128.026 229.918 128.447 229.658 128.983 229.511C129.519 229.363 130.093 229.289 130.706 229.289ZM136.513 241.827H141.321L141.141 243H134.823V241.958L139.614 235.558H135.2V234.36H141.272V235.427L136.513 241.827ZM145.421 229.289C146.034 229.289 146.608 229.363 147.144 229.511C147.68 229.658 148.102 229.918 148.408 230.29C148.714 230.657 148.829 231.176 148.753 231.849L148.424 234.984C148.364 235.542 148.509 235.968 148.859 236.264C149.209 236.559 149.89 236.707 150.902 236.707V237.806C149.896 237.806 149.215 237.957 148.859 238.257C148.509 238.558 148.364 238.988 148.424 239.546L148.753 242.664C148.824 243.336 148.706 243.856 148.4 244.223C148.099 244.595 147.68 244.854 147.144 245.002C146.608 245.15 146.034 245.224 145.421 245.224V244.141C145.821 244.141 146.182 244.102 146.504 244.026C146.833 243.949 147.087 243.815 147.267 243.624C147.448 243.432 147.522 243.167 147.489 242.828L147.144 239.464C147.068 238.736 147.166 238.214 147.44 237.896C147.719 237.579 148.192 237.371 148.859 237.273C148.214 237.163 147.749 236.939 147.464 236.6C147.18 236.255 147.073 235.738 147.144 235.049L147.489 231.685C147.522 231.351 147.448 231.089 147.267 230.897C147.087 230.706 146.835 230.572 146.513 230.495C146.19 230.413 145.826 230.372 145.421 230.372V229.289Z" fill="var(--text-0)"/>
<path d="M0 24L10 29.7735V18.2265L0 24ZM601 24L591 18.2265V29.7735L601 24ZM9 25H592V23H9V25Z" fill="var(--text-0)"/>
<path d="M0 255L10 260.774V249.226L0 255ZM155 255L145 249.226V260.774L155 255ZM9 256H146V254H9V256Z" fill="var(--text-0)"/>
<rect x="1" y="55" width="186" height="148" rx="15" fill="var(--token-neutral-2)" stroke="var(--text-0)" stroke-width="2"/>
<rect x="415" y="55" width="186" height="148" rx="15" fill="var(--token-neutral-2)" stroke="var(--text-0)" stroke-width="2"/>
<rect x="208" y="55" width="186" height="148" rx="15" fill="var(--token-neutral-2)" stroke="var(--text-0)" stroke-width="2"/>
<line x1="793" y1="150" x2="793" y2="24" stroke="var(--text-0)" stroke-width="2" stroke-dasharray="4 4"/>
<line x1="1186" y1="150" x2="1186" y2="24" stroke="var(--text-0)" stroke-width="2" stroke-dasharray="4 4"/>
<path d="M883.484 0.808C884.177 0.808 884.769 0.941333 885.26 1.208C885.756 1.47467 886.137 1.84 886.404 2.304C886.671 2.768 886.804 3.29333 886.804 3.88C886.804 4.38667 886.716 4.88267 886.54 5.368C886.364 5.848 886.081 6.35467 885.692 6.888C885.308 7.416 884.801 8.00267 884.172 8.648C883.548 9.29333 882.78 10.0293 881.868 10.856H887.06L886.892 12H880.34V10.904C881.172 10.1093 881.879 9.41333 882.46 8.816C883.047 8.21867 883.529 7.696 883.908 7.248C884.292 6.79467 884.591 6.384 884.804 6.016C885.023 5.648 885.175 5.29867 885.26 4.968C885.345 4.632 885.388 4.28533 885.388 3.928C885.388 3.30933 885.212 2.82133 884.86 2.464C884.513 2.10667 884.033 1.928 883.42 1.928C882.876 1.928 882.431 2.02133 882.084 2.208C881.737 2.39467 881.391 2.69333 881.044 3.104L880.116 2.384C880.553 1.85067 881.039 1.456 881.572 1.2C882.105 0.938666 882.743 0.808 883.484 0.808ZM902.479 2.744H903.839L903.735 5.984L906.775 4.904L907.183 6.168L904.087 7.08L906.063 9.64L904.991 10.424L903.159 7.752L901.327 10.424L900.255 9.64L902.231 7.08L899.135 6.168L899.543 4.904L902.583 5.984L902.479 2.744ZM920.835 10.856H925.523L925.347 12H919.187V10.984L923.859 4.744H919.555V3.576H925.475V4.616L920.835 10.856ZM950.944 8.728L950.464 9.816L941.696 5.92L942.168 4.88L950.944 8.728ZM950.648 12.44L950.176 13.528L941.4 9.632L941.872 8.592L950.648 12.44ZM950.944 1.816L942.168 5.672L941.696 5.92V4.632L950.464 0.728L950.944 1.816ZM969.988 11.072C970.633 11.072 971.142 10.952 971.516 10.712C971.894 10.4667 972.084 10.1413 972.084 9.736C972.084 9.48 972.036 9.25867 971.94 9.072C971.849 8.88533 971.66 8.71733 971.372 8.568C971.084 8.41867 970.641 8.26933 970.044 8.12C969.462 7.976 968.956 7.81067 968.524 7.624C968.097 7.432 967.764 7.184 967.524 6.88C967.289 6.576 967.172 6.18133 967.172 5.696C967.172 5.22133 967.305 4.81333 967.572 4.472C967.844 4.12533 968.22 3.86133 968.7 3.68C969.18 3.49333 969.737 3.4 970.372 3.4C971.049 3.4 971.638 3.49067 972.14 3.672C972.646 3.848 973.076 4.06667 973.428 4.328L972.836 5.24C972.516 5.02133 972.164 4.84267 971.78 4.704C971.396 4.56 970.932 4.488 970.388 4.488C969.726 4.488 969.257 4.592 968.98 4.8C968.702 5.00267 968.564 5.26667 968.564 5.592C968.564 5.83733 968.63 6.04267 968.764 6.208C968.902 6.368 969.134 6.51467 969.46 6.648C969.785 6.776 970.233 6.91733 970.804 7.072C971.353 7.216 971.83 7.38933 972.236 7.592C972.646 7.79467 972.966 8.06133 973.196 8.392C973.425 8.72267 973.54 9.14933 973.54 9.672C973.54 10.2693 973.369 10.7547 973.028 11.128C972.686 11.496 972.244 11.7653 971.7 11.936C971.161 12.1013 970.59 12.184 969.988 12.184C969.225 12.184 968.574 12.0747 968.036 11.856C967.502 11.632 967.054 11.3627 966.692 11.048L967.46 10.16C967.79 10.432 968.169 10.6533 968.596 10.824C969.028 10.9893 969.492 11.072 969.988 11.072ZM980.485 3.4C981.232 3.4 981.827 3.58133 982.269 3.944C982.717 4.30667 983.04 4.81867 983.237 5.48C983.435 6.136 983.533 6.904 983.533 7.784C983.533 8.632 983.413 9.38933 983.173 10.056C982.939 10.7173 982.581 11.2373 982.101 11.616C981.621 11.9947 981.016 12.184 980.285 12.184C979.363 12.184 978.621 11.8587 978.061 11.208V15.224L976.717 15.392V3.576H977.861L977.973 4.752C978.283 4.32 978.651 3.98667 979.077 3.752C979.509 3.51733 979.979 3.4 980.485 3.4ZM980.165 4.48C979.701 4.48 979.291 4.62133 978.933 4.904C978.581 5.18133 978.291 5.49067 978.061 5.832V10.008C978.28 10.3333 978.555 10.592 978.885 10.784C979.221 10.9707 979.589 11.064 979.989 11.064C980.688 11.064 981.213 10.7973 981.565 10.264C981.917 9.73067 982.093 8.90133 982.093 7.776C982.093 7.04 982.024 6.42933 981.885 5.944C981.747 5.45333 981.536 5.088 981.253 4.848C980.971 4.60267 980.608 4.48 980.165 4.48ZM992.343 10.16C992.343 10.496 992.399 10.7413 992.511 10.896C992.623 11.0507 992.796 11.1653 993.031 11.24L992.703 12.184C992.34 12.136 992.023 12.0213 991.751 11.84C991.479 11.6533 991.282 11.3733 991.159 11C990.855 11.3893 990.476 11.6853 990.023 11.888C989.57 12.0853 989.068 12.184 988.519 12.184C987.676 12.184 987.012 11.9467 986.527 11.472C986.042 10.9973 985.799 10.368 985.799 9.584C985.799 8.71467 986.138 8.048 986.815 7.584C987.492 7.12 988.471 6.888 989.751 6.888H990.991V6.184C990.991 5.576 990.812 5.14667 990.455 4.896C990.103 4.64 989.612 4.512 988.983 4.512C988.706 4.512 988.38 4.54667 988.007 4.616C987.634 4.68 987.228 4.78933 986.791 4.944L986.439 3.928C986.956 3.736 987.442 3.6 987.895 3.52C988.348 3.44 988.78 3.4 989.191 3.4C990.242 3.4 991.028 3.64533 991.551 4.136C992.079 4.62133 992.343 5.28267 992.343 6.12V10.16ZM988.863 11.16C989.279 11.16 989.676 11.056 990.055 10.848C990.434 10.6347 990.746 10.3413 990.991 9.968V7.8H989.775C988.847 7.8 988.191 7.96 987.807 8.28C987.428 8.6 987.239 9.02933 987.239 9.568C987.239 10.0907 987.372 10.488 987.639 10.76C987.911 11.0267 988.319 11.16 988.863 11.16ZM999.713 11.024C1000.13 11.024 1000.53 10.9547 1000.89 10.816C1001.26 10.6773 1001.6 10.5013 1001.9 10.288L1002.56 11.168C1002.19 11.4827 1001.75 11.7307 1001.23 11.912C1000.72 12.0933 1000.21 12.184 999.713 12.184C998.876 12.184 998.161 12.0053 997.569 11.648C996.982 11.2853 996.534 10.7787 996.225 10.128C995.916 9.472 995.761 8.704 995.761 7.824C995.761 6.98133 995.916 6.22667 996.225 5.56C996.54 4.888 996.99 4.36 997.577 3.976C998.169 3.592 998.886 3.4 999.729 3.4C1000.27 3.4 1000.77 3.48267 1001.24 3.648C1001.72 3.808 1002.15 4.05067 1002.54 4.376L1001.89 5.272C1001.53 5.02133 1001.17 4.83467 1000.81 4.712C1000.45 4.584 1000.09 4.52 999.713 4.52C998.988 4.52 998.39 4.792 997.921 5.336C997.452 5.88 997.217 6.70933 997.217 7.824C997.217 8.57067 997.324 9.18133 997.537 9.656C997.756 10.1253 998.052 10.472 998.425 10.696C998.804 10.9147 999.233 11.024 999.713 11.024ZM1006.55 8.264C1006.58 8.91467 1006.71 9.448 1006.93 9.864C1007.15 10.2747 1007.45 10.5787 1007.82 10.776C1008.19 10.968 1008.59 11.064 1009.02 11.064C1009.45 11.064 1009.84 11 1010.19 10.872C1010.54 10.744 1010.9 10.5547 1011.27 10.304L1011.9 11.192C1011.5 11.5013 1011.05 11.744 1010.55 11.92C1010.05 12.096 1009.53 12.184 1009 12.184C1008.19 12.184 1007.49 12 1006.91 11.632C1006.34 11.264 1005.9 10.752 1005.59 10.096C1005.3 9.43467 1005.15 8.66933 1005.15 7.8C1005.15 6.94667 1005.3 6.18933 1005.6 5.528C1005.91 4.86667 1006.33 4.34667 1006.88 3.968C1007.43 3.58933 1008.08 3.4 1008.83 3.4C1009.54 3.4 1010.15 3.568 1010.66 3.904C1011.17 4.23467 1011.56 4.70933 1011.83 5.328C1012.11 5.94133 1012.25 6.67467 1012.25 7.528C1012.25 7.672 1012.25 7.808 1012.24 7.936C1012.24 8.05867 1012.23 8.168 1012.22 8.264H1006.55ZM1008.84 4.504C1008.22 4.504 1007.7 4.72533 1007.27 5.168C1006.86 5.61067 1006.62 6.296 1006.56 7.224H1010.95C1010.94 6.32267 1010.74 5.64533 1010.36 5.192C1009.98 4.73333 1009.48 4.504 1008.84 4.504ZM1037.29 8.728L1036.81 9.816L1028.04 5.92L1028.51 4.88L1037.29 8.728ZM1036.99 12.44L1036.52 13.528L1027.74 9.632L1028.22 8.592L1036.99 12.44ZM1037.29 1.816L1028.51 5.672L1028.04 5.92V4.632L1036.81 0.728L1037.29 1.816ZM1056.16 0.808C1056.85 0.808 1057.45 0.933333 1057.95 1.184C1058.45 1.42933 1058.85 1.76267 1059.12 2.184C1059.4 2.6 1059.54 3.05867 1059.54 3.56C1059.54 4.00267 1059.44 4.40533 1059.24 4.768C1059.05 5.13067 1058.78 5.42933 1058.46 5.664C1058.13 5.89867 1057.78 6.05333 1057.39 6.128C1057.82 6.16 1058.22 6.28267 1058.6 6.496C1058.98 6.704 1059.29 7.00267 1059.53 7.392C1059.77 7.776 1059.89 8.25333 1059.89 8.824C1059.89 9.45867 1059.73 10.032 1059.41 10.544C1059.09 11.0507 1058.64 11.4507 1058.07 11.744C1057.5 12.0373 1056.83 12.184 1056.07 12.184C1055.45 12.184 1054.84 12.0667 1054.23 11.832C1053.62 11.5973 1053.1 11.224 1052.68 10.712L1053.59 9.976C1053.9 10.344 1054.28 10.6187 1054.71 10.8C1055.14 10.9813 1055.59 11.072 1056.04 11.072C1056.8 11.072 1057.4 10.872 1057.84 10.472C1058.27 10.0667 1058.48 9.51733 1058.48 8.824C1058.48 8.30133 1058.38 7.888 1058.18 7.584C1057.98 7.28 1057.71 7.064 1057.37 6.936C1057.03 6.80267 1056.64 6.736 1056.2 6.736H1055.28L1055.44 5.672H1056.09C1056.45 5.672 1056.78 5.60533 1057.1 5.472C1057.42 5.33333 1057.68 5.12 1057.88 4.832C1058.09 4.544 1058.19 4.184 1058.19 3.752C1058.19 3.144 1057.98 2.68 1057.58 2.36C1057.17 2.04 1056.68 1.88 1056.11 1.88C1055.63 1.88 1055.21 1.96533 1054.85 2.136C1054.49 2.30133 1054.13 2.55467 1053.77 2.896L1053.03 2.072C1053.5 1.62933 1054 1.30933 1054.52 1.112C1055.05 0.909333 1055.6 0.808 1056.16 0.808ZM1075.17 2.744H1076.53L1076.42 5.984L1079.46 4.904L1079.87 6.168L1076.77 7.08L1078.75 9.64L1077.68 10.424L1075.85 7.752L1074.01 10.424L1072.94 9.64L1074.92 7.08L1071.82 6.168L1072.23 4.904L1075.27 5.984L1075.17 2.744ZM1093.52 10.856H1098.21L1098.03 12H1091.87V10.984L1096.55 4.744H1092.24V3.576H1098.16V4.616L1093.52 10.856Z" fill="var(--text-0)"/>
<path d="M792 24L802 29.7735V18.2265L792 24ZM1187 24L1177 18.2265V29.7735L1187 24ZM801 25H1178V23H801V25Z" fill="var(--text-0)"/>
<rect x="793" y="55" width="186" height="148" rx="15" fill="var(--token-neutral-2)" stroke="var(--text-0)" stroke-width="2"/>
<rect x="793" y="221" width="186" height="148" rx="15" fill="var(--token-neutral-2)" stroke="var(--text-0)" stroke-width="2"/>
<rect x="1000" y="55" width="186" height="148" rx="15" fill="var(--token-neutral-2)" stroke="var(--text-0)" stroke-width="2"/>
</svg>
